%TF.GenerationSoftware,KiCad,Pcbnew,8.0.4*%
%TF.CreationDate,2024-09-09T16:31:10-03:00*%
%TF.ProjectId,Esquem_tico_V1,45737175-656d-4e17-9469-636f5f56312e,rev?*%
%TF.SameCoordinates,Original*%
%TF.FileFunction,Soldermask,Bot*%
%TF.FilePolarity,Negative*%
%FSLAX46Y46*%
G04 Gerber Fmt 4.6, Leading zero omitted, Abs format (unit mm)*
G04 Created by KiCad (PCBNEW 8.0.4) date 2024-09-09 16:31:10*
%MOMM*%
%LPD*%
G01*
G04 APERTURE LIST*
G04 Aperture macros list*
%AMRoundRect*
0 Rectangle with rounded corners*
0 $1 Rounding radius*
0 $2 $3 $4 $5 $6 $7 $8 $9 X,Y pos of 4 corners*
0 Add a 4 corners polygon primitive as box body*
4,1,4,$2,$3,$4,$5,$6,$7,$8,$9,$2,$3,0*
0 Add four circle primitives for the rounded corners*
1,1,$1+$1,$2,$3*
1,1,$1+$1,$4,$5*
1,1,$1+$1,$6,$7*
1,1,$1+$1,$8,$9*
0 Add four rect primitives between the rounded corners*
20,1,$1+$1,$2,$3,$4,$5,0*
20,1,$1+$1,$4,$5,$6,$7,0*
20,1,$1+$1,$6,$7,$8,$9,0*
20,1,$1+$1,$8,$9,$2,$3,0*%
G04 Aperture macros list end*
%ADD10R,1.800000X1.800000*%
%ADD11C,1.800000*%
%ADD12R,1.700000X1.700000*%
%ADD13O,1.700000X1.700000*%
%ADD14RoundRect,0.250000X0.400000X0.600000X-0.400000X0.600000X-0.400000X-0.600000X0.400000X-0.600000X0*%
%ADD15R,1.600000X1.600000*%
%ADD16C,1.600000*%
%ADD17C,4.000000*%
%ADD18C,1.400000*%
%ADD19RoundRect,0.250000X0.262500X0.450000X-0.262500X0.450000X-0.262500X-0.450000X0.262500X-0.450000X0*%
%ADD20RoundRect,0.250000X0.475000X-0.250000X0.475000X0.250000X-0.475000X0.250000X-0.475000X-0.250000X0*%
%ADD21R,3.500000X3.500000*%
%ADD22RoundRect,0.750000X-0.750000X-1.000000X0.750000X-1.000000X0.750000X1.000000X-0.750000X1.000000X0*%
%ADD23RoundRect,0.875000X-0.875000X-0.875000X0.875000X-0.875000X0.875000X0.875000X-0.875000X0.875000X0*%
%ADD24C,5.600000*%
%ADD25RoundRect,0.250000X1.100000X-0.500000X1.100000X0.500000X-1.100000X0.500000X-1.100000X-0.500000X0*%
%ADD26C,1.500000*%
%ADD27RoundRect,0.250000X0.350000X-0.850000X0.350000X0.850000X-0.350000X0.850000X-0.350000X-0.850000X0*%
G04 APERTURE END LIST*
D10*
%TO.C,D6*%
X128960000Y-109105000D03*
D11*
X128960000Y-106565000D03*
%TD*%
D12*
%TO.C,J9*%
X152200000Y-109620000D03*
D13*
X154740000Y-109620000D03*
X157280000Y-109620000D03*
X159820000Y-109620000D03*
X162360000Y-109620000D03*
X164900000Y-109620000D03*
X167440000Y-109620000D03*
X169980000Y-109620000D03*
%TD*%
D12*
%TO.C,J4*%
X153720000Y-84640000D03*
D13*
X156260000Y-84640000D03*
X153720000Y-87180000D03*
X156260000Y-87180000D03*
X153720000Y-89720000D03*
X156260000Y-89720000D03*
%TD*%
D12*
%TO.C,J8*%
X192575000Y-64620000D03*
D13*
X190035000Y-64620000D03*
X187495000Y-64620000D03*
X184955000Y-64620000D03*
X182415000Y-64620000D03*
X179875000Y-64620000D03*
X177335000Y-64620000D03*
X174795000Y-64620000D03*
%TD*%
D12*
%TO.C,J7*%
X189840000Y-80770000D03*
D13*
X189840000Y-83310000D03*
X189840000Y-85850000D03*
X189840000Y-88390000D03*
X189840000Y-90930000D03*
X189840000Y-93470000D03*
%TD*%
D10*
%TO.C,D8*%
X195620000Y-101050000D03*
D11*
X193080000Y-101050000D03*
%TD*%
D14*
%TO.C,D4*%
X132547500Y-78200000D03*
%TD*%
D12*
%TO.C,J6*%
X146000000Y-80770000D03*
D13*
X146000000Y-83310000D03*
X146000000Y-85850000D03*
X146000000Y-88390000D03*
X146000000Y-90930000D03*
X146000000Y-93470000D03*
%TD*%
D15*
%TO.C,J1*%
X117120000Y-97260000D03*
D16*
X117120000Y-94760000D03*
X115120000Y-94760000D03*
X115120000Y-97260000D03*
D17*
X112260000Y-102010000D03*
X112260000Y-90010000D03*
%TD*%
D18*
%TO.C,JP3*%
X195720000Y-76600000D03*
X198260000Y-76600000D03*
%TD*%
D19*
%TO.C,R2*%
X129107500Y-69420000D03*
%TD*%
D20*
%TO.C,C6*%
X160530000Y-88980000D03*
%TD*%
D18*
%TO.C,JP6*%
X121720000Y-108220000D03*
X121720000Y-105680000D03*
%TD*%
D21*
%TO.C,J2*%
X115280000Y-76260000D03*
D22*
X109280000Y-76260000D03*
D23*
X112280000Y-80960000D03*
%TD*%
D18*
%TO.C,JP4*%
X198210000Y-74070000D03*
X195670000Y-74070000D03*
%TD*%
D24*
%TO.C,REF\u002A\u002A*%
X198449999Y-65720001D03*
%TD*%
D10*
%TO.C,D7*%
X134090000Y-109095000D03*
D11*
X134090000Y-106555000D03*
%TD*%
D24*
%TO.C,REF\u002A\u002A*%
X105650001Y-108519999D03*
%TD*%
D12*
%TO.C,J5*%
X152200000Y-64620000D03*
D13*
X154740000Y-64620000D03*
X157280000Y-64620000D03*
X159820000Y-64620000D03*
X162360000Y-64620000D03*
X164900000Y-64620000D03*
X167440000Y-64620000D03*
X169980000Y-64620000D03*
%TD*%
D10*
%TO.C,D3*%
X130940000Y-63945000D03*
D11*
X130940000Y-66485000D03*
%TD*%
D12*
%TO.C,J10*%
X174800000Y-109620000D03*
D13*
X177340000Y-109620000D03*
X179880000Y-109620000D03*
X182420000Y-109620000D03*
X184960000Y-109620000D03*
X187500000Y-109620000D03*
%TD*%
D25*
%TO.C,D1*%
X124075000Y-83182500D03*
%TD*%
D12*
%TO.C,J3*%
X129065000Y-82400000D03*
D13*
X131605000Y-82400000D03*
%TD*%
D24*
%TO.C,REF\u002A\u002A*%
X198450000Y-108520000D03*
%TD*%
D26*
%TO.C,Y1*%
X198200000Y-89370000D03*
X198200000Y-84490000D03*
%TD*%
D27*
%TO.C,U1*%
X119510000Y-72510000D03*
%TD*%
D15*
%TO.C,C2*%
X115260000Y-67950000D03*
D16*
X112760000Y-67950000D03*
%TD*%
D24*
%TO.C,REF\u002A\u002A*%
X105650000Y-65720000D03*
%TD*%
M02*
