%TF.GenerationSoftware,KiCad,Pcbnew,8.0.4*%
%TF.CreationDate,2024-09-09T16:31:10-03:00*%
%TF.ProjectId,Esquem_tico_V1,45737175-656d-4e17-9469-636f5f56312e,rev?*%
%TF.SameCoordinates,Original*%
%TF.FileFunction,Legend,Bot*%
%TF.FilePolarity,Positive*%
%FSLAX46Y46*%
G04 Gerber Fmt 4.6, Leading zero omitted, Abs format (unit mm)*
G04 Created by KiCad (PCBNEW 8.0.4) date 2024-09-09 16:31:10*
%MOMM*%
%LPD*%
G01*
G04 APERTURE LIST*
%ADD10C,0.150000*%
G04 APERTURE END LIST*
D10*
X174457506Y-102969931D02*
X174457506Y-103684216D01*
X174457506Y-103684216D02*
X174505125Y-103827073D01*
X174505125Y-103827073D02*
X174600363Y-103922312D01*
X174600363Y-103922312D02*
X174743220Y-103969931D01*
X174743220Y-103969931D02*
X174838458Y-103969931D01*
X173981315Y-103969931D02*
X173981315Y-102969931D01*
X173981315Y-102969931D02*
X173600363Y-102969931D01*
X173600363Y-102969931D02*
X173505125Y-103017550D01*
X173505125Y-103017550D02*
X173457506Y-103065169D01*
X173457506Y-103065169D02*
X173409887Y-103160407D01*
X173409887Y-103160407D02*
X173409887Y-103303264D01*
X173409887Y-103303264D02*
X173457506Y-103398502D01*
X173457506Y-103398502D02*
X173505125Y-103446121D01*
X173505125Y-103446121D02*
X173600363Y-103493740D01*
X173600363Y-103493740D02*
X173981315Y-103493740D01*
X172505125Y-102969931D02*
X172981315Y-102969931D01*
X172981315Y-102969931D02*
X173028934Y-103446121D01*
X173028934Y-103446121D02*
X172981315Y-103398502D01*
X172981315Y-103398502D02*
X172886077Y-103350883D01*
X172886077Y-103350883D02*
X172647982Y-103350883D01*
X172647982Y-103350883D02*
X172552744Y-103398502D01*
X172552744Y-103398502D02*
X172505125Y-103446121D01*
X172505125Y-103446121D02*
X172457506Y-103541359D01*
X172457506Y-103541359D02*
X172457506Y-103779454D01*
X172457506Y-103779454D02*
X172505125Y-103874692D01*
X172505125Y-103874692D02*
X172552744Y-103922312D01*
X172552744Y-103922312D02*
X172647982Y-103969931D01*
X172647982Y-103969931D02*
X172886077Y-103969931D01*
X172886077Y-103969931D02*
X172981315Y-103922312D01*
X172981315Y-103922312D02*
X173028934Y-103874692D01*
X171267029Y-103588978D02*
X170505125Y-103588978D01*
X169267029Y-103969931D02*
X169267029Y-102969931D01*
X169267029Y-103446121D02*
X168695601Y-103446121D01*
X168695601Y-103969931D02*
X168695601Y-102969931D01*
X168267029Y-103684216D02*
X167790839Y-103684216D01*
X168362267Y-103969931D02*
X168028934Y-102969931D01*
X168028934Y-102969931D02*
X167695601Y-103969931D01*
X167028934Y-103446121D02*
X166886077Y-103493740D01*
X166886077Y-103493740D02*
X166838458Y-103541359D01*
X166838458Y-103541359D02*
X166790839Y-103636597D01*
X166790839Y-103636597D02*
X166790839Y-103779454D01*
X166790839Y-103779454D02*
X166838458Y-103874692D01*
X166838458Y-103874692D02*
X166886077Y-103922312D01*
X166886077Y-103922312D02*
X166981315Y-103969931D01*
X166981315Y-103969931D02*
X167362267Y-103969931D01*
X167362267Y-103969931D02*
X167362267Y-102969931D01*
X167362267Y-102969931D02*
X167028934Y-102969931D01*
X167028934Y-102969931D02*
X166933696Y-103017550D01*
X166933696Y-103017550D02*
X166886077Y-103065169D01*
X166886077Y-103065169D02*
X166838458Y-103160407D01*
X166838458Y-103160407D02*
X166838458Y-103255645D01*
X166838458Y-103255645D02*
X166886077Y-103350883D01*
X166886077Y-103350883D02*
X166933696Y-103398502D01*
X166933696Y-103398502D02*
X167028934Y-103446121D01*
X167028934Y-103446121D02*
X167362267Y-103446121D01*
X166362267Y-103969931D02*
X166362267Y-102969931D01*
X165409887Y-103969931D02*
X165886077Y-103969931D01*
X165886077Y-103969931D02*
X165886077Y-102969931D01*
X165076553Y-103969931D02*
X165076553Y-102969931D01*
X164743220Y-102969931D02*
X164171792Y-102969931D01*
X164457506Y-103969931D02*
X164457506Y-102969931D01*
X163886077Y-103684216D02*
X163409887Y-103684216D01*
X163981315Y-103969931D02*
X163647982Y-102969931D01*
X163647982Y-102969931D02*
X163314649Y-103969931D01*
X162267030Y-102922312D02*
X163124172Y-104208026D01*
X161933696Y-103969931D02*
X161933696Y-102969931D01*
X161933696Y-102969931D02*
X161695601Y-102969931D01*
X161695601Y-102969931D02*
X161552744Y-103017550D01*
X161552744Y-103017550D02*
X161457506Y-103112788D01*
X161457506Y-103112788D02*
X161409887Y-103208026D01*
X161409887Y-103208026D02*
X161362268Y-103398502D01*
X161362268Y-103398502D02*
X161362268Y-103541359D01*
X161362268Y-103541359D02*
X161409887Y-103731835D01*
X161409887Y-103731835D02*
X161457506Y-103827073D01*
X161457506Y-103827073D02*
X161552744Y-103922312D01*
X161552744Y-103922312D02*
X161695601Y-103969931D01*
X161695601Y-103969931D02*
X161933696Y-103969931D01*
X160933696Y-103446121D02*
X160600363Y-103446121D01*
X160457506Y-103969931D02*
X160933696Y-103969931D01*
X160933696Y-103969931D02*
X160933696Y-102969931D01*
X160933696Y-102969931D02*
X160457506Y-102969931D01*
X160076553Y-103922312D02*
X159933696Y-103969931D01*
X159933696Y-103969931D02*
X159695601Y-103969931D01*
X159695601Y-103969931D02*
X159600363Y-103922312D01*
X159600363Y-103922312D02*
X159552744Y-103874692D01*
X159552744Y-103874692D02*
X159505125Y-103779454D01*
X159505125Y-103779454D02*
X159505125Y-103684216D01*
X159505125Y-103684216D02*
X159552744Y-103588978D01*
X159552744Y-103588978D02*
X159600363Y-103541359D01*
X159600363Y-103541359D02*
X159695601Y-103493740D01*
X159695601Y-103493740D02*
X159886077Y-103446121D01*
X159886077Y-103446121D02*
X159981315Y-103398502D01*
X159981315Y-103398502D02*
X160028934Y-103350883D01*
X160028934Y-103350883D02*
X160076553Y-103255645D01*
X160076553Y-103255645D02*
X160076553Y-103160407D01*
X160076553Y-103160407D02*
X160028934Y-103065169D01*
X160028934Y-103065169D02*
X159981315Y-103017550D01*
X159981315Y-103017550D02*
X159886077Y-102969931D01*
X159886077Y-102969931D02*
X159647982Y-102969931D01*
X159647982Y-102969931D02*
X159505125Y-103017550D01*
X159124172Y-103684216D02*
X158647982Y-103684216D01*
X159219410Y-103969931D02*
X158886077Y-102969931D01*
X158886077Y-102969931D02*
X158552744Y-103969931D01*
X157886077Y-103446121D02*
X157743220Y-103493740D01*
X157743220Y-103493740D02*
X157695601Y-103541359D01*
X157695601Y-103541359D02*
X157647982Y-103636597D01*
X157647982Y-103636597D02*
X157647982Y-103779454D01*
X157647982Y-103779454D02*
X157695601Y-103874692D01*
X157695601Y-103874692D02*
X157743220Y-103922312D01*
X157743220Y-103922312D02*
X157838458Y-103969931D01*
X157838458Y-103969931D02*
X158219410Y-103969931D01*
X158219410Y-103969931D02*
X158219410Y-102969931D01*
X158219410Y-102969931D02*
X157886077Y-102969931D01*
X157886077Y-102969931D02*
X157790839Y-103017550D01*
X157790839Y-103017550D02*
X157743220Y-103065169D01*
X157743220Y-103065169D02*
X157695601Y-103160407D01*
X157695601Y-103160407D02*
X157695601Y-103255645D01*
X157695601Y-103255645D02*
X157743220Y-103350883D01*
X157743220Y-103350883D02*
X157790839Y-103398502D01*
X157790839Y-103398502D02*
X157886077Y-103446121D01*
X157886077Y-103446121D02*
X158219410Y-103446121D01*
X157219410Y-103969931D02*
X157219410Y-102969931D01*
X156267030Y-103969931D02*
X156743220Y-103969931D01*
X156743220Y-103969931D02*
X156743220Y-102969931D01*
X155933696Y-103969931D02*
X155933696Y-102969931D01*
X155600363Y-102969931D02*
X155028935Y-102969931D01*
X155314649Y-103969931D02*
X155314649Y-102969931D01*
X154743220Y-103684216D02*
X154267030Y-103684216D01*
X154838458Y-103969931D02*
X154505125Y-102969931D01*
X154505125Y-102969931D02*
X154171792Y-103969931D01*
X152886077Y-102969931D02*
X152695601Y-102969931D01*
X152695601Y-102969931D02*
X152600363Y-103017550D01*
X152600363Y-103017550D02*
X152505125Y-103112788D01*
X152505125Y-103112788D02*
X152457506Y-103303264D01*
X152457506Y-103303264D02*
X152457506Y-103636597D01*
X152457506Y-103636597D02*
X152505125Y-103827073D01*
X152505125Y-103827073D02*
X152600363Y-103922312D01*
X152600363Y-103922312D02*
X152695601Y-103969931D01*
X152695601Y-103969931D02*
X152886077Y-103969931D01*
X152886077Y-103969931D02*
X152981315Y-103922312D01*
X152981315Y-103922312D02*
X153076553Y-103827073D01*
X153076553Y-103827073D02*
X153124172Y-103636597D01*
X153124172Y-103636597D02*
X153124172Y-103303264D01*
X153124172Y-103303264D02*
X153076553Y-103112788D01*
X153076553Y-103112788D02*
X152981315Y-103017550D01*
X152981315Y-103017550D02*
X152886077Y-102969931D01*
X151314648Y-103684216D02*
X150838458Y-103684216D01*
X151409886Y-103969931D02*
X151076553Y-102969931D01*
X151076553Y-102969931D02*
X150743220Y-103969931D01*
X150457505Y-103922312D02*
X150314648Y-103969931D01*
X150314648Y-103969931D02*
X150076553Y-103969931D01*
X150076553Y-103969931D02*
X149981315Y-103922312D01*
X149981315Y-103922312D02*
X149933696Y-103874692D01*
X149933696Y-103874692D02*
X149886077Y-103779454D01*
X149886077Y-103779454D02*
X149886077Y-103684216D01*
X149886077Y-103684216D02*
X149933696Y-103588978D01*
X149933696Y-103588978D02*
X149981315Y-103541359D01*
X149981315Y-103541359D02*
X150076553Y-103493740D01*
X150076553Y-103493740D02*
X150267029Y-103446121D01*
X150267029Y-103446121D02*
X150362267Y-103398502D01*
X150362267Y-103398502D02*
X150409886Y-103350883D01*
X150409886Y-103350883D02*
X150457505Y-103255645D01*
X150457505Y-103255645D02*
X150457505Y-103160407D01*
X150457505Y-103160407D02*
X150409886Y-103065169D01*
X150409886Y-103065169D02*
X150362267Y-103017550D01*
X150362267Y-103017550D02*
X150267029Y-102969931D01*
X150267029Y-102969931D02*
X150028934Y-102969931D01*
X150028934Y-102969931D02*
X149886077Y-103017550D01*
X149505124Y-103922312D02*
X149362267Y-103969931D01*
X149362267Y-103969931D02*
X149124172Y-103969931D01*
X149124172Y-103969931D02*
X149028934Y-103922312D01*
X149028934Y-103922312D02*
X148981315Y-103874692D01*
X148981315Y-103874692D02*
X148933696Y-103779454D01*
X148933696Y-103779454D02*
X148933696Y-103684216D01*
X148933696Y-103684216D02*
X148981315Y-103588978D01*
X148981315Y-103588978D02*
X149028934Y-103541359D01*
X149028934Y-103541359D02*
X149124172Y-103493740D01*
X149124172Y-103493740D02*
X149314648Y-103446121D01*
X149314648Y-103446121D02*
X149409886Y-103398502D01*
X149409886Y-103398502D02*
X149457505Y-103350883D01*
X149457505Y-103350883D02*
X149505124Y-103255645D01*
X149505124Y-103255645D02*
X149505124Y-103160407D01*
X149505124Y-103160407D02*
X149457505Y-103065169D01*
X149457505Y-103065169D02*
X149409886Y-103017550D01*
X149409886Y-103017550D02*
X149314648Y-102969931D01*
X149314648Y-102969931D02*
X149076553Y-102969931D01*
X149076553Y-102969931D02*
X148933696Y-103017550D01*
X148505124Y-103969931D02*
X148505124Y-102969931D01*
X148076553Y-103922312D02*
X147933696Y-103969931D01*
X147933696Y-103969931D02*
X147695601Y-103969931D01*
X147695601Y-103969931D02*
X147600363Y-103922312D01*
X147600363Y-103922312D02*
X147552744Y-103874692D01*
X147552744Y-103874692D02*
X147505125Y-103779454D01*
X147505125Y-103779454D02*
X147505125Y-103684216D01*
X147505125Y-103684216D02*
X147552744Y-103588978D01*
X147552744Y-103588978D02*
X147600363Y-103541359D01*
X147600363Y-103541359D02*
X147695601Y-103493740D01*
X147695601Y-103493740D02*
X147886077Y-103446121D01*
X147886077Y-103446121D02*
X147981315Y-103398502D01*
X147981315Y-103398502D02*
X148028934Y-103350883D01*
X148028934Y-103350883D02*
X148076553Y-103255645D01*
X148076553Y-103255645D02*
X148076553Y-103160407D01*
X148076553Y-103160407D02*
X148028934Y-103065169D01*
X148028934Y-103065169D02*
X147981315Y-103017550D01*
X147981315Y-103017550D02*
X147886077Y-102969931D01*
X147886077Y-102969931D02*
X147647982Y-102969931D01*
X147647982Y-102969931D02*
X147505125Y-103017550D01*
X147219410Y-102969931D02*
X146647982Y-102969931D01*
X146933696Y-103969931D02*
X146933696Y-102969931D01*
X146314648Y-103446121D02*
X145981315Y-103446121D01*
X145838458Y-103969931D02*
X146314648Y-103969931D01*
X146314648Y-103969931D02*
X146314648Y-102969931D01*
X146314648Y-102969931D02*
X145838458Y-102969931D01*
X145409886Y-103969931D02*
X145409886Y-102969931D01*
X145409886Y-102969931D02*
X144838458Y-103969931D01*
X144838458Y-103969931D02*
X144838458Y-102969931D01*
X144505124Y-102969931D02*
X143933696Y-102969931D01*
X144219410Y-103969931D02*
X144219410Y-102969931D01*
X143600362Y-103446121D02*
X143267029Y-103446121D01*
X143124172Y-103969931D02*
X143600362Y-103969931D01*
X143600362Y-103969931D02*
X143600362Y-102969931D01*
X143600362Y-102969931D02*
X143124172Y-102969931D01*
X141362267Y-103969931D02*
X141695600Y-103493740D01*
X141933695Y-103969931D02*
X141933695Y-102969931D01*
X141933695Y-102969931D02*
X141552743Y-102969931D01*
X141552743Y-102969931D02*
X141457505Y-103017550D01*
X141457505Y-103017550D02*
X141409886Y-103065169D01*
X141409886Y-103065169D02*
X141362267Y-103160407D01*
X141362267Y-103160407D02*
X141362267Y-103303264D01*
X141362267Y-103303264D02*
X141409886Y-103398502D01*
X141409886Y-103398502D02*
X141457505Y-103446121D01*
X141457505Y-103446121D02*
X141552743Y-103493740D01*
X141552743Y-103493740D02*
X141933695Y-103493740D01*
X140981314Y-103922312D02*
X140838457Y-103969931D01*
X140838457Y-103969931D02*
X140600362Y-103969931D01*
X140600362Y-103969931D02*
X140505124Y-103922312D01*
X140505124Y-103922312D02*
X140457505Y-103874692D01*
X140457505Y-103874692D02*
X140409886Y-103779454D01*
X140409886Y-103779454D02*
X140409886Y-103684216D01*
X140409886Y-103684216D02*
X140457505Y-103588978D01*
X140457505Y-103588978D02*
X140505124Y-103541359D01*
X140505124Y-103541359D02*
X140600362Y-103493740D01*
X140600362Y-103493740D02*
X140790838Y-103446121D01*
X140790838Y-103446121D02*
X140886076Y-103398502D01*
X140886076Y-103398502D02*
X140933695Y-103350883D01*
X140933695Y-103350883D02*
X140981314Y-103255645D01*
X140981314Y-103255645D02*
X140981314Y-103160407D01*
X140981314Y-103160407D02*
X140933695Y-103065169D01*
X140933695Y-103065169D02*
X140886076Y-103017550D01*
X140886076Y-103017550D02*
X140790838Y-102969931D01*
X140790838Y-102969931D02*
X140552743Y-102969931D01*
X140552743Y-102969931D02*
X140409886Y-103017550D01*
X140028933Y-103065169D02*
X139981314Y-103017550D01*
X139981314Y-103017550D02*
X139886076Y-102969931D01*
X139886076Y-102969931D02*
X139647981Y-102969931D01*
X139647981Y-102969931D02*
X139552743Y-103017550D01*
X139552743Y-103017550D02*
X139505124Y-103065169D01*
X139505124Y-103065169D02*
X139457505Y-103160407D01*
X139457505Y-103160407D02*
X139457505Y-103255645D01*
X139457505Y-103255645D02*
X139505124Y-103398502D01*
X139505124Y-103398502D02*
X140076552Y-103969931D01*
X140076552Y-103969931D02*
X139457505Y-103969931D01*
X139124171Y-102969931D02*
X138505124Y-102969931D01*
X138505124Y-102969931D02*
X138838457Y-103350883D01*
X138838457Y-103350883D02*
X138695600Y-103350883D01*
X138695600Y-103350883D02*
X138600362Y-103398502D01*
X138600362Y-103398502D02*
X138552743Y-103446121D01*
X138552743Y-103446121D02*
X138505124Y-103541359D01*
X138505124Y-103541359D02*
X138505124Y-103779454D01*
X138505124Y-103779454D02*
X138552743Y-103874692D01*
X138552743Y-103874692D02*
X138600362Y-103922312D01*
X138600362Y-103922312D02*
X138695600Y-103969931D01*
X138695600Y-103969931D02*
X138981314Y-103969931D01*
X138981314Y-103969931D02*
X139076552Y-103922312D01*
X139076552Y-103922312D02*
X139124171Y-103874692D01*
X138124171Y-103065169D02*
X138076552Y-103017550D01*
X138076552Y-103017550D02*
X137981314Y-102969931D01*
X137981314Y-102969931D02*
X137743219Y-102969931D01*
X137743219Y-102969931D02*
X137647981Y-103017550D01*
X137647981Y-103017550D02*
X137600362Y-103065169D01*
X137600362Y-103065169D02*
X137552743Y-103160407D01*
X137552743Y-103160407D02*
X137552743Y-103255645D01*
X137552743Y-103255645D02*
X137600362Y-103398502D01*
X137600362Y-103398502D02*
X138171790Y-103969931D01*
X138171790Y-103969931D02*
X137552743Y-103969931D01*
X174457506Y-104579875D02*
X174457506Y-105294160D01*
X174457506Y-105294160D02*
X174505125Y-105437017D01*
X174505125Y-105437017D02*
X174600363Y-105532256D01*
X174600363Y-105532256D02*
X174743220Y-105579875D01*
X174743220Y-105579875D02*
X174838458Y-105579875D01*
X173981315Y-105579875D02*
X173981315Y-104579875D01*
X173981315Y-104579875D02*
X173600363Y-104579875D01*
X173600363Y-104579875D02*
X173505125Y-104627494D01*
X173505125Y-104627494D02*
X173457506Y-104675113D01*
X173457506Y-104675113D02*
X173409887Y-104770351D01*
X173409887Y-104770351D02*
X173409887Y-104913208D01*
X173409887Y-104913208D02*
X173457506Y-105008446D01*
X173457506Y-105008446D02*
X173505125Y-105056065D01*
X173505125Y-105056065D02*
X173600363Y-105103684D01*
X173600363Y-105103684D02*
X173981315Y-105103684D01*
X172552744Y-104579875D02*
X172743220Y-104579875D01*
X172743220Y-104579875D02*
X172838458Y-104627494D01*
X172838458Y-104627494D02*
X172886077Y-104675113D01*
X172886077Y-104675113D02*
X172981315Y-104817970D01*
X172981315Y-104817970D02*
X173028934Y-105008446D01*
X173028934Y-105008446D02*
X173028934Y-105389398D01*
X173028934Y-105389398D02*
X172981315Y-105484636D01*
X172981315Y-105484636D02*
X172933696Y-105532256D01*
X172933696Y-105532256D02*
X172838458Y-105579875D01*
X172838458Y-105579875D02*
X172647982Y-105579875D01*
X172647982Y-105579875D02*
X172552744Y-105532256D01*
X172552744Y-105532256D02*
X172505125Y-105484636D01*
X172505125Y-105484636D02*
X172457506Y-105389398D01*
X172457506Y-105389398D02*
X172457506Y-105151303D01*
X172457506Y-105151303D02*
X172505125Y-105056065D01*
X172505125Y-105056065D02*
X172552744Y-105008446D01*
X172552744Y-105008446D02*
X172647982Y-104960827D01*
X172647982Y-104960827D02*
X172838458Y-104960827D01*
X172838458Y-104960827D02*
X172933696Y-105008446D01*
X172933696Y-105008446D02*
X172981315Y-105056065D01*
X172981315Y-105056065D02*
X173028934Y-105151303D01*
X171267029Y-105198922D02*
X170505125Y-105198922D01*
X169267029Y-105579875D02*
X169267029Y-104579875D01*
X169267029Y-105056065D02*
X168695601Y-105056065D01*
X168695601Y-105579875D02*
X168695601Y-104579875D01*
X168267029Y-105294160D02*
X167790839Y-105294160D01*
X168362267Y-105579875D02*
X168028934Y-104579875D01*
X168028934Y-104579875D02*
X167695601Y-105579875D01*
X167028934Y-105056065D02*
X166886077Y-105103684D01*
X166886077Y-105103684D02*
X166838458Y-105151303D01*
X166838458Y-105151303D02*
X166790839Y-105246541D01*
X166790839Y-105246541D02*
X166790839Y-105389398D01*
X166790839Y-105389398D02*
X166838458Y-105484636D01*
X166838458Y-105484636D02*
X166886077Y-105532256D01*
X166886077Y-105532256D02*
X166981315Y-105579875D01*
X166981315Y-105579875D02*
X167362267Y-105579875D01*
X167362267Y-105579875D02*
X167362267Y-104579875D01*
X167362267Y-104579875D02*
X167028934Y-104579875D01*
X167028934Y-104579875D02*
X166933696Y-104627494D01*
X166933696Y-104627494D02*
X166886077Y-104675113D01*
X166886077Y-104675113D02*
X166838458Y-104770351D01*
X166838458Y-104770351D02*
X166838458Y-104865589D01*
X166838458Y-104865589D02*
X166886077Y-104960827D01*
X166886077Y-104960827D02*
X166933696Y-105008446D01*
X166933696Y-105008446D02*
X167028934Y-105056065D01*
X167028934Y-105056065D02*
X167362267Y-105056065D01*
X166362267Y-105579875D02*
X166362267Y-104579875D01*
X165409887Y-105579875D02*
X165886077Y-105579875D01*
X165886077Y-105579875D02*
X165886077Y-104579875D01*
X165076553Y-105579875D02*
X165076553Y-104579875D01*
X164743220Y-104579875D02*
X164171792Y-104579875D01*
X164457506Y-105579875D02*
X164457506Y-104579875D01*
X163886077Y-105294160D02*
X163409887Y-105294160D01*
X163981315Y-105579875D02*
X163647982Y-104579875D01*
X163647982Y-104579875D02*
X163314649Y-105579875D01*
X162267030Y-104532256D02*
X163124172Y-105817970D01*
X161933696Y-105579875D02*
X161933696Y-104579875D01*
X161933696Y-104579875D02*
X161695601Y-104579875D01*
X161695601Y-104579875D02*
X161552744Y-104627494D01*
X161552744Y-104627494D02*
X161457506Y-104722732D01*
X161457506Y-104722732D02*
X161409887Y-104817970D01*
X161409887Y-104817970D02*
X161362268Y-105008446D01*
X161362268Y-105008446D02*
X161362268Y-105151303D01*
X161362268Y-105151303D02*
X161409887Y-105341779D01*
X161409887Y-105341779D02*
X161457506Y-105437017D01*
X161457506Y-105437017D02*
X161552744Y-105532256D01*
X161552744Y-105532256D02*
X161695601Y-105579875D01*
X161695601Y-105579875D02*
X161933696Y-105579875D01*
X160933696Y-105056065D02*
X160600363Y-105056065D01*
X160457506Y-105579875D02*
X160933696Y-105579875D01*
X160933696Y-105579875D02*
X160933696Y-104579875D01*
X160933696Y-104579875D02*
X160457506Y-104579875D01*
X160076553Y-105532256D02*
X159933696Y-105579875D01*
X159933696Y-105579875D02*
X159695601Y-105579875D01*
X159695601Y-105579875D02*
X159600363Y-105532256D01*
X159600363Y-105532256D02*
X159552744Y-105484636D01*
X159552744Y-105484636D02*
X159505125Y-105389398D01*
X159505125Y-105389398D02*
X159505125Y-105294160D01*
X159505125Y-105294160D02*
X159552744Y-105198922D01*
X159552744Y-105198922D02*
X159600363Y-105151303D01*
X159600363Y-105151303D02*
X159695601Y-105103684D01*
X159695601Y-105103684D02*
X159886077Y-105056065D01*
X159886077Y-105056065D02*
X159981315Y-105008446D01*
X159981315Y-105008446D02*
X160028934Y-104960827D01*
X160028934Y-104960827D02*
X160076553Y-104865589D01*
X160076553Y-104865589D02*
X160076553Y-104770351D01*
X160076553Y-104770351D02*
X160028934Y-104675113D01*
X160028934Y-104675113D02*
X159981315Y-104627494D01*
X159981315Y-104627494D02*
X159886077Y-104579875D01*
X159886077Y-104579875D02*
X159647982Y-104579875D01*
X159647982Y-104579875D02*
X159505125Y-104627494D01*
X159124172Y-105294160D02*
X158647982Y-105294160D01*
X159219410Y-105579875D02*
X158886077Y-104579875D01*
X158886077Y-104579875D02*
X158552744Y-105579875D01*
X157886077Y-105056065D02*
X157743220Y-105103684D01*
X157743220Y-105103684D02*
X157695601Y-105151303D01*
X157695601Y-105151303D02*
X157647982Y-105246541D01*
X157647982Y-105246541D02*
X157647982Y-105389398D01*
X157647982Y-105389398D02*
X157695601Y-105484636D01*
X157695601Y-105484636D02*
X157743220Y-105532256D01*
X157743220Y-105532256D02*
X157838458Y-105579875D01*
X157838458Y-105579875D02*
X158219410Y-105579875D01*
X158219410Y-105579875D02*
X158219410Y-104579875D01*
X158219410Y-104579875D02*
X157886077Y-104579875D01*
X157886077Y-104579875D02*
X157790839Y-104627494D01*
X157790839Y-104627494D02*
X157743220Y-104675113D01*
X157743220Y-104675113D02*
X157695601Y-104770351D01*
X157695601Y-104770351D02*
X157695601Y-104865589D01*
X157695601Y-104865589D02*
X157743220Y-104960827D01*
X157743220Y-104960827D02*
X157790839Y-105008446D01*
X157790839Y-105008446D02*
X157886077Y-105056065D01*
X157886077Y-105056065D02*
X158219410Y-105056065D01*
X157219410Y-105579875D02*
X157219410Y-104579875D01*
X156267030Y-105579875D02*
X156743220Y-105579875D01*
X156743220Y-105579875D02*
X156743220Y-104579875D01*
X155933696Y-105579875D02*
X155933696Y-104579875D01*
X155600363Y-104579875D02*
X155028935Y-104579875D01*
X155314649Y-105579875D02*
X155314649Y-104579875D01*
X154743220Y-105294160D02*
X154267030Y-105294160D01*
X154838458Y-105579875D02*
X154505125Y-104579875D01*
X154505125Y-104579875D02*
X154171792Y-105579875D01*
X153124172Y-105294160D02*
X152647982Y-105294160D01*
X153219410Y-105579875D02*
X152886077Y-104579875D01*
X152886077Y-104579875D02*
X152552744Y-105579875D01*
X151505124Y-105294160D02*
X151028934Y-105294160D01*
X151600362Y-105579875D02*
X151267029Y-104579875D01*
X151267029Y-104579875D02*
X150933696Y-105579875D01*
X150124172Y-105579875D02*
X150600362Y-105579875D01*
X150600362Y-105579875D02*
X150600362Y-104579875D01*
X149790838Y-105579875D02*
X149790838Y-104579875D01*
X149314648Y-105579875D02*
X149314648Y-104579875D01*
X149314648Y-104579875D02*
X148981315Y-105294160D01*
X148981315Y-105294160D02*
X148647982Y-104579875D01*
X148647982Y-104579875D02*
X148647982Y-105579875D01*
X148171791Y-105056065D02*
X147838458Y-105056065D01*
X147695601Y-105579875D02*
X148171791Y-105579875D01*
X148171791Y-105579875D02*
X148171791Y-104579875D01*
X148171791Y-104579875D02*
X147695601Y-104579875D01*
X147267029Y-105579875D02*
X147267029Y-104579875D01*
X147267029Y-104579875D02*
X146695601Y-105579875D01*
X146695601Y-105579875D02*
X146695601Y-104579875D01*
X146362267Y-104579875D02*
X145790839Y-104579875D01*
X146076553Y-105579875D02*
X146076553Y-104579875D01*
X145505124Y-105294160D02*
X145028934Y-105294160D01*
X145600362Y-105579875D02*
X145267029Y-104579875D01*
X145267029Y-104579875D02*
X144933696Y-105579875D01*
X144028934Y-105484636D02*
X144076553Y-105532256D01*
X144076553Y-105532256D02*
X144219410Y-105579875D01*
X144219410Y-105579875D02*
X144314648Y-105579875D01*
X144314648Y-105579875D02*
X144457505Y-105532256D01*
X144457505Y-105532256D02*
X144552743Y-105437017D01*
X144552743Y-105437017D02*
X144600362Y-105341779D01*
X144600362Y-105341779D02*
X144647981Y-105151303D01*
X144647981Y-105151303D02*
X144647981Y-105008446D01*
X144647981Y-105008446D02*
X144600362Y-104817970D01*
X144600362Y-104817970D02*
X144552743Y-104722732D01*
X144552743Y-104722732D02*
X144457505Y-104627494D01*
X144457505Y-104627494D02*
X144314648Y-104579875D01*
X144314648Y-104579875D02*
X144219410Y-104579875D01*
X144219410Y-104579875D02*
X144076553Y-104627494D01*
X144076553Y-104627494D02*
X144028934Y-104675113D01*
X144267029Y-105627494D02*
X144171791Y-105675113D01*
X144171791Y-105675113D02*
X144124172Y-105770351D01*
X144124172Y-105770351D02*
X144171791Y-105865589D01*
X144171791Y-105865589D02*
X144267029Y-105913208D01*
X144267029Y-105913208D02*
X144409886Y-105913208D01*
X143647981Y-105294160D02*
X143171791Y-105294160D01*
X143743219Y-105579875D02*
X143409886Y-104579875D01*
X143409886Y-104579875D02*
X143076553Y-105579875D01*
X143647981Y-104341779D02*
X143600362Y-104294160D01*
X143600362Y-104294160D02*
X143505124Y-104246541D01*
X143505124Y-104246541D02*
X143314648Y-104341779D01*
X143314648Y-104341779D02*
X143219410Y-104294160D01*
X143219410Y-104294160D02*
X143171791Y-104246541D01*
X142552743Y-104579875D02*
X142362267Y-104579875D01*
X142362267Y-104579875D02*
X142267029Y-104627494D01*
X142267029Y-104627494D02*
X142171791Y-104722732D01*
X142171791Y-104722732D02*
X142124172Y-104913208D01*
X142124172Y-104913208D02*
X142124172Y-105246541D01*
X142124172Y-105246541D02*
X142171791Y-105437017D01*
X142171791Y-105437017D02*
X142267029Y-105532256D01*
X142267029Y-105532256D02*
X142362267Y-105579875D01*
X142362267Y-105579875D02*
X142552743Y-105579875D01*
X142552743Y-105579875D02*
X142647981Y-105532256D01*
X142647981Y-105532256D02*
X142743219Y-105437017D01*
X142743219Y-105437017D02*
X142790838Y-105246541D01*
X142790838Y-105246541D02*
X142790838Y-104913208D01*
X142790838Y-104913208D02*
X142743219Y-104722732D01*
X142743219Y-104722732D02*
X142647981Y-104627494D01*
X142647981Y-104627494D02*
X142552743Y-104579875D01*
X141076552Y-104579875D02*
X140743219Y-105579875D01*
X140743219Y-105579875D02*
X140409886Y-104579875D01*
X140076552Y-105579875D02*
X140076552Y-104579875D01*
X139647981Y-105294160D02*
X139171791Y-105294160D01*
X139743219Y-105579875D02*
X139409886Y-104579875D01*
X139409886Y-104579875D02*
X139076553Y-105579875D01*
X137981314Y-104579875D02*
X137981314Y-105389398D01*
X137981314Y-105389398D02*
X137933695Y-105484636D01*
X137933695Y-105484636D02*
X137886076Y-105532256D01*
X137886076Y-105532256D02*
X137790838Y-105579875D01*
X137790838Y-105579875D02*
X137600362Y-105579875D01*
X137600362Y-105579875D02*
X137505124Y-105532256D01*
X137505124Y-105532256D02*
X137457505Y-105484636D01*
X137457505Y-105484636D02*
X137409886Y-105389398D01*
X137409886Y-105389398D02*
X137409886Y-104579875D01*
X136981314Y-105532256D02*
X136838457Y-105579875D01*
X136838457Y-105579875D02*
X136600362Y-105579875D01*
X136600362Y-105579875D02*
X136505124Y-105532256D01*
X136505124Y-105532256D02*
X136457505Y-105484636D01*
X136457505Y-105484636D02*
X136409886Y-105389398D01*
X136409886Y-105389398D02*
X136409886Y-105294160D01*
X136409886Y-105294160D02*
X136457505Y-105198922D01*
X136457505Y-105198922D02*
X136505124Y-105151303D01*
X136505124Y-105151303D02*
X136600362Y-105103684D01*
X136600362Y-105103684D02*
X136790838Y-105056065D01*
X136790838Y-105056065D02*
X136886076Y-105008446D01*
X136886076Y-105008446D02*
X136933695Y-104960827D01*
X136933695Y-104960827D02*
X136981314Y-104865589D01*
X136981314Y-104865589D02*
X136981314Y-104770351D01*
X136981314Y-104770351D02*
X136933695Y-104675113D01*
X136933695Y-104675113D02*
X136886076Y-104627494D01*
X136886076Y-104627494D02*
X136790838Y-104579875D01*
X136790838Y-104579875D02*
X136552743Y-104579875D01*
X136552743Y-104579875D02*
X136409886Y-104627494D01*
X135647981Y-105056065D02*
X135505124Y-105103684D01*
X135505124Y-105103684D02*
X135457505Y-105151303D01*
X135457505Y-105151303D02*
X135409886Y-105246541D01*
X135409886Y-105246541D02*
X135409886Y-105389398D01*
X135409886Y-105389398D02*
X135457505Y-105484636D01*
X135457505Y-105484636D02*
X135505124Y-105532256D01*
X135505124Y-105532256D02*
X135600362Y-105579875D01*
X135600362Y-105579875D02*
X135981314Y-105579875D01*
X135981314Y-105579875D02*
X135981314Y-104579875D01*
X135981314Y-104579875D02*
X135647981Y-104579875D01*
X135647981Y-104579875D02*
X135552743Y-104627494D01*
X135552743Y-104627494D02*
X135505124Y-104675113D01*
X135505124Y-104675113D02*
X135457505Y-104770351D01*
X135457505Y-104770351D02*
X135457505Y-104865589D01*
X135457505Y-104865589D02*
X135505124Y-104960827D01*
X135505124Y-104960827D02*
X135552743Y-105008446D01*
X135552743Y-105008446D02*
X135647981Y-105056065D01*
X135647981Y-105056065D02*
X135981314Y-105056065D01*
X174457506Y-106189819D02*
X174457506Y-106904104D01*
X174457506Y-106904104D02*
X174505125Y-107046961D01*
X174505125Y-107046961D02*
X174600363Y-107142200D01*
X174600363Y-107142200D02*
X174743220Y-107189819D01*
X174743220Y-107189819D02*
X174838458Y-107189819D01*
X173981315Y-107189819D02*
X173981315Y-106189819D01*
X173981315Y-106189819D02*
X173600363Y-106189819D01*
X173600363Y-106189819D02*
X173505125Y-106237438D01*
X173505125Y-106237438D02*
X173457506Y-106285057D01*
X173457506Y-106285057D02*
X173409887Y-106380295D01*
X173409887Y-106380295D02*
X173409887Y-106523152D01*
X173409887Y-106523152D02*
X173457506Y-106618390D01*
X173457506Y-106618390D02*
X173505125Y-106666009D01*
X173505125Y-106666009D02*
X173600363Y-106713628D01*
X173600363Y-106713628D02*
X173981315Y-106713628D01*
X173076553Y-106189819D02*
X172409887Y-106189819D01*
X172409887Y-106189819D02*
X172838458Y-107189819D01*
X171267029Y-106808866D02*
X170505125Y-106808866D01*
X169267029Y-107189819D02*
X169267029Y-106189819D01*
X169267029Y-106666009D02*
X168695601Y-106666009D01*
X168695601Y-107189819D02*
X168695601Y-106189819D01*
X168267029Y-106904104D02*
X167790839Y-106904104D01*
X168362267Y-107189819D02*
X168028934Y-106189819D01*
X168028934Y-106189819D02*
X167695601Y-107189819D01*
X167028934Y-106666009D02*
X166886077Y-106713628D01*
X166886077Y-106713628D02*
X166838458Y-106761247D01*
X166838458Y-106761247D02*
X166790839Y-106856485D01*
X166790839Y-106856485D02*
X166790839Y-106999342D01*
X166790839Y-106999342D02*
X166838458Y-107094580D01*
X166838458Y-107094580D02*
X166886077Y-107142200D01*
X166886077Y-107142200D02*
X166981315Y-107189819D01*
X166981315Y-107189819D02*
X167362267Y-107189819D01*
X167362267Y-107189819D02*
X167362267Y-106189819D01*
X167362267Y-106189819D02*
X167028934Y-106189819D01*
X167028934Y-106189819D02*
X166933696Y-106237438D01*
X166933696Y-106237438D02*
X166886077Y-106285057D01*
X166886077Y-106285057D02*
X166838458Y-106380295D01*
X166838458Y-106380295D02*
X166838458Y-106475533D01*
X166838458Y-106475533D02*
X166886077Y-106570771D01*
X166886077Y-106570771D02*
X166933696Y-106618390D01*
X166933696Y-106618390D02*
X167028934Y-106666009D01*
X167028934Y-106666009D02*
X167362267Y-106666009D01*
X166362267Y-107189819D02*
X166362267Y-106189819D01*
X165409887Y-107189819D02*
X165886077Y-107189819D01*
X165886077Y-107189819D02*
X165886077Y-106189819D01*
X165076553Y-107189819D02*
X165076553Y-106189819D01*
X164743220Y-106189819D02*
X164171792Y-106189819D01*
X164457506Y-107189819D02*
X164457506Y-106189819D01*
X163886077Y-106904104D02*
X163409887Y-106904104D01*
X163981315Y-107189819D02*
X163647982Y-106189819D01*
X163647982Y-106189819D02*
X163314649Y-107189819D01*
X162267030Y-106142200D02*
X163124172Y-107427914D01*
X161933696Y-107189819D02*
X161933696Y-106189819D01*
X161933696Y-106189819D02*
X161695601Y-106189819D01*
X161695601Y-106189819D02*
X161552744Y-106237438D01*
X161552744Y-106237438D02*
X161457506Y-106332676D01*
X161457506Y-106332676D02*
X161409887Y-106427914D01*
X161409887Y-106427914D02*
X161362268Y-106618390D01*
X161362268Y-106618390D02*
X161362268Y-106761247D01*
X161362268Y-106761247D02*
X161409887Y-106951723D01*
X161409887Y-106951723D02*
X161457506Y-107046961D01*
X161457506Y-107046961D02*
X161552744Y-107142200D01*
X161552744Y-107142200D02*
X161695601Y-107189819D01*
X161695601Y-107189819D02*
X161933696Y-107189819D01*
X160933696Y-106666009D02*
X160600363Y-106666009D01*
X160457506Y-107189819D02*
X160933696Y-107189819D01*
X160933696Y-107189819D02*
X160933696Y-106189819D01*
X160933696Y-106189819D02*
X160457506Y-106189819D01*
X160076553Y-107142200D02*
X159933696Y-107189819D01*
X159933696Y-107189819D02*
X159695601Y-107189819D01*
X159695601Y-107189819D02*
X159600363Y-107142200D01*
X159600363Y-107142200D02*
X159552744Y-107094580D01*
X159552744Y-107094580D02*
X159505125Y-106999342D01*
X159505125Y-106999342D02*
X159505125Y-106904104D01*
X159505125Y-106904104D02*
X159552744Y-106808866D01*
X159552744Y-106808866D02*
X159600363Y-106761247D01*
X159600363Y-106761247D02*
X159695601Y-106713628D01*
X159695601Y-106713628D02*
X159886077Y-106666009D01*
X159886077Y-106666009D02*
X159981315Y-106618390D01*
X159981315Y-106618390D02*
X160028934Y-106570771D01*
X160028934Y-106570771D02*
X160076553Y-106475533D01*
X160076553Y-106475533D02*
X160076553Y-106380295D01*
X160076553Y-106380295D02*
X160028934Y-106285057D01*
X160028934Y-106285057D02*
X159981315Y-106237438D01*
X159981315Y-106237438D02*
X159886077Y-106189819D01*
X159886077Y-106189819D02*
X159647982Y-106189819D01*
X159647982Y-106189819D02*
X159505125Y-106237438D01*
X159124172Y-106904104D02*
X158647982Y-106904104D01*
X159219410Y-107189819D02*
X158886077Y-106189819D01*
X158886077Y-106189819D02*
X158552744Y-107189819D01*
X157886077Y-106666009D02*
X157743220Y-106713628D01*
X157743220Y-106713628D02*
X157695601Y-106761247D01*
X157695601Y-106761247D02*
X157647982Y-106856485D01*
X157647982Y-106856485D02*
X157647982Y-106999342D01*
X157647982Y-106999342D02*
X157695601Y-107094580D01*
X157695601Y-107094580D02*
X157743220Y-107142200D01*
X157743220Y-107142200D02*
X157838458Y-107189819D01*
X157838458Y-107189819D02*
X158219410Y-107189819D01*
X158219410Y-107189819D02*
X158219410Y-106189819D01*
X158219410Y-106189819D02*
X157886077Y-106189819D01*
X157886077Y-106189819D02*
X157790839Y-106237438D01*
X157790839Y-106237438D02*
X157743220Y-106285057D01*
X157743220Y-106285057D02*
X157695601Y-106380295D01*
X157695601Y-106380295D02*
X157695601Y-106475533D01*
X157695601Y-106475533D02*
X157743220Y-106570771D01*
X157743220Y-106570771D02*
X157790839Y-106618390D01*
X157790839Y-106618390D02*
X157886077Y-106666009D01*
X157886077Y-106666009D02*
X158219410Y-106666009D01*
X157219410Y-107189819D02*
X157219410Y-106189819D01*
X156267030Y-107189819D02*
X156743220Y-107189819D01*
X156743220Y-107189819D02*
X156743220Y-106189819D01*
X155933696Y-107189819D02*
X155933696Y-106189819D01*
X155600363Y-106189819D02*
X155028935Y-106189819D01*
X155314649Y-107189819D02*
X155314649Y-106189819D01*
X154743220Y-106904104D02*
X154267030Y-106904104D01*
X154838458Y-107189819D02*
X154505125Y-106189819D01*
X154505125Y-106189819D02*
X154171792Y-107189819D01*
X152886077Y-106189819D02*
X152695601Y-106189819D01*
X152695601Y-106189819D02*
X152600363Y-106237438D01*
X152600363Y-106237438D02*
X152505125Y-106332676D01*
X152505125Y-106332676D02*
X152457506Y-106523152D01*
X152457506Y-106523152D02*
X152457506Y-106856485D01*
X152457506Y-106856485D02*
X152505125Y-107046961D01*
X152505125Y-107046961D02*
X152600363Y-107142200D01*
X152600363Y-107142200D02*
X152695601Y-107189819D01*
X152695601Y-107189819D02*
X152886077Y-107189819D01*
X152886077Y-107189819D02*
X152981315Y-107142200D01*
X152981315Y-107142200D02*
X153076553Y-107046961D01*
X153076553Y-107046961D02*
X153124172Y-106856485D01*
X153124172Y-106856485D02*
X153124172Y-106523152D01*
X153124172Y-106523152D02*
X153076553Y-106332676D01*
X153076553Y-106332676D02*
X152981315Y-106237438D01*
X152981315Y-106237438D02*
X152886077Y-106189819D01*
X151267029Y-107189819D02*
X151267029Y-106189819D01*
X151267029Y-106189819D02*
X151028934Y-106189819D01*
X151028934Y-106189819D02*
X150886077Y-106237438D01*
X150886077Y-106237438D02*
X150790839Y-106332676D01*
X150790839Y-106332676D02*
X150743220Y-106427914D01*
X150743220Y-106427914D02*
X150695601Y-106618390D01*
X150695601Y-106618390D02*
X150695601Y-106761247D01*
X150695601Y-106761247D02*
X150743220Y-106951723D01*
X150743220Y-106951723D02*
X150790839Y-107046961D01*
X150790839Y-107046961D02*
X150886077Y-107142200D01*
X150886077Y-107142200D02*
X151028934Y-107189819D01*
X151028934Y-107189819D02*
X151267029Y-107189819D01*
X150409886Y-106189819D02*
X149838458Y-106189819D01*
X150124172Y-107189819D02*
X150124172Y-106189819D01*
X148933696Y-107189819D02*
X149267029Y-106713628D01*
X149505124Y-107189819D02*
X149505124Y-106189819D01*
X149505124Y-106189819D02*
X149124172Y-106189819D01*
X149124172Y-106189819D02*
X149028934Y-106237438D01*
X149028934Y-106237438D02*
X148981315Y-106285057D01*
X148981315Y-106285057D02*
X148933696Y-106380295D01*
X148933696Y-106380295D02*
X148933696Y-106523152D01*
X148933696Y-106523152D02*
X148981315Y-106618390D01*
X148981315Y-106618390D02*
X149028934Y-106666009D01*
X149028934Y-106666009D02*
X149124172Y-106713628D01*
X149124172Y-106713628D02*
X149505124Y-106713628D01*
X151405125Y-105912200D02*
X148843220Y-105912200D01*
X147743219Y-107189819D02*
X147743219Y-106189819D01*
X147743219Y-106189819D02*
X147362267Y-106189819D01*
X147362267Y-106189819D02*
X147267029Y-106237438D01*
X147267029Y-106237438D02*
X147219410Y-106285057D01*
X147219410Y-106285057D02*
X147171791Y-106380295D01*
X147171791Y-106380295D02*
X147171791Y-106523152D01*
X147171791Y-106523152D02*
X147219410Y-106618390D01*
X147219410Y-106618390D02*
X147267029Y-106666009D01*
X147267029Y-106666009D02*
X147362267Y-106713628D01*
X147362267Y-106713628D02*
X147743219Y-106713628D01*
X146790838Y-106904104D02*
X146314648Y-106904104D01*
X146886076Y-107189819D02*
X146552743Y-106189819D01*
X146552743Y-106189819D02*
X146219410Y-107189819D01*
X145314648Y-107189819D02*
X145647981Y-106713628D01*
X145886076Y-107189819D02*
X145886076Y-106189819D01*
X145886076Y-106189819D02*
X145505124Y-106189819D01*
X145505124Y-106189819D02*
X145409886Y-106237438D01*
X145409886Y-106237438D02*
X145362267Y-106285057D01*
X145362267Y-106285057D02*
X145314648Y-106380295D01*
X145314648Y-106380295D02*
X145314648Y-106523152D01*
X145314648Y-106523152D02*
X145362267Y-106618390D01*
X145362267Y-106618390D02*
X145409886Y-106666009D01*
X145409886Y-106666009D02*
X145505124Y-106713628D01*
X145505124Y-106713628D02*
X145886076Y-106713628D01*
X144933695Y-106904104D02*
X144457505Y-106904104D01*
X145028933Y-107189819D02*
X144695600Y-106189819D01*
X144695600Y-106189819D02*
X144362267Y-107189819D01*
X143076552Y-106189819D02*
X142886076Y-106189819D01*
X142886076Y-106189819D02*
X142790838Y-106237438D01*
X142790838Y-106237438D02*
X142695600Y-106332676D01*
X142695600Y-106332676D02*
X142647981Y-106523152D01*
X142647981Y-106523152D02*
X142647981Y-106856485D01*
X142647981Y-106856485D02*
X142695600Y-107046961D01*
X142695600Y-107046961D02*
X142790838Y-107142200D01*
X142790838Y-107142200D02*
X142886076Y-107189819D01*
X142886076Y-107189819D02*
X143076552Y-107189819D01*
X143076552Y-107189819D02*
X143171790Y-107142200D01*
X143171790Y-107142200D02*
X143267028Y-107046961D01*
X143267028Y-107046961D02*
X143314647Y-106856485D01*
X143314647Y-106856485D02*
X143314647Y-106523152D01*
X143314647Y-106523152D02*
X143267028Y-106332676D01*
X143267028Y-106332676D02*
X143171790Y-106237438D01*
X143171790Y-106237438D02*
X143076552Y-106189819D01*
X141457504Y-107189819D02*
X141457504Y-106189819D01*
X141457504Y-106189819D02*
X141124171Y-106904104D01*
X141124171Y-106904104D02*
X140790838Y-106189819D01*
X140790838Y-106189819D02*
X140790838Y-107189819D01*
X139743219Y-107094580D02*
X139790838Y-107142200D01*
X139790838Y-107142200D02*
X139933695Y-107189819D01*
X139933695Y-107189819D02*
X140028933Y-107189819D01*
X140028933Y-107189819D02*
X140171790Y-107142200D01*
X140171790Y-107142200D02*
X140267028Y-107046961D01*
X140267028Y-107046961D02*
X140314647Y-106951723D01*
X140314647Y-106951723D02*
X140362266Y-106761247D01*
X140362266Y-106761247D02*
X140362266Y-106618390D01*
X140362266Y-106618390D02*
X140314647Y-106427914D01*
X140314647Y-106427914D02*
X140267028Y-106332676D01*
X140267028Y-106332676D02*
X140171790Y-106237438D01*
X140171790Y-106237438D02*
X140028933Y-106189819D01*
X140028933Y-106189819D02*
X139933695Y-106189819D01*
X139933695Y-106189819D02*
X139790838Y-106237438D01*
X139790838Y-106237438D02*
X139743219Y-106285057D01*
X138838457Y-107189819D02*
X139314647Y-107189819D01*
X139314647Y-107189819D02*
X139314647Y-106189819D01*
X137933695Y-107189819D02*
X138267028Y-106713628D01*
X138505123Y-107189819D02*
X138505123Y-106189819D01*
X138505123Y-106189819D02*
X138124171Y-106189819D01*
X138124171Y-106189819D02*
X138028933Y-106237438D01*
X138028933Y-106237438D02*
X137981314Y-106285057D01*
X137981314Y-106285057D02*
X137933695Y-106380295D01*
X137933695Y-106380295D02*
X137933695Y-106523152D01*
X137933695Y-106523152D02*
X137981314Y-106618390D01*
X137981314Y-106618390D02*
X138028933Y-106666009D01*
X138028933Y-106666009D02*
X138124171Y-106713628D01*
X138124171Y-106713628D02*
X138505123Y-106713628D01*
X141595600Y-105912200D02*
X137843219Y-105912200D01*
X193097506Y-68219987D02*
X193097506Y-68934272D01*
X193097506Y-68934272D02*
X193145125Y-69077129D01*
X193145125Y-69077129D02*
X193240363Y-69172368D01*
X193240363Y-69172368D02*
X193383220Y-69219987D01*
X193383220Y-69219987D02*
X193478458Y-69219987D01*
X192621315Y-69219987D02*
X192621315Y-68219987D01*
X192621315Y-68219987D02*
X192240363Y-68219987D01*
X192240363Y-68219987D02*
X192145125Y-68267606D01*
X192145125Y-68267606D02*
X192097506Y-68315225D01*
X192097506Y-68315225D02*
X192049887Y-68410463D01*
X192049887Y-68410463D02*
X192049887Y-68553320D01*
X192049887Y-68553320D02*
X192097506Y-68648558D01*
X192097506Y-68648558D02*
X192145125Y-68696177D01*
X192145125Y-68696177D02*
X192240363Y-68743796D01*
X192240363Y-68743796D02*
X192621315Y-68743796D01*
X191097506Y-69219987D02*
X191668934Y-69219987D01*
X191383220Y-69219987D02*
X191383220Y-68219987D01*
X191383220Y-68219987D02*
X191478458Y-68362844D01*
X191478458Y-68362844D02*
X191573696Y-68458082D01*
X191573696Y-68458082D02*
X191668934Y-68505701D01*
X189907029Y-68839034D02*
X189145125Y-68839034D01*
X187907029Y-69219987D02*
X187907029Y-68219987D01*
X187907029Y-68696177D02*
X187335601Y-68696177D01*
X187335601Y-69219987D02*
X187335601Y-68219987D01*
X186907029Y-68934272D02*
X186430839Y-68934272D01*
X187002267Y-69219987D02*
X186668934Y-68219987D01*
X186668934Y-68219987D02*
X186335601Y-69219987D01*
X185668934Y-68696177D02*
X185526077Y-68743796D01*
X185526077Y-68743796D02*
X185478458Y-68791415D01*
X185478458Y-68791415D02*
X185430839Y-68886653D01*
X185430839Y-68886653D02*
X185430839Y-69029510D01*
X185430839Y-69029510D02*
X185478458Y-69124748D01*
X185478458Y-69124748D02*
X185526077Y-69172368D01*
X185526077Y-69172368D02*
X185621315Y-69219987D01*
X185621315Y-69219987D02*
X186002267Y-69219987D01*
X186002267Y-69219987D02*
X186002267Y-68219987D01*
X186002267Y-68219987D02*
X185668934Y-68219987D01*
X185668934Y-68219987D02*
X185573696Y-68267606D01*
X185573696Y-68267606D02*
X185526077Y-68315225D01*
X185526077Y-68315225D02*
X185478458Y-68410463D01*
X185478458Y-68410463D02*
X185478458Y-68505701D01*
X185478458Y-68505701D02*
X185526077Y-68600939D01*
X185526077Y-68600939D02*
X185573696Y-68648558D01*
X185573696Y-68648558D02*
X185668934Y-68696177D01*
X185668934Y-68696177D02*
X186002267Y-68696177D01*
X185002267Y-69219987D02*
X185002267Y-68219987D01*
X184049887Y-69219987D02*
X184526077Y-69219987D01*
X184526077Y-69219987D02*
X184526077Y-68219987D01*
X183716553Y-69219987D02*
X183716553Y-68219987D01*
X183383220Y-68219987D02*
X182811792Y-68219987D01*
X183097506Y-69219987D02*
X183097506Y-68219987D01*
X182526077Y-68934272D02*
X182049887Y-68934272D01*
X182621315Y-69219987D02*
X182287982Y-68219987D01*
X182287982Y-68219987D02*
X181954649Y-69219987D01*
X180907030Y-68172368D02*
X181764172Y-69458082D01*
X180573696Y-69219987D02*
X180573696Y-68219987D01*
X180573696Y-68219987D02*
X180335601Y-68219987D01*
X180335601Y-68219987D02*
X180192744Y-68267606D01*
X180192744Y-68267606D02*
X180097506Y-68362844D01*
X180097506Y-68362844D02*
X180049887Y-68458082D01*
X180049887Y-68458082D02*
X180002268Y-68648558D01*
X180002268Y-68648558D02*
X180002268Y-68791415D01*
X180002268Y-68791415D02*
X180049887Y-68981891D01*
X180049887Y-68981891D02*
X180097506Y-69077129D01*
X180097506Y-69077129D02*
X180192744Y-69172368D01*
X180192744Y-69172368D02*
X180335601Y-69219987D01*
X180335601Y-69219987D02*
X180573696Y-69219987D01*
X179573696Y-68696177D02*
X179240363Y-68696177D01*
X179097506Y-69219987D02*
X179573696Y-69219987D01*
X179573696Y-69219987D02*
X179573696Y-68219987D01*
X179573696Y-68219987D02*
X179097506Y-68219987D01*
X178716553Y-69172368D02*
X178573696Y-69219987D01*
X178573696Y-69219987D02*
X178335601Y-69219987D01*
X178335601Y-69219987D02*
X178240363Y-69172368D01*
X178240363Y-69172368D02*
X178192744Y-69124748D01*
X178192744Y-69124748D02*
X178145125Y-69029510D01*
X178145125Y-69029510D02*
X178145125Y-68934272D01*
X178145125Y-68934272D02*
X178192744Y-68839034D01*
X178192744Y-68839034D02*
X178240363Y-68791415D01*
X178240363Y-68791415D02*
X178335601Y-68743796D01*
X178335601Y-68743796D02*
X178526077Y-68696177D01*
X178526077Y-68696177D02*
X178621315Y-68648558D01*
X178621315Y-68648558D02*
X178668934Y-68600939D01*
X178668934Y-68600939D02*
X178716553Y-68505701D01*
X178716553Y-68505701D02*
X178716553Y-68410463D01*
X178716553Y-68410463D02*
X178668934Y-68315225D01*
X178668934Y-68315225D02*
X178621315Y-68267606D01*
X178621315Y-68267606D02*
X178526077Y-68219987D01*
X178526077Y-68219987D02*
X178287982Y-68219987D01*
X178287982Y-68219987D02*
X178145125Y-68267606D01*
X177764172Y-68934272D02*
X177287982Y-68934272D01*
X177859410Y-69219987D02*
X177526077Y-68219987D01*
X177526077Y-68219987D02*
X177192744Y-69219987D01*
X176526077Y-68696177D02*
X176383220Y-68743796D01*
X176383220Y-68743796D02*
X176335601Y-68791415D01*
X176335601Y-68791415D02*
X176287982Y-68886653D01*
X176287982Y-68886653D02*
X176287982Y-69029510D01*
X176287982Y-69029510D02*
X176335601Y-69124748D01*
X176335601Y-69124748D02*
X176383220Y-69172368D01*
X176383220Y-69172368D02*
X176478458Y-69219987D01*
X176478458Y-69219987D02*
X176859410Y-69219987D01*
X176859410Y-69219987D02*
X176859410Y-68219987D01*
X176859410Y-68219987D02*
X176526077Y-68219987D01*
X176526077Y-68219987D02*
X176430839Y-68267606D01*
X176430839Y-68267606D02*
X176383220Y-68315225D01*
X176383220Y-68315225D02*
X176335601Y-68410463D01*
X176335601Y-68410463D02*
X176335601Y-68505701D01*
X176335601Y-68505701D02*
X176383220Y-68600939D01*
X176383220Y-68600939D02*
X176430839Y-68648558D01*
X176430839Y-68648558D02*
X176526077Y-68696177D01*
X176526077Y-68696177D02*
X176859410Y-68696177D01*
X175859410Y-69219987D02*
X175859410Y-68219987D01*
X174907030Y-69219987D02*
X175383220Y-69219987D01*
X175383220Y-69219987D02*
X175383220Y-68219987D01*
X174573696Y-69219987D02*
X174573696Y-68219987D01*
X174240363Y-68219987D02*
X173668935Y-68219987D01*
X173954649Y-69219987D02*
X173954649Y-68219987D01*
X173383220Y-68934272D02*
X172907030Y-68934272D01*
X173478458Y-69219987D02*
X173145125Y-68219987D01*
X173145125Y-68219987D02*
X172811792Y-69219987D01*
X171145125Y-69219987D02*
X171478458Y-68743796D01*
X171716553Y-69219987D02*
X171716553Y-68219987D01*
X171716553Y-68219987D02*
X171335601Y-68219987D01*
X171335601Y-68219987D02*
X171240363Y-68267606D01*
X171240363Y-68267606D02*
X171192744Y-68315225D01*
X171192744Y-68315225D02*
X171145125Y-68410463D01*
X171145125Y-68410463D02*
X171145125Y-68553320D01*
X171145125Y-68553320D02*
X171192744Y-68648558D01*
X171192744Y-68648558D02*
X171240363Y-68696177D01*
X171240363Y-68696177D02*
X171335601Y-68743796D01*
X171335601Y-68743796D02*
X171716553Y-68743796D01*
X170811791Y-68219987D02*
X170145125Y-69219987D01*
X170145125Y-68219987D02*
X170811791Y-69219987D01*
X193097506Y-69829931D02*
X193097506Y-70544216D01*
X193097506Y-70544216D02*
X193145125Y-70687073D01*
X193145125Y-70687073D02*
X193240363Y-70782312D01*
X193240363Y-70782312D02*
X193383220Y-70829931D01*
X193383220Y-70829931D02*
X193478458Y-70829931D01*
X192621315Y-70829931D02*
X192621315Y-69829931D01*
X192621315Y-69829931D02*
X192240363Y-69829931D01*
X192240363Y-69829931D02*
X192145125Y-69877550D01*
X192145125Y-69877550D02*
X192097506Y-69925169D01*
X192097506Y-69925169D02*
X192049887Y-70020407D01*
X192049887Y-70020407D02*
X192049887Y-70163264D01*
X192049887Y-70163264D02*
X192097506Y-70258502D01*
X192097506Y-70258502D02*
X192145125Y-70306121D01*
X192145125Y-70306121D02*
X192240363Y-70353740D01*
X192240363Y-70353740D02*
X192621315Y-70353740D01*
X191668934Y-69925169D02*
X191621315Y-69877550D01*
X191621315Y-69877550D02*
X191526077Y-69829931D01*
X191526077Y-69829931D02*
X191287982Y-69829931D01*
X191287982Y-69829931D02*
X191192744Y-69877550D01*
X191192744Y-69877550D02*
X191145125Y-69925169D01*
X191145125Y-69925169D02*
X191097506Y-70020407D01*
X191097506Y-70020407D02*
X191097506Y-70115645D01*
X191097506Y-70115645D02*
X191145125Y-70258502D01*
X191145125Y-70258502D02*
X191716553Y-70829931D01*
X191716553Y-70829931D02*
X191097506Y-70829931D01*
X189907029Y-70448978D02*
X189145125Y-70448978D01*
X187907029Y-70829931D02*
X187907029Y-69829931D01*
X187907029Y-70306121D02*
X187335601Y-70306121D01*
X187335601Y-70829931D02*
X187335601Y-69829931D01*
X186907029Y-70544216D02*
X186430839Y-70544216D01*
X187002267Y-70829931D02*
X186668934Y-69829931D01*
X186668934Y-69829931D02*
X186335601Y-70829931D01*
X185668934Y-70306121D02*
X185526077Y-70353740D01*
X185526077Y-70353740D02*
X185478458Y-70401359D01*
X185478458Y-70401359D02*
X185430839Y-70496597D01*
X185430839Y-70496597D02*
X185430839Y-70639454D01*
X185430839Y-70639454D02*
X185478458Y-70734692D01*
X185478458Y-70734692D02*
X185526077Y-70782312D01*
X185526077Y-70782312D02*
X185621315Y-70829931D01*
X185621315Y-70829931D02*
X186002267Y-70829931D01*
X186002267Y-70829931D02*
X186002267Y-69829931D01*
X186002267Y-69829931D02*
X185668934Y-69829931D01*
X185668934Y-69829931D02*
X185573696Y-69877550D01*
X185573696Y-69877550D02*
X185526077Y-69925169D01*
X185526077Y-69925169D02*
X185478458Y-70020407D01*
X185478458Y-70020407D02*
X185478458Y-70115645D01*
X185478458Y-70115645D02*
X185526077Y-70210883D01*
X185526077Y-70210883D02*
X185573696Y-70258502D01*
X185573696Y-70258502D02*
X185668934Y-70306121D01*
X185668934Y-70306121D02*
X186002267Y-70306121D01*
X185002267Y-70829931D02*
X185002267Y-69829931D01*
X184049887Y-70829931D02*
X184526077Y-70829931D01*
X184526077Y-70829931D02*
X184526077Y-69829931D01*
X183716553Y-70829931D02*
X183716553Y-69829931D01*
X183383220Y-69829931D02*
X182811792Y-69829931D01*
X183097506Y-70829931D02*
X183097506Y-69829931D01*
X182526077Y-70544216D02*
X182049887Y-70544216D01*
X182621315Y-70829931D02*
X182287982Y-69829931D01*
X182287982Y-69829931D02*
X181954649Y-70829931D01*
X180907030Y-69782312D02*
X181764172Y-71068026D01*
X180573696Y-70829931D02*
X180573696Y-69829931D01*
X180573696Y-69829931D02*
X180335601Y-69829931D01*
X180335601Y-69829931D02*
X180192744Y-69877550D01*
X180192744Y-69877550D02*
X180097506Y-69972788D01*
X180097506Y-69972788D02*
X180049887Y-70068026D01*
X180049887Y-70068026D02*
X180002268Y-70258502D01*
X180002268Y-70258502D02*
X180002268Y-70401359D01*
X180002268Y-70401359D02*
X180049887Y-70591835D01*
X180049887Y-70591835D02*
X180097506Y-70687073D01*
X180097506Y-70687073D02*
X180192744Y-70782312D01*
X180192744Y-70782312D02*
X180335601Y-70829931D01*
X180335601Y-70829931D02*
X180573696Y-70829931D01*
X179573696Y-70306121D02*
X179240363Y-70306121D01*
X179097506Y-70829931D02*
X179573696Y-70829931D01*
X179573696Y-70829931D02*
X179573696Y-69829931D01*
X179573696Y-69829931D02*
X179097506Y-69829931D01*
X178716553Y-70782312D02*
X178573696Y-70829931D01*
X178573696Y-70829931D02*
X178335601Y-70829931D01*
X178335601Y-70829931D02*
X178240363Y-70782312D01*
X178240363Y-70782312D02*
X178192744Y-70734692D01*
X178192744Y-70734692D02*
X178145125Y-70639454D01*
X178145125Y-70639454D02*
X178145125Y-70544216D01*
X178145125Y-70544216D02*
X178192744Y-70448978D01*
X178192744Y-70448978D02*
X178240363Y-70401359D01*
X178240363Y-70401359D02*
X178335601Y-70353740D01*
X178335601Y-70353740D02*
X178526077Y-70306121D01*
X178526077Y-70306121D02*
X178621315Y-70258502D01*
X178621315Y-70258502D02*
X178668934Y-70210883D01*
X178668934Y-70210883D02*
X178716553Y-70115645D01*
X178716553Y-70115645D02*
X178716553Y-70020407D01*
X178716553Y-70020407D02*
X178668934Y-69925169D01*
X178668934Y-69925169D02*
X178621315Y-69877550D01*
X178621315Y-69877550D02*
X178526077Y-69829931D01*
X178526077Y-69829931D02*
X178287982Y-69829931D01*
X178287982Y-69829931D02*
X178145125Y-69877550D01*
X177764172Y-70544216D02*
X177287982Y-70544216D01*
X177859410Y-70829931D02*
X177526077Y-69829931D01*
X177526077Y-69829931D02*
X177192744Y-70829931D01*
X176526077Y-70306121D02*
X176383220Y-70353740D01*
X176383220Y-70353740D02*
X176335601Y-70401359D01*
X176335601Y-70401359D02*
X176287982Y-70496597D01*
X176287982Y-70496597D02*
X176287982Y-70639454D01*
X176287982Y-70639454D02*
X176335601Y-70734692D01*
X176335601Y-70734692D02*
X176383220Y-70782312D01*
X176383220Y-70782312D02*
X176478458Y-70829931D01*
X176478458Y-70829931D02*
X176859410Y-70829931D01*
X176859410Y-70829931D02*
X176859410Y-69829931D01*
X176859410Y-69829931D02*
X176526077Y-69829931D01*
X176526077Y-69829931D02*
X176430839Y-69877550D01*
X176430839Y-69877550D02*
X176383220Y-69925169D01*
X176383220Y-69925169D02*
X176335601Y-70020407D01*
X176335601Y-70020407D02*
X176335601Y-70115645D01*
X176335601Y-70115645D02*
X176383220Y-70210883D01*
X176383220Y-70210883D02*
X176430839Y-70258502D01*
X176430839Y-70258502D02*
X176526077Y-70306121D01*
X176526077Y-70306121D02*
X176859410Y-70306121D01*
X175859410Y-70829931D02*
X175859410Y-69829931D01*
X174907030Y-70829931D02*
X175383220Y-70829931D01*
X175383220Y-70829931D02*
X175383220Y-69829931D01*
X174573696Y-70829931D02*
X174573696Y-69829931D01*
X174240363Y-69829931D02*
X173668935Y-69829931D01*
X173954649Y-70829931D02*
X173954649Y-69829931D01*
X173383220Y-70544216D02*
X172907030Y-70544216D01*
X173478458Y-70829931D02*
X173145125Y-69829931D01*
X173145125Y-69829931D02*
X172811792Y-70829931D01*
X171859410Y-69829931D02*
X171287982Y-69829931D01*
X171573696Y-70829931D02*
X171573696Y-69829931D01*
X171049886Y-69829931D02*
X170383220Y-70829931D01*
X170383220Y-69829931D02*
X171049886Y-70829931D01*
X193097506Y-71439875D02*
X193097506Y-72154160D01*
X193097506Y-72154160D02*
X193145125Y-72297017D01*
X193145125Y-72297017D02*
X193240363Y-72392256D01*
X193240363Y-72392256D02*
X193383220Y-72439875D01*
X193383220Y-72439875D02*
X193478458Y-72439875D01*
X192621315Y-72439875D02*
X192621315Y-71439875D01*
X192621315Y-71439875D02*
X192240363Y-71439875D01*
X192240363Y-71439875D02*
X192145125Y-71487494D01*
X192145125Y-71487494D02*
X192097506Y-71535113D01*
X192097506Y-71535113D02*
X192049887Y-71630351D01*
X192049887Y-71630351D02*
X192049887Y-71773208D01*
X192049887Y-71773208D02*
X192097506Y-71868446D01*
X192097506Y-71868446D02*
X192145125Y-71916065D01*
X192145125Y-71916065D02*
X192240363Y-71963684D01*
X192240363Y-71963684D02*
X192621315Y-71963684D01*
X191716553Y-71439875D02*
X191097506Y-71439875D01*
X191097506Y-71439875D02*
X191430839Y-71820827D01*
X191430839Y-71820827D02*
X191287982Y-71820827D01*
X191287982Y-71820827D02*
X191192744Y-71868446D01*
X191192744Y-71868446D02*
X191145125Y-71916065D01*
X191145125Y-71916065D02*
X191097506Y-72011303D01*
X191097506Y-72011303D02*
X191097506Y-72249398D01*
X191097506Y-72249398D02*
X191145125Y-72344636D01*
X191145125Y-72344636D02*
X191192744Y-72392256D01*
X191192744Y-72392256D02*
X191287982Y-72439875D01*
X191287982Y-72439875D02*
X191573696Y-72439875D01*
X191573696Y-72439875D02*
X191668934Y-72392256D01*
X191668934Y-72392256D02*
X191716553Y-72344636D01*
X189907029Y-72058922D02*
X189145125Y-72058922D01*
X187907029Y-72439875D02*
X187907029Y-71439875D01*
X187907029Y-71916065D02*
X187335601Y-71916065D01*
X187335601Y-72439875D02*
X187335601Y-71439875D01*
X186907029Y-72154160D02*
X186430839Y-72154160D01*
X187002267Y-72439875D02*
X186668934Y-71439875D01*
X186668934Y-71439875D02*
X186335601Y-72439875D01*
X185668934Y-71916065D02*
X185526077Y-71963684D01*
X185526077Y-71963684D02*
X185478458Y-72011303D01*
X185478458Y-72011303D02*
X185430839Y-72106541D01*
X185430839Y-72106541D02*
X185430839Y-72249398D01*
X185430839Y-72249398D02*
X185478458Y-72344636D01*
X185478458Y-72344636D02*
X185526077Y-72392256D01*
X185526077Y-72392256D02*
X185621315Y-72439875D01*
X185621315Y-72439875D02*
X186002267Y-72439875D01*
X186002267Y-72439875D02*
X186002267Y-71439875D01*
X186002267Y-71439875D02*
X185668934Y-71439875D01*
X185668934Y-71439875D02*
X185573696Y-71487494D01*
X185573696Y-71487494D02*
X185526077Y-71535113D01*
X185526077Y-71535113D02*
X185478458Y-71630351D01*
X185478458Y-71630351D02*
X185478458Y-71725589D01*
X185478458Y-71725589D02*
X185526077Y-71820827D01*
X185526077Y-71820827D02*
X185573696Y-71868446D01*
X185573696Y-71868446D02*
X185668934Y-71916065D01*
X185668934Y-71916065D02*
X186002267Y-71916065D01*
X185002267Y-72439875D02*
X185002267Y-71439875D01*
X184049887Y-72439875D02*
X184526077Y-72439875D01*
X184526077Y-72439875D02*
X184526077Y-71439875D01*
X183716553Y-72439875D02*
X183716553Y-71439875D01*
X183383220Y-71439875D02*
X182811792Y-71439875D01*
X183097506Y-72439875D02*
X183097506Y-71439875D01*
X182526077Y-72154160D02*
X182049887Y-72154160D01*
X182621315Y-72439875D02*
X182287982Y-71439875D01*
X182287982Y-71439875D02*
X181954649Y-72439875D01*
X180907030Y-71392256D02*
X181764172Y-72677970D01*
X180573696Y-72439875D02*
X180573696Y-71439875D01*
X180573696Y-71439875D02*
X180335601Y-71439875D01*
X180335601Y-71439875D02*
X180192744Y-71487494D01*
X180192744Y-71487494D02*
X180097506Y-71582732D01*
X180097506Y-71582732D02*
X180049887Y-71677970D01*
X180049887Y-71677970D02*
X180002268Y-71868446D01*
X180002268Y-71868446D02*
X180002268Y-72011303D01*
X180002268Y-72011303D02*
X180049887Y-72201779D01*
X180049887Y-72201779D02*
X180097506Y-72297017D01*
X180097506Y-72297017D02*
X180192744Y-72392256D01*
X180192744Y-72392256D02*
X180335601Y-72439875D01*
X180335601Y-72439875D02*
X180573696Y-72439875D01*
X179573696Y-71916065D02*
X179240363Y-71916065D01*
X179097506Y-72439875D02*
X179573696Y-72439875D01*
X179573696Y-72439875D02*
X179573696Y-71439875D01*
X179573696Y-71439875D02*
X179097506Y-71439875D01*
X178716553Y-72392256D02*
X178573696Y-72439875D01*
X178573696Y-72439875D02*
X178335601Y-72439875D01*
X178335601Y-72439875D02*
X178240363Y-72392256D01*
X178240363Y-72392256D02*
X178192744Y-72344636D01*
X178192744Y-72344636D02*
X178145125Y-72249398D01*
X178145125Y-72249398D02*
X178145125Y-72154160D01*
X178145125Y-72154160D02*
X178192744Y-72058922D01*
X178192744Y-72058922D02*
X178240363Y-72011303D01*
X178240363Y-72011303D02*
X178335601Y-71963684D01*
X178335601Y-71963684D02*
X178526077Y-71916065D01*
X178526077Y-71916065D02*
X178621315Y-71868446D01*
X178621315Y-71868446D02*
X178668934Y-71820827D01*
X178668934Y-71820827D02*
X178716553Y-71725589D01*
X178716553Y-71725589D02*
X178716553Y-71630351D01*
X178716553Y-71630351D02*
X178668934Y-71535113D01*
X178668934Y-71535113D02*
X178621315Y-71487494D01*
X178621315Y-71487494D02*
X178526077Y-71439875D01*
X178526077Y-71439875D02*
X178287982Y-71439875D01*
X178287982Y-71439875D02*
X178145125Y-71487494D01*
X177764172Y-72154160D02*
X177287982Y-72154160D01*
X177859410Y-72439875D02*
X177526077Y-71439875D01*
X177526077Y-71439875D02*
X177192744Y-72439875D01*
X176526077Y-71916065D02*
X176383220Y-71963684D01*
X176383220Y-71963684D02*
X176335601Y-72011303D01*
X176335601Y-72011303D02*
X176287982Y-72106541D01*
X176287982Y-72106541D02*
X176287982Y-72249398D01*
X176287982Y-72249398D02*
X176335601Y-72344636D01*
X176335601Y-72344636D02*
X176383220Y-72392256D01*
X176383220Y-72392256D02*
X176478458Y-72439875D01*
X176478458Y-72439875D02*
X176859410Y-72439875D01*
X176859410Y-72439875D02*
X176859410Y-71439875D01*
X176859410Y-71439875D02*
X176526077Y-71439875D01*
X176526077Y-71439875D02*
X176430839Y-71487494D01*
X176430839Y-71487494D02*
X176383220Y-71535113D01*
X176383220Y-71535113D02*
X176335601Y-71630351D01*
X176335601Y-71630351D02*
X176335601Y-71725589D01*
X176335601Y-71725589D02*
X176383220Y-71820827D01*
X176383220Y-71820827D02*
X176430839Y-71868446D01*
X176430839Y-71868446D02*
X176526077Y-71916065D01*
X176526077Y-71916065D02*
X176859410Y-71916065D01*
X175859410Y-72439875D02*
X175859410Y-71439875D01*
X174907030Y-72439875D02*
X175383220Y-72439875D01*
X175383220Y-72439875D02*
X175383220Y-71439875D01*
X174573696Y-72439875D02*
X174573696Y-71439875D01*
X174240363Y-71439875D02*
X173668935Y-71439875D01*
X173954649Y-72439875D02*
X173954649Y-71439875D01*
X173383220Y-72154160D02*
X172907030Y-72154160D01*
X173478458Y-72439875D02*
X173145125Y-71439875D01*
X173145125Y-71439875D02*
X172811792Y-72439875D01*
X171526077Y-71439875D02*
X171335601Y-71439875D01*
X171335601Y-71439875D02*
X171240363Y-71487494D01*
X171240363Y-71487494D02*
X171145125Y-71582732D01*
X171145125Y-71582732D02*
X171097506Y-71773208D01*
X171097506Y-71773208D02*
X171097506Y-72106541D01*
X171097506Y-72106541D02*
X171145125Y-72297017D01*
X171145125Y-72297017D02*
X171240363Y-72392256D01*
X171240363Y-72392256D02*
X171335601Y-72439875D01*
X171335601Y-72439875D02*
X171526077Y-72439875D01*
X171526077Y-72439875D02*
X171621315Y-72392256D01*
X171621315Y-72392256D02*
X171716553Y-72297017D01*
X171716553Y-72297017D02*
X171764172Y-72106541D01*
X171764172Y-72106541D02*
X171764172Y-71773208D01*
X171764172Y-71773208D02*
X171716553Y-71582732D01*
X171716553Y-71582732D02*
X171621315Y-71487494D01*
X171621315Y-71487494D02*
X171526077Y-71439875D01*
X170716553Y-72392256D02*
X170573696Y-72439875D01*
X170573696Y-72439875D02*
X170335601Y-72439875D01*
X170335601Y-72439875D02*
X170240363Y-72392256D01*
X170240363Y-72392256D02*
X170192744Y-72344636D01*
X170192744Y-72344636D02*
X170145125Y-72249398D01*
X170145125Y-72249398D02*
X170145125Y-72154160D01*
X170145125Y-72154160D02*
X170192744Y-72058922D01*
X170192744Y-72058922D02*
X170240363Y-72011303D01*
X170240363Y-72011303D02*
X170335601Y-71963684D01*
X170335601Y-71963684D02*
X170526077Y-71916065D01*
X170526077Y-71916065D02*
X170621315Y-71868446D01*
X170621315Y-71868446D02*
X170668934Y-71820827D01*
X170668934Y-71820827D02*
X170716553Y-71725589D01*
X170716553Y-71725589D02*
X170716553Y-71630351D01*
X170716553Y-71630351D02*
X170668934Y-71535113D01*
X170668934Y-71535113D02*
X170621315Y-71487494D01*
X170621315Y-71487494D02*
X170526077Y-71439875D01*
X170526077Y-71439875D02*
X170287982Y-71439875D01*
X170287982Y-71439875D02*
X170145125Y-71487494D01*
X169145125Y-72344636D02*
X169192744Y-72392256D01*
X169192744Y-72392256D02*
X169335601Y-72439875D01*
X169335601Y-72439875D02*
X169430839Y-72439875D01*
X169430839Y-72439875D02*
X169573696Y-72392256D01*
X169573696Y-72392256D02*
X169668934Y-72297017D01*
X169668934Y-72297017D02*
X169716553Y-72201779D01*
X169716553Y-72201779D02*
X169764172Y-72011303D01*
X169764172Y-72011303D02*
X169764172Y-71868446D01*
X169764172Y-71868446D02*
X169716553Y-71677970D01*
X169716553Y-71677970D02*
X169668934Y-71582732D01*
X169668934Y-71582732D02*
X169573696Y-71487494D01*
X169573696Y-71487494D02*
X169430839Y-71439875D01*
X169430839Y-71439875D02*
X169335601Y-71439875D01*
X169335601Y-71439875D02*
X169192744Y-71487494D01*
X169192744Y-71487494D02*
X169145125Y-71535113D01*
X168192744Y-72439875D02*
X168764172Y-72439875D01*
X168478458Y-72439875D02*
X168478458Y-71439875D01*
X168478458Y-71439875D02*
X168573696Y-71582732D01*
X168573696Y-71582732D02*
X168668934Y-71677970D01*
X168668934Y-71677970D02*
X168764172Y-71725589D01*
X193097506Y-73049819D02*
X193097506Y-73764104D01*
X193097506Y-73764104D02*
X193145125Y-73906961D01*
X193145125Y-73906961D02*
X193240363Y-74002200D01*
X193240363Y-74002200D02*
X193383220Y-74049819D01*
X193383220Y-74049819D02*
X193478458Y-74049819D01*
X192621315Y-74049819D02*
X192621315Y-73049819D01*
X192621315Y-73049819D02*
X192240363Y-73049819D01*
X192240363Y-73049819D02*
X192145125Y-73097438D01*
X192145125Y-73097438D02*
X192097506Y-73145057D01*
X192097506Y-73145057D02*
X192049887Y-73240295D01*
X192049887Y-73240295D02*
X192049887Y-73383152D01*
X192049887Y-73383152D02*
X192097506Y-73478390D01*
X192097506Y-73478390D02*
X192145125Y-73526009D01*
X192145125Y-73526009D02*
X192240363Y-73573628D01*
X192240363Y-73573628D02*
X192621315Y-73573628D01*
X191192744Y-73383152D02*
X191192744Y-74049819D01*
X191430839Y-73002200D02*
X191668934Y-73716485D01*
X191668934Y-73716485D02*
X191049887Y-73716485D01*
X189907029Y-73668866D02*
X189145125Y-73668866D01*
X187907029Y-74049819D02*
X187907029Y-73049819D01*
X187907029Y-73526009D02*
X187335601Y-73526009D01*
X187335601Y-74049819D02*
X187335601Y-73049819D01*
X186907029Y-73764104D02*
X186430839Y-73764104D01*
X187002267Y-74049819D02*
X186668934Y-73049819D01*
X186668934Y-73049819D02*
X186335601Y-74049819D01*
X185668934Y-73526009D02*
X185526077Y-73573628D01*
X185526077Y-73573628D02*
X185478458Y-73621247D01*
X185478458Y-73621247D02*
X185430839Y-73716485D01*
X185430839Y-73716485D02*
X185430839Y-73859342D01*
X185430839Y-73859342D02*
X185478458Y-73954580D01*
X185478458Y-73954580D02*
X185526077Y-74002200D01*
X185526077Y-74002200D02*
X185621315Y-74049819D01*
X185621315Y-74049819D02*
X186002267Y-74049819D01*
X186002267Y-74049819D02*
X186002267Y-73049819D01*
X186002267Y-73049819D02*
X185668934Y-73049819D01*
X185668934Y-73049819D02*
X185573696Y-73097438D01*
X185573696Y-73097438D02*
X185526077Y-73145057D01*
X185526077Y-73145057D02*
X185478458Y-73240295D01*
X185478458Y-73240295D02*
X185478458Y-73335533D01*
X185478458Y-73335533D02*
X185526077Y-73430771D01*
X185526077Y-73430771D02*
X185573696Y-73478390D01*
X185573696Y-73478390D02*
X185668934Y-73526009D01*
X185668934Y-73526009D02*
X186002267Y-73526009D01*
X185002267Y-74049819D02*
X185002267Y-73049819D01*
X184049887Y-74049819D02*
X184526077Y-74049819D01*
X184526077Y-74049819D02*
X184526077Y-73049819D01*
X183716553Y-74049819D02*
X183716553Y-73049819D01*
X183383220Y-73049819D02*
X182811792Y-73049819D01*
X183097506Y-74049819D02*
X183097506Y-73049819D01*
X182526077Y-73764104D02*
X182049887Y-73764104D01*
X182621315Y-74049819D02*
X182287982Y-73049819D01*
X182287982Y-73049819D02*
X181954649Y-74049819D01*
X180907030Y-73002200D02*
X181764172Y-74287914D01*
X180573696Y-74049819D02*
X180573696Y-73049819D01*
X180573696Y-73049819D02*
X180335601Y-73049819D01*
X180335601Y-73049819D02*
X180192744Y-73097438D01*
X180192744Y-73097438D02*
X180097506Y-73192676D01*
X180097506Y-73192676D02*
X180049887Y-73287914D01*
X180049887Y-73287914D02*
X180002268Y-73478390D01*
X180002268Y-73478390D02*
X180002268Y-73621247D01*
X180002268Y-73621247D02*
X180049887Y-73811723D01*
X180049887Y-73811723D02*
X180097506Y-73906961D01*
X180097506Y-73906961D02*
X180192744Y-74002200D01*
X180192744Y-74002200D02*
X180335601Y-74049819D01*
X180335601Y-74049819D02*
X180573696Y-74049819D01*
X179573696Y-73526009D02*
X179240363Y-73526009D01*
X179097506Y-74049819D02*
X179573696Y-74049819D01*
X179573696Y-74049819D02*
X179573696Y-73049819D01*
X179573696Y-73049819D02*
X179097506Y-73049819D01*
X178716553Y-74002200D02*
X178573696Y-74049819D01*
X178573696Y-74049819D02*
X178335601Y-74049819D01*
X178335601Y-74049819D02*
X178240363Y-74002200D01*
X178240363Y-74002200D02*
X178192744Y-73954580D01*
X178192744Y-73954580D02*
X178145125Y-73859342D01*
X178145125Y-73859342D02*
X178145125Y-73764104D01*
X178145125Y-73764104D02*
X178192744Y-73668866D01*
X178192744Y-73668866D02*
X178240363Y-73621247D01*
X178240363Y-73621247D02*
X178335601Y-73573628D01*
X178335601Y-73573628D02*
X178526077Y-73526009D01*
X178526077Y-73526009D02*
X178621315Y-73478390D01*
X178621315Y-73478390D02*
X178668934Y-73430771D01*
X178668934Y-73430771D02*
X178716553Y-73335533D01*
X178716553Y-73335533D02*
X178716553Y-73240295D01*
X178716553Y-73240295D02*
X178668934Y-73145057D01*
X178668934Y-73145057D02*
X178621315Y-73097438D01*
X178621315Y-73097438D02*
X178526077Y-73049819D01*
X178526077Y-73049819D02*
X178287982Y-73049819D01*
X178287982Y-73049819D02*
X178145125Y-73097438D01*
X177764172Y-73764104D02*
X177287982Y-73764104D01*
X177859410Y-74049819D02*
X177526077Y-73049819D01*
X177526077Y-73049819D02*
X177192744Y-74049819D01*
X176526077Y-73526009D02*
X176383220Y-73573628D01*
X176383220Y-73573628D02*
X176335601Y-73621247D01*
X176335601Y-73621247D02*
X176287982Y-73716485D01*
X176287982Y-73716485D02*
X176287982Y-73859342D01*
X176287982Y-73859342D02*
X176335601Y-73954580D01*
X176335601Y-73954580D02*
X176383220Y-74002200D01*
X176383220Y-74002200D02*
X176478458Y-74049819D01*
X176478458Y-74049819D02*
X176859410Y-74049819D01*
X176859410Y-74049819D02*
X176859410Y-73049819D01*
X176859410Y-73049819D02*
X176526077Y-73049819D01*
X176526077Y-73049819D02*
X176430839Y-73097438D01*
X176430839Y-73097438D02*
X176383220Y-73145057D01*
X176383220Y-73145057D02*
X176335601Y-73240295D01*
X176335601Y-73240295D02*
X176335601Y-73335533D01*
X176335601Y-73335533D02*
X176383220Y-73430771D01*
X176383220Y-73430771D02*
X176430839Y-73478390D01*
X176430839Y-73478390D02*
X176526077Y-73526009D01*
X176526077Y-73526009D02*
X176859410Y-73526009D01*
X175859410Y-74049819D02*
X175859410Y-73049819D01*
X174907030Y-74049819D02*
X175383220Y-74049819D01*
X175383220Y-74049819D02*
X175383220Y-73049819D01*
X174573696Y-74049819D02*
X174573696Y-73049819D01*
X174240363Y-73049819D02*
X173668935Y-73049819D01*
X173954649Y-74049819D02*
X173954649Y-73049819D01*
X173383220Y-73764104D02*
X172907030Y-73764104D01*
X173478458Y-74049819D02*
X173145125Y-73049819D01*
X173145125Y-73049819D02*
X172811792Y-74049819D01*
X171526077Y-73049819D02*
X171335601Y-73049819D01*
X171335601Y-73049819D02*
X171240363Y-73097438D01*
X171240363Y-73097438D02*
X171145125Y-73192676D01*
X171145125Y-73192676D02*
X171097506Y-73383152D01*
X171097506Y-73383152D02*
X171097506Y-73716485D01*
X171097506Y-73716485D02*
X171145125Y-73906961D01*
X171145125Y-73906961D02*
X171240363Y-74002200D01*
X171240363Y-74002200D02*
X171335601Y-74049819D01*
X171335601Y-74049819D02*
X171526077Y-74049819D01*
X171526077Y-74049819D02*
X171621315Y-74002200D01*
X171621315Y-74002200D02*
X171716553Y-73906961D01*
X171716553Y-73906961D02*
X171764172Y-73716485D01*
X171764172Y-73716485D02*
X171764172Y-73383152D01*
X171764172Y-73383152D02*
X171716553Y-73192676D01*
X171716553Y-73192676D02*
X171621315Y-73097438D01*
X171621315Y-73097438D02*
X171526077Y-73049819D01*
X170716553Y-74002200D02*
X170573696Y-74049819D01*
X170573696Y-74049819D02*
X170335601Y-74049819D01*
X170335601Y-74049819D02*
X170240363Y-74002200D01*
X170240363Y-74002200D02*
X170192744Y-73954580D01*
X170192744Y-73954580D02*
X170145125Y-73859342D01*
X170145125Y-73859342D02*
X170145125Y-73764104D01*
X170145125Y-73764104D02*
X170192744Y-73668866D01*
X170192744Y-73668866D02*
X170240363Y-73621247D01*
X170240363Y-73621247D02*
X170335601Y-73573628D01*
X170335601Y-73573628D02*
X170526077Y-73526009D01*
X170526077Y-73526009D02*
X170621315Y-73478390D01*
X170621315Y-73478390D02*
X170668934Y-73430771D01*
X170668934Y-73430771D02*
X170716553Y-73335533D01*
X170716553Y-73335533D02*
X170716553Y-73240295D01*
X170716553Y-73240295D02*
X170668934Y-73145057D01*
X170668934Y-73145057D02*
X170621315Y-73097438D01*
X170621315Y-73097438D02*
X170526077Y-73049819D01*
X170526077Y-73049819D02*
X170287982Y-73049819D01*
X170287982Y-73049819D02*
X170145125Y-73097438D01*
X169145125Y-73954580D02*
X169192744Y-74002200D01*
X169192744Y-74002200D02*
X169335601Y-74049819D01*
X169335601Y-74049819D02*
X169430839Y-74049819D01*
X169430839Y-74049819D02*
X169573696Y-74002200D01*
X169573696Y-74002200D02*
X169668934Y-73906961D01*
X169668934Y-73906961D02*
X169716553Y-73811723D01*
X169716553Y-73811723D02*
X169764172Y-73621247D01*
X169764172Y-73621247D02*
X169764172Y-73478390D01*
X169764172Y-73478390D02*
X169716553Y-73287914D01*
X169716553Y-73287914D02*
X169668934Y-73192676D01*
X169668934Y-73192676D02*
X169573696Y-73097438D01*
X169573696Y-73097438D02*
X169430839Y-73049819D01*
X169430839Y-73049819D02*
X169335601Y-73049819D01*
X169335601Y-73049819D02*
X169192744Y-73097438D01*
X169192744Y-73097438D02*
X169145125Y-73145057D01*
X168764172Y-73145057D02*
X168716553Y-73097438D01*
X168716553Y-73097438D02*
X168621315Y-73049819D01*
X168621315Y-73049819D02*
X168383220Y-73049819D01*
X168383220Y-73049819D02*
X168287982Y-73097438D01*
X168287982Y-73097438D02*
X168240363Y-73145057D01*
X168240363Y-73145057D02*
X168192744Y-73240295D01*
X168192744Y-73240295D02*
X168192744Y-73335533D01*
X168192744Y-73335533D02*
X168240363Y-73478390D01*
X168240363Y-73478390D02*
X168811791Y-74049819D01*
X168811791Y-74049819D02*
X168192744Y-74049819D01*
M02*
