M48
; DRILL file {KiCad 8.0.4} date 2024-09-09T16:31:03-0300
; FORMAT={-:-/ absolute / inch / decimal}
; #@! TF.CreationDate,2024-09-09T16:31:03-03:00
; #@! TF.GenerationSoftware,Kicad,Pcbnew,8.0.4
; #@! TF.FileFunction,Plated,1,2,PTH
FMAT,2
INCH
; #@! TA.AperFunction,Plated,PTH,ViaDrill
T1C0.0118
; #@! TA.AperFunction,Plated,PTH,ComponentDrill
T2C0.0157
; #@! TA.AperFunction,Plated,PTH,ComponentDrill
T3C0.0197
; #@! TA.AperFunction,Plated,PTH,ComponentDrill
T4C0.0236
; #@! TA.AperFunction,Plated,PTH,ComponentDrill
T5C0.0315
; #@! TA.AperFunction,Plated,PTH,ComponentDrill
T6C0.0354
; #@! TA.AperFunction,Plated,PTH,ComponentDrill
T7C0.0374
; #@! TA.AperFunction,Plated,PTH,ComponentDrill
T8C0.0394
; #@! TA.AperFunction,Plated,PTH,ComponentDrill
T9C0.0906
; #@! TA.AperFunction,Plated,PTH,ComponentDrill
T10C0.1260
%
G90
G05
T1
X4.952Y-3.8008
X5.0016Y-3.7996
X5.0071Y-4.089
X5.0106Y-2.8972
X5.1016Y-3.8055
X5.1516Y-3.8059
X5.2232Y-4.022
X5.3461Y-2.8697
X5.5744Y-3.0969
X5.6228Y-3.0417
X5.9358Y-2.8236
X5.9752Y-2.9791
X5.9752Y-3.2276
X6.0413Y-2.824
X6.1425Y-2.824
X6.2417Y-2.824
X6.3165Y-2.9378
X6.3165Y-3.0496
X6.3539Y-3.7319
X6.3685Y-3.987
X6.453Y-4.0189
X6.5091Y-3.7319
X6.5193Y-2.9831
X6.551Y-4.0189
X6.5921Y-3.9295
X6.6134Y-3.7319
X6.6264Y-3.0846
X6.6557Y-4.0189
X6.6925Y-3.8831
X6.7209Y-3.1224
X6.7213Y-3.6008
X6.7447Y-4.0189
X6.7524Y-3.0839
X6.7839Y-3.0531
X6.815Y-3.7366
X6.8154Y-3.0177
X6.9008Y-3.0122
X6.9287Y-4.0909
X6.9394Y-3.3748
X6.9398Y-3.4559
X7.0323Y-4.0913
X7.1327Y-4.0917
X7.2126Y-3.0126
X7.235Y-4.0917
X7.3386Y-4.0917
X7.422Y-3.013
X7.4362Y-4.0921
X7.485Y-3.8925
X7.5398Y-3.013
X7.6232Y-3.065
T2
X5.083Y-2.7331
X6.3201Y-3.5031
T3
X4.7051Y-2.8547
X5.2184Y-3.0787
T4
X4.8848Y-3.2749
T5
X4.4394Y-2.6752
X4.5378Y-2.6752
X4.7921Y-4.1606
X4.7921Y-4.2606
X7.7035Y-2.9161
X7.7055Y-3.0157
X7.8031Y-3.3264
X7.8031Y-3.5185
X7.8035Y-2.9161
X7.8055Y-3.0157
T6
X5.0772Y-4.1955
X5.0772Y-4.2955
X5.1551Y-2.5175
X5.1551Y-2.6175
X5.2791Y-4.1951
X5.2791Y-4.2951
X7.6016Y-3.9783
X7.7016Y-3.9783
T7
X4.5323Y-3.7307
X4.5323Y-3.8291
X4.611Y-3.7307
X4.611Y-3.8291
T8
X5.0813Y-3.2441
X5.1813Y-3.2441
X5.748Y-3.1799
X5.748Y-3.2799
X5.748Y-3.3799
X5.748Y-3.4799
X5.748Y-3.5799
X5.748Y-3.6799
X5.9921Y-2.5441
X5.9921Y-4.3157
X6.052Y-3.3323
X6.052Y-3.4323
X6.052Y-3.5323
X6.0921Y-2.5441
X6.0921Y-4.3157
X6.152Y-3.3323
X6.152Y-3.4323
X6.152Y-3.5323
X6.1921Y-2.5441
X6.1921Y-4.3157
X6.2921Y-2.5441
X6.2921Y-4.3157
X6.3921Y-2.5441
X6.3921Y-4.3157
X6.4921Y-2.5441
X6.4921Y-4.3157
X6.5921Y-2.5441
X6.5921Y-4.3157
X6.6921Y-2.5441
X6.6921Y-4.3157
X6.8817Y-2.5441
X6.8819Y-4.3157
X6.9817Y-2.5441
X6.9819Y-4.3157
X7.0817Y-2.5441
X7.0819Y-4.3157
X7.1817Y-2.5441
X7.1819Y-4.3157
X7.2817Y-2.5441
X7.2819Y-4.3157
X7.3817Y-2.5441
X7.3819Y-4.3157
X7.474Y-3.1799
X7.474Y-3.2799
X7.474Y-3.3799
X7.474Y-3.4799
X7.474Y-3.5799
X7.474Y-3.6799
X7.4817Y-2.5441
X7.5817Y-2.5441
T9
X4.4197Y-3.5437
X4.4197Y-4.0161
T10
X4.1594Y-2.5874
X4.1594Y-4.2724
X7.813Y-2.5874
X7.813Y-4.2724
T8
G00X4.3024Y-2.963
M15
G01X4.3024Y-3.0417
M16
G05
G00X4.3811Y-3.1874
M15
G01X4.4598Y-3.1874
M16
G05
G00X4.5386Y-2.963
M15
G01X4.5386Y-3.0417
M16
G05
M30
