%TF.GenerationSoftware,KiCad,Pcbnew,8.0.4*%
%TF.CreationDate,2024-09-09T16:31:09-03:00*%
%TF.ProjectId,Esquem_tico_V1,45737175-656d-4e17-9469-636f5f56312e,rev?*%
%TF.SameCoordinates,Original*%
%TF.FileFunction,Copper,L2,Bot*%
%TF.FilePolarity,Positive*%
%FSLAX46Y46*%
G04 Gerber Fmt 4.6, Leading zero omitted, Abs format (unit mm)*
G04 Created by KiCad (PCBNEW 8.0.4) date 2024-09-09 16:31:09*
%MOMM*%
%LPD*%
G01*
G04 APERTURE LIST*
G04 Aperture macros list*
%AMRoundRect*
0 Rectangle with rounded corners*
0 $1 Rounding radius*
0 $2 $3 $4 $5 $6 $7 $8 $9 X,Y pos of 4 corners*
0 Add a 4 corners polygon primitive as box body*
4,1,4,$2,$3,$4,$5,$6,$7,$8,$9,$2,$3,0*
0 Add four circle primitives for the rounded corners*
1,1,$1+$1,$2,$3*
1,1,$1+$1,$4,$5*
1,1,$1+$1,$6,$7*
1,1,$1+$1,$8,$9*
0 Add four rect primitives between the rounded corners*
20,1,$1+$1,$2,$3,$4,$5,0*
20,1,$1+$1,$4,$5,$6,$7,0*
20,1,$1+$1,$6,$7,$8,$9,0*
20,1,$1+$1,$8,$9,$2,$3,0*%
G04 Aperture macros list end*
%TA.AperFunction,ComponentPad*%
%ADD10R,1.800000X1.800000*%
%TD*%
%TA.AperFunction,ComponentPad*%
%ADD11C,1.800000*%
%TD*%
%TA.AperFunction,ComponentPad*%
%ADD12R,1.700000X1.700000*%
%TD*%
%TA.AperFunction,ComponentPad*%
%ADD13O,1.700000X1.700000*%
%TD*%
%TA.AperFunction,ComponentPad*%
%ADD14RoundRect,0.250000X0.400000X0.600000X-0.400000X0.600000X-0.400000X-0.600000X0.400000X-0.600000X0*%
%TD*%
%TA.AperFunction,ComponentPad*%
%ADD15R,1.600000X1.600000*%
%TD*%
%TA.AperFunction,ComponentPad*%
%ADD16C,1.600000*%
%TD*%
%TA.AperFunction,ComponentPad*%
%ADD17C,4.000000*%
%TD*%
%TA.AperFunction,ComponentPad*%
%ADD18C,1.400000*%
%TD*%
%TA.AperFunction,ComponentPad*%
%ADD19RoundRect,0.250000X0.262500X0.450000X-0.262500X0.450000X-0.262500X-0.450000X0.262500X-0.450000X0*%
%TD*%
%TA.AperFunction,ComponentPad*%
%ADD20RoundRect,0.250000X0.475000X-0.250000X0.475000X0.250000X-0.475000X0.250000X-0.475000X-0.250000X0*%
%TD*%
%TA.AperFunction,ComponentPad*%
%ADD21R,3.500000X3.500000*%
%TD*%
%TA.AperFunction,ComponentPad*%
%ADD22RoundRect,0.750000X-0.750000X-1.000000X0.750000X-1.000000X0.750000X1.000000X-0.750000X1.000000X0*%
%TD*%
%TA.AperFunction,ComponentPad*%
%ADD23RoundRect,0.875000X-0.875000X-0.875000X0.875000X-0.875000X0.875000X0.875000X-0.875000X0.875000X0*%
%TD*%
%TA.AperFunction,ComponentPad*%
%ADD24C,5.600000*%
%TD*%
%TA.AperFunction,ComponentPad*%
%ADD25RoundRect,0.250000X1.100000X-0.500000X1.100000X0.500000X-1.100000X0.500000X-1.100000X-0.500000X0*%
%TD*%
%TA.AperFunction,ComponentPad*%
%ADD26C,1.500000*%
%TD*%
%TA.AperFunction,ComponentPad*%
%ADD27RoundRect,0.250000X0.350000X-0.850000X0.350000X0.850000X-0.350000X0.850000X-0.350000X-0.850000X0*%
%TD*%
%TA.AperFunction,ViaPad*%
%ADD28C,0.600000*%
%TD*%
%TA.AperFunction,ViaPad*%
%ADD29C,0.500000*%
%TD*%
%TA.AperFunction,Conductor*%
%ADD30C,0.200000*%
%TD*%
%TA.AperFunction,Conductor*%
%ADD31C,0.500000*%
%TD*%
G04 APERTURE END LIST*
D10*
%TO.P,D6,1,K*%
%TO.N,GND*%
X128960000Y-109105000D03*
D11*
%TO.P,D6,2,A*%
%TO.N,Net-(D7-A)*%
X128960000Y-106565000D03*
%TD*%
D12*
%TO.P,J9,1,Pin_1*%
%TO.N,RB0*%
X152200000Y-109620000D03*
D13*
%TO.P,J9,2,Pin_2*%
%TO.N,RB1*%
X154740000Y-109620000D03*
%TO.P,J9,3,Pin_3*%
%TO.N,RB2*%
X157280000Y-109620000D03*
%TO.P,J9,4,Pin_4*%
%TO.N,RB3*%
X159820000Y-109620000D03*
%TO.P,J9,5,Pin_5*%
%TO.N,RB4*%
X162360000Y-109620000D03*
%TO.P,J9,6,Pin_6*%
%TO.N,RB5*%
X164900000Y-109620000D03*
%TO.P,J9,7,Pin_7*%
%TO.N,RB6*%
X167440000Y-109620000D03*
%TO.P,J9,8,Pin_8*%
%TO.N,RB7*%
X169980000Y-109620000D03*
%TD*%
D12*
%TO.P,J4,1,Pin_1*%
%TO.N,GND*%
X153720000Y-84640000D03*
D13*
%TO.P,J4,2,Pin_2*%
%TO.N,+5V*%
X156260000Y-84640000D03*
%TO.P,J4,3,Pin_3*%
%TO.N,GND*%
X153720000Y-87180000D03*
%TO.P,J4,4,Pin_4*%
%TO.N,VDD*%
X156260000Y-87180000D03*
%TO.P,J4,5,Pin_5*%
%TO.N,GND*%
X153720000Y-89720000D03*
%TO.P,J4,6,Pin_6*%
%TO.N,VDD*%
X156260000Y-89720000D03*
%TD*%
D12*
%TO.P,J8,1,Pin_1*%
%TO.N,RC0*%
X192575000Y-64620000D03*
D13*
%TO.P,J8,2,Pin_2*%
%TO.N,RC1*%
X190035000Y-64620000D03*
%TO.P,J8,3,Pin_3*%
%TO.N,RC2*%
X187495000Y-64620000D03*
%TO.P,J8,4,Pin_4*%
%TO.N,RC3*%
X184955000Y-64620000D03*
%TO.P,J8,5,Pin_5*%
%TO.N,RC4*%
X182415000Y-64620000D03*
%TO.P,J8,6,Pin_6*%
%TO.N,RC5*%
X179875000Y-64620000D03*
%TO.P,J8,7,Pin_7*%
%TO.N,RC6*%
X177335000Y-64620000D03*
%TO.P,J8,8,Pin_8*%
%TO.N,RC7*%
X174795000Y-64620000D03*
%TD*%
D12*
%TO.P,J7,1,Pin_1*%
%TO.N,OSC2*%
X189840000Y-80770000D03*
D13*
%TO.P,J7,2,Pin_2*%
%TO.N,OSC1*%
X189840000Y-83310000D03*
%TO.P,J7,3,Pin_3*%
%TO.N,RE2*%
X189840000Y-85850000D03*
%TO.P,J7,4,Pin_4*%
%TO.N,RE1*%
X189840000Y-88390000D03*
%TO.P,J7,5,Pin_5*%
%TO.N,RE0*%
X189840000Y-90930000D03*
%TO.P,J7,6,Pin_6*%
%TO.N,~{MCLR}*%
X189840000Y-93470000D03*
%TD*%
D10*
%TO.P,D8,1,K*%
%TO.N,GND*%
X195620000Y-101050000D03*
D11*
%TO.P,D8,2,A*%
%TO.N,Net-(D6-A)*%
X193080000Y-101050000D03*
%TD*%
D14*
%TO.P,D4,1,K*%
%TO.N,+5V*%
X132547500Y-78200000D03*
%TD*%
D12*
%TO.P,J6,1,Pin_1*%
%TO.N,~{MCLR}*%
X146000000Y-80770000D03*
D13*
%TO.P,J6,2,Pin_2*%
%TO.N,+5V*%
X146000000Y-83310000D03*
%TO.P,J6,3,Pin_3*%
%TO.N,GND*%
X146000000Y-85850000D03*
%TO.P,J6,4,Pin_4*%
%TO.N,RB7*%
X146000000Y-88390000D03*
%TO.P,J6,5,Pin_5*%
%TO.N,RB6*%
X146000000Y-90930000D03*
%TO.P,J6,6,Pin_6*%
%TO.N,RB3*%
X146000000Y-93470000D03*
%TD*%
D15*
%TO.P,J1,1,VBUS*%
%TO.N,VBUS*%
X117120000Y-97260000D03*
D16*
%TO.P,J1,2,D-*%
%TO.N,Net-(J2-D-)*%
X117120000Y-94760000D03*
%TO.P,J1,3,D+*%
%TO.N,Net-(J2-D+)*%
X115120000Y-94760000D03*
%TO.P,J1,4,GND*%
%TO.N,GND*%
X115120000Y-97260000D03*
D17*
%TO.P,J1,5,Shield*%
X112260000Y-102010000D03*
X112260000Y-90010000D03*
%TD*%
D18*
%TO.P,JP3,1,A*%
%TO.N,OSC1*%
X195720000Y-76600000D03*
%TO.P,JP3,2,B*%
%TO.N,Net-(JP2-B)*%
X198260000Y-76600000D03*
%TD*%
D19*
%TO.P,R2,2*%
%TO.N,+5V*%
X129107500Y-69420000D03*
%TD*%
D20*
%TO.P,C6,1*%
%TO.N,+5V*%
X160530000Y-88980000D03*
%TD*%
D18*
%TO.P,JP6,1,A*%
%TO.N,Net-(JP1-A)*%
X121720000Y-108220000D03*
%TO.P,JP6,2,B*%
%TO.N,+5V*%
X121720000Y-105680000D03*
%TD*%
D21*
%TO.P,J2,1*%
%TO.N,VDD*%
X115280000Y-76260000D03*
D22*
%TO.P,J2,2*%
%TO.N,GND*%
X109280000Y-76260000D03*
D23*
%TO.P,J2,3*%
X112280000Y-80960000D03*
%TD*%
D18*
%TO.P,JP4,1,A*%
%TO.N,Net-(JP3-A)*%
X198210000Y-74070000D03*
%TO.P,JP4,2,B*%
%TO.N,OSC2*%
X195670000Y-74070000D03*
%TD*%
D24*
%TO.P,REF\u002A\u002A,1*%
%TO.N,N/C*%
X198449999Y-65720001D03*
%TD*%
D10*
%TO.P,D7,1,K*%
%TO.N,GND*%
X134090000Y-109095000D03*
D11*
%TO.P,D7,2,A*%
%TO.N,Net-(D8-A)*%
X134090000Y-106555000D03*
%TD*%
D24*
%TO.P,REF\u002A\u002A,1*%
%TO.N,N/C*%
X105650001Y-108519999D03*
%TD*%
D12*
%TO.P,J5,1,Pin_1*%
%TO.N,RD7*%
X152200000Y-64620000D03*
D13*
%TO.P,J5,2,Pin_2*%
%TO.N,RD6*%
X154740000Y-64620000D03*
%TO.P,J5,3,Pin_3*%
%TO.N,RD5*%
X157280000Y-64620000D03*
%TO.P,J5,4,Pin_4*%
%TO.N,RD4*%
X159820000Y-64620000D03*
%TO.P,J5,5,Pin_5*%
%TO.N,RD3*%
X162360000Y-64620000D03*
%TO.P,J5,6,Pin_6*%
%TO.N,RD2*%
X164900000Y-64620000D03*
%TO.P,J5,7,Pin_7*%
%TO.N,RD1*%
X167440000Y-64620000D03*
%TO.P,J5,8,Pin_8*%
%TO.N,RD0*%
X169980000Y-64620000D03*
%TD*%
D10*
%TO.P,D3,1,K*%
%TO.N,GND*%
X130940000Y-63945000D03*
D11*
%TO.P,D3,2,A*%
%TO.N,Net-(D5-A)*%
X130940000Y-66485000D03*
%TD*%
D12*
%TO.P,J10,1,Pin_1*%
%TO.N,RA0*%
X174800000Y-109620000D03*
D13*
%TO.P,J10,2,Pin_2*%
%TO.N,RA1*%
X177340000Y-109620000D03*
%TO.P,J10,3,Pin_3*%
%TO.N,RA2*%
X179880000Y-109620000D03*
%TO.P,J10,4,Pin_4*%
%TO.N,RA3*%
X182420000Y-109620000D03*
%TO.P,J10,5,Pin_5*%
%TO.N,RA4*%
X184960000Y-109620000D03*
%TO.P,J10,6,Pin_6*%
%TO.N,RA5*%
X187500000Y-109620000D03*
%TD*%
D25*
%TO.P,D1,1,K*%
%TO.N,+5V*%
X124075000Y-83182500D03*
%TD*%
D12*
%TO.P,J3,1,Pin_1*%
%TO.N,Net-(D1-A)*%
X129065000Y-82400000D03*
D13*
%TO.P,J3,2,Pin_2*%
%TO.N,GND*%
X131605000Y-82400000D03*
%TD*%
D24*
%TO.P,REF\u002A\u002A,1*%
%TO.N,N/C*%
X198450000Y-108520000D03*
%TD*%
D26*
%TO.P,Y1,1,1*%
%TO.N,Net-(JP2-B)*%
X198200000Y-89370000D03*
%TO.P,Y1,2,2*%
%TO.N,Net-(JP3-A)*%
X198200000Y-84490000D03*
%TD*%
D27*
%TO.P,U1,1,VI*%
%TO.N,VDD*%
X119510000Y-72510000D03*
%TD*%
D15*
%TO.P,C2,1*%
%TO.N,VDD*%
X115260000Y-67950000D03*
D16*
%TO.P,C2,2*%
%TO.N,GND*%
X112760000Y-67950000D03*
%TD*%
D24*
%TO.P,REF\u002A\u002A,1*%
%TO.N,N/C*%
X105650000Y-65720000D03*
%TD*%
D28*
%TO.N,RB3*%
X161760000Y-101270000D03*
%TO.N,GND*%
X171315000Y-102080000D03*
X163905000Y-102080000D03*
X166395000Y-102080000D03*
X169055000Y-102080000D03*
X158540000Y-71730000D03*
X156020000Y-71730000D03*
X153450000Y-71730000D03*
X150770000Y-71720000D03*
X175280000Y-76510000D03*
X183200000Y-76520000D03*
X188520000Y-76530000D03*
X191510000Y-76530000D03*
X193630000Y-77850000D03*
X167980000Y-94790000D03*
X165330000Y-94790000D03*
X161390000Y-94790000D03*
X175990000Y-103910000D03*
X178620000Y-103920000D03*
X181170000Y-103930000D03*
X183770000Y-103930000D03*
X186400000Y-103930000D03*
X188880000Y-103940000D03*
X176270000Y-87780000D03*
X176260000Y-85720000D03*
%TO.N,Net-(JP6-A)*%
X141590000Y-78660000D03*
X160440000Y-77460000D03*
%TO.N,Net-(JP7-A)*%
X142820000Y-77260000D03*
X160440000Y-74620000D03*
%TO.N,RC6*%
X165590000Y-75770000D03*
X168310000Y-78350000D03*
D29*
%TO.N,VDD*%
X151770000Y-75670000D03*
X151770000Y-81980000D03*
D28*
%TO.N,Net-(D1-A)*%
X127270000Y-73590000D03*
X135790000Y-72890000D03*
%TO.N,RB6*%
X167440000Y-99810000D03*
%TO.N,RB7*%
X169990000Y-98630000D03*
%TO.N,~{MCLR}*%
X173100000Y-94910000D03*
%TO.N,Net-(J2-D+)*%
X129580000Y-96660000D03*
%TO.N,Net-(J2-D-)*%
X130850000Y-96670000D03*
%TO.N,RD2*%
X171510000Y-78330000D03*
%TO.N,RD3*%
X170710000Y-79310000D03*
%TO.N,RD0*%
X173110000Y-76650000D03*
%TO.N,RD1*%
X172310000Y-77550000D03*
%TO.N,RB5*%
X190120000Y-98870000D03*
X170720000Y-91460000D03*
%TO.N,Net-(JP6-A)*%
X125780000Y-96540000D03*
X127180000Y-103860000D03*
%TO.N,Net-(JP7-A)*%
X127040000Y-96510000D03*
X132670000Y-102160000D03*
%TD*%
D30*
%TO.N,RB3*%
X146900000Y-101270000D02*
X161760000Y-101270000D01*
X146000000Y-100370000D02*
X146900000Y-101270000D01*
%TO.N,GND*%
X166395000Y-102080000D02*
X163905000Y-102080000D01*
X169055000Y-102080000D02*
X166395000Y-102080000D01*
X171315000Y-102080000D02*
X169055000Y-102080000D01*
X156020000Y-71730000D02*
X158540000Y-71730000D01*
X153450000Y-71730000D02*
X156020000Y-71730000D01*
X153440000Y-71720000D02*
X153450000Y-71730000D01*
X150770000Y-71720000D02*
X153440000Y-71720000D01*
X175290000Y-76520000D02*
X175280000Y-76510000D01*
X183200000Y-76520000D02*
X175290000Y-76520000D01*
X183210000Y-76530000D02*
X183200000Y-76520000D01*
X188520000Y-76530000D02*
X183210000Y-76530000D01*
X191510000Y-76530000D02*
X188520000Y-76530000D01*
X192310000Y-76530000D02*
X191510000Y-76530000D01*
X193630000Y-77850000D02*
X192310000Y-76530000D01*
X165330000Y-94790000D02*
X167980000Y-94790000D01*
X161390000Y-94790000D02*
X165330000Y-94790000D01*
X176000000Y-103920000D02*
X175990000Y-103910000D01*
X178620000Y-103920000D02*
X176000000Y-103920000D01*
X178630000Y-103930000D02*
X178620000Y-103920000D01*
X181170000Y-103930000D02*
X178630000Y-103930000D01*
X183770000Y-103930000D02*
X181170000Y-103930000D01*
X186400000Y-103930000D02*
X183770000Y-103930000D01*
X186410000Y-103940000D02*
X186400000Y-103930000D01*
X188880000Y-103940000D02*
X186410000Y-103940000D01*
X176260000Y-87770000D02*
X176270000Y-87780000D01*
X176260000Y-85720000D02*
X176260000Y-87770000D01*
%TO.N,Net-(JP6-A)*%
X143830000Y-78140000D02*
X143310000Y-78660000D01*
X159760000Y-78140000D02*
X147340000Y-78140000D01*
X160440000Y-77460000D02*
X159760000Y-78140000D01*
X143310000Y-78660000D02*
X141590000Y-78660000D01*
X147340000Y-78140000D02*
X143830000Y-78140000D01*
%TO.N,Net-(JP7-A)*%
X155710000Y-74620000D02*
X160440000Y-74620000D01*
X153100000Y-77230000D02*
X155710000Y-74620000D01*
X142820000Y-77260000D02*
X142850000Y-77230000D01*
X142850000Y-77230000D02*
X153100000Y-77230000D01*
D31*
%TO.N,VDD*%
X126790000Y-70870000D02*
X125150000Y-72510000D01*
X146970000Y-70870000D02*
X126790000Y-70870000D01*
X151770000Y-75670000D02*
X146970000Y-70870000D01*
X125150000Y-72510000D02*
X119510000Y-72510000D01*
X158010000Y-87180000D02*
X156260000Y-87180000D01*
X158520000Y-82640000D02*
X158520000Y-86670000D01*
X158520000Y-86670000D02*
X158010000Y-87180000D01*
X157860000Y-81980000D02*
X158520000Y-82640000D01*
X151770000Y-81980000D02*
X157860000Y-81980000D01*
D30*
%TO.N,RC6*%
X168170000Y-78350000D02*
X168310000Y-78350000D01*
X165590000Y-75770000D02*
X168170000Y-78350000D01*
D31*
%TO.N,VDD*%
X156260000Y-89720000D02*
X156260000Y-87180000D01*
D30*
%TO.N,Net-(D1-A)*%
X135790000Y-72890000D02*
X127970000Y-72890000D01*
X127970000Y-72890000D02*
X127270000Y-73590000D01*
%TO.N,RB3*%
X146000000Y-100370000D02*
X146000000Y-93470000D01*
%TO.N,RB6*%
X148540000Y-90930000D02*
X146000000Y-90930000D01*
X149290000Y-91680000D02*
X148540000Y-90930000D01*
X149290000Y-97660000D02*
X149290000Y-91680000D01*
X167440000Y-99810000D02*
X151440000Y-99810000D01*
X151440000Y-99810000D02*
X149290000Y-97660000D01*
%TO.N,RB7*%
X150430000Y-96990000D02*
X150430000Y-89320000D01*
X152080000Y-98640000D02*
X150430000Y-96990000D01*
X150430000Y-89320000D02*
X149500000Y-88390000D01*
X169980000Y-98640000D02*
X152080000Y-98640000D01*
X149500000Y-88390000D02*
X146000000Y-88390000D01*
X169990000Y-98630000D02*
X169980000Y-98640000D01*
%TO.N,~{MCLR}*%
X173080000Y-94890000D02*
X173100000Y-94910000D01*
X173080000Y-82170000D02*
X173080000Y-94890000D01*
X171680000Y-80770000D02*
X173080000Y-82170000D01*
X146000000Y-80770000D02*
X171680000Y-80770000D01*
%TO.N,Net-(JP3-A)*%
X200170000Y-84100000D02*
X200170000Y-74690000D01*
X198200000Y-84490000D02*
X199780000Y-84490000D01*
X200170000Y-74690000D02*
X199550000Y-74070000D01*
X199550000Y-74070000D02*
X198210000Y-74070000D01*
X199780000Y-84490000D02*
X200170000Y-84100000D01*
%TO.N,~{MCLR}*%
X174540000Y-93470000D02*
X173100000Y-94910000D01*
X189840000Y-93470000D02*
X174540000Y-93470000D01*
%TO.N,Net-(J2-D+)*%
X115120000Y-94760000D02*
X114020000Y-94760000D01*
X113640000Y-95140000D02*
X113640000Y-98120000D01*
X120410000Y-95250000D02*
X129380000Y-95250000D01*
X129580000Y-95450000D02*
X129580000Y-96660000D01*
X114020000Y-94760000D02*
X113640000Y-95140000D01*
X113640000Y-98120000D02*
X114350000Y-98830000D01*
X119410000Y-98100000D02*
X119410000Y-96250000D01*
X118730000Y-98780000D02*
X119410000Y-98100000D01*
X119410000Y-96250000D02*
X120410000Y-95250000D01*
X118730000Y-98830000D02*
X118730000Y-98780000D01*
X114350000Y-98830000D02*
X118730000Y-98830000D01*
X129380000Y-95250000D02*
X129580000Y-95450000D01*
%TO.N,Net-(J2-D-)*%
X130420000Y-94790000D02*
X117150000Y-94790000D01*
X130850000Y-96670000D02*
X130850000Y-95220000D01*
X117150000Y-94790000D02*
X117120000Y-94760000D01*
X130850000Y-95220000D02*
X130420000Y-94790000D01*
%TO.N,RD2*%
X171510000Y-78330000D02*
X164900000Y-71720000D01*
X164900000Y-71720000D02*
X164900000Y-64620000D01*
%TO.N,RD3*%
X170710000Y-79310000D02*
X162360000Y-70960000D01*
X162360000Y-70960000D02*
X162360000Y-64620000D01*
%TO.N,RD0*%
X169980000Y-73520000D02*
X169980000Y-64620000D01*
X173110000Y-76650000D02*
X169980000Y-73520000D01*
%TO.N,RD1*%
X167440000Y-72680000D02*
X167440000Y-64620000D01*
X172310000Y-77550000D02*
X167440000Y-72680000D01*
%TO.N,RB5*%
X170720000Y-97180000D02*
X170720000Y-93950000D01*
X170720000Y-93950000D02*
X170720000Y-91460000D01*
X172410000Y-98870000D02*
X170720000Y-97180000D01*
X190120000Y-98870000D02*
X172410000Y-98870000D01*
D31*
%TO.N,Net-(JP6-A)*%
X125770000Y-96550000D02*
X125780000Y-96540000D01*
X127180000Y-103860000D02*
X127180000Y-101340000D01*
X127180000Y-101340000D02*
X125770000Y-99930000D01*
X125770000Y-99930000D02*
X125770000Y-96550000D01*
%TO.N,Net-(JP7-A)*%
X132670000Y-102160000D02*
X132670000Y-102140000D01*
X132670000Y-102140000D02*
X127040000Y-96510000D01*
%TD*%
%TA.AperFunction,Conductor*%
%TO.N,+5V*%
G36*
X129553724Y-62640185D02*
G01*
X129599479Y-62692989D01*
X129609423Y-62762147D01*
X129598766Y-62794159D01*
X129599303Y-62794359D01*
X129545908Y-62937517D01*
X129539501Y-62997116D01*
X129539501Y-62997123D01*
X129539500Y-62997135D01*
X129539500Y-64892870D01*
X129539501Y-64892876D01*
X129545908Y-64952483D01*
X129596202Y-65087328D01*
X129596206Y-65087335D01*
X129682452Y-65202544D01*
X129682455Y-65202547D01*
X129797664Y-65288793D01*
X129797673Y-65288798D01*
X129877904Y-65318722D01*
X129933838Y-65360593D01*
X129958256Y-65426057D01*
X129943405Y-65494330D01*
X129925802Y-65518886D01*
X129831019Y-65621849D01*
X129704075Y-65816151D01*
X129610842Y-66028699D01*
X129553866Y-66253691D01*
X129553864Y-66253702D01*
X129534700Y-66484993D01*
X129534700Y-66485006D01*
X129553864Y-66716297D01*
X129553866Y-66716308D01*
X129610842Y-66941300D01*
X129704075Y-67153848D01*
X129831016Y-67348147D01*
X129831019Y-67348151D01*
X129831021Y-67348153D01*
X129988216Y-67518913D01*
X129988219Y-67518915D01*
X129988222Y-67518918D01*
X130171365Y-67661464D01*
X130171371Y-67661468D01*
X130171374Y-67661470D01*
X130375497Y-67771936D01*
X130489487Y-67811068D01*
X130595015Y-67847297D01*
X130595017Y-67847297D01*
X130595019Y-67847298D01*
X130823951Y-67885500D01*
X130823952Y-67885500D01*
X131056048Y-67885500D01*
X131056049Y-67885500D01*
X131284981Y-67847298D01*
X131504503Y-67771936D01*
X131708626Y-67661470D01*
X131891784Y-67518913D01*
X132048979Y-67348153D01*
X132175924Y-67153849D01*
X132269157Y-66941300D01*
X132326134Y-66716305D01*
X132330438Y-66664364D01*
X132345300Y-66485006D01*
X132345300Y-66484993D01*
X132326135Y-66253702D01*
X132326133Y-66253691D01*
X132269157Y-66028699D01*
X132175924Y-65816151D01*
X132048983Y-65621852D01*
X132048980Y-65621849D01*
X132048979Y-65621847D01*
X131954195Y-65518884D01*
X131923275Y-65456232D01*
X131931135Y-65386806D01*
X131975283Y-65332651D01*
X132002095Y-65318722D01*
X132082326Y-65288798D01*
X132082326Y-65288797D01*
X132082331Y-65288796D01*
X132197546Y-65202546D01*
X132283796Y-65087331D01*
X132334091Y-64952483D01*
X132340500Y-64892873D01*
X132340499Y-62997128D01*
X132334091Y-62937517D01*
X132301729Y-62850750D01*
X132280697Y-62794359D01*
X132282275Y-62793770D01*
X132269630Y-62735662D01*
X132294043Y-62670196D01*
X132349974Y-62628321D01*
X132393315Y-62620500D01*
X196752949Y-62620500D01*
X196819988Y-62640185D01*
X196865743Y-62692989D01*
X196875687Y-62762147D01*
X196846662Y-62825703D01*
X196816880Y-62850748D01*
X196595080Y-62984201D01*
X196578075Y-62997128D01*
X196310171Y-63200782D01*
X196310162Y-63200790D01*
X196050330Y-63446915D01*
X195818640Y-63719681D01*
X195818633Y-63719691D01*
X195617789Y-64015914D01*
X195617783Y-64015923D01*
X195450150Y-64332112D01*
X195450141Y-64332130D01*
X195317673Y-64664601D01*
X195317671Y-64664608D01*
X195221931Y-65009435D01*
X195221925Y-65009461D01*
X195164028Y-65362615D01*
X195164027Y-65362632D01*
X195145067Y-65712335D01*
X195144651Y-65720001D01*
X195158232Y-65970498D01*
X195164027Y-66077369D01*
X195164028Y-66077386D01*
X195221925Y-66430540D01*
X195221931Y-66430566D01*
X195317671Y-66775393D01*
X195317673Y-66775400D01*
X195450141Y-67107871D01*
X195450150Y-67107889D01*
X195617783Y-67424078D01*
X195617786Y-67424083D01*
X195617788Y-67424086D01*
X195818633Y-67720311D01*
X195818640Y-67720320D01*
X196013733Y-67950001D01*
X196050331Y-67993087D01*
X196310162Y-68239212D01*
X196595080Y-68455801D01*
X196901746Y-68640316D01*
X196901748Y-68640317D01*
X196901750Y-68640318D01*
X196901754Y-68640320D01*
X197223423Y-68789139D01*
X197226564Y-68790592D01*
X197565725Y-68904869D01*
X197915253Y-68981806D01*
X198271051Y-69020501D01*
X198271057Y-69020501D01*
X198628941Y-69020501D01*
X198628947Y-69020501D01*
X198984745Y-68981806D01*
X199334273Y-68904869D01*
X199673434Y-68790592D01*
X199998252Y-68640316D01*
X200304918Y-68455801D01*
X200589836Y-68239212D01*
X200849667Y-67993087D01*
X201081364Y-67720312D01*
X201282210Y-67424086D01*
X201315945Y-67360454D01*
X201364738Y-67310447D01*
X201432823Y-67294755D01*
X201498583Y-67318365D01*
X201541140Y-67373778D01*
X201549500Y-67418539D01*
X201549500Y-106821459D01*
X201529815Y-106888498D01*
X201477011Y-106934253D01*
X201407853Y-106944197D01*
X201344297Y-106915172D01*
X201315945Y-106879542D01*
X201282215Y-106815923D01*
X201282211Y-106815915D01*
X201081365Y-106519689D01*
X201081361Y-106519684D01*
X201081358Y-106519680D01*
X200849668Y-106246914D01*
X200849667Y-106246913D01*
X200589837Y-106000789D01*
X200589830Y-106000783D01*
X200589827Y-106000781D01*
X200439033Y-105886151D01*
X200304919Y-105784200D01*
X199998253Y-105599685D01*
X199998252Y-105599684D01*
X199998248Y-105599682D01*
X199998244Y-105599680D01*
X199673447Y-105449414D01*
X199673441Y-105449411D01*
X199673435Y-105449409D01*
X199492753Y-105388530D01*
X199334273Y-105335131D01*
X198984744Y-105258194D01*
X198628949Y-105219500D01*
X198628948Y-105219500D01*
X198271052Y-105219500D01*
X198271050Y-105219500D01*
X197915255Y-105258194D01*
X197565726Y-105335131D01*
X197309970Y-105421306D01*
X197226565Y-105449409D01*
X197226563Y-105449410D01*
X197226552Y-105449414D01*
X196901755Y-105599680D01*
X196901751Y-105599682D01*
X196731944Y-105701852D01*
X196595081Y-105784200D01*
X196529052Y-105834394D01*
X196310172Y-106000781D01*
X196310163Y-106000789D01*
X196050331Y-106246914D01*
X195818641Y-106519680D01*
X195818634Y-106519690D01*
X195617790Y-106815913D01*
X195617784Y-106815922D01*
X195450151Y-107132111D01*
X195450142Y-107132129D01*
X195317674Y-107464600D01*
X195317672Y-107464607D01*
X195221932Y-107809434D01*
X195221926Y-107809460D01*
X195164029Y-108162614D01*
X195164028Y-108162627D01*
X195164028Y-108162629D01*
X195158513Y-108264341D01*
X195144652Y-108519997D01*
X195144652Y-108520002D01*
X195145068Y-108527669D01*
X195156142Y-108731930D01*
X195164028Y-108877368D01*
X195164029Y-108877385D01*
X195221926Y-109230539D01*
X195221932Y-109230565D01*
X195317672Y-109575392D01*
X195317674Y-109575399D01*
X195450142Y-109907870D01*
X195450151Y-109907888D01*
X195617784Y-110224077D01*
X195617787Y-110224082D01*
X195617789Y-110224085D01*
X195818634Y-110520310D01*
X195818641Y-110520319D01*
X196050330Y-110793084D01*
X196050332Y-110793086D01*
X196310163Y-111039211D01*
X196595081Y-111255800D01*
X196816877Y-111389250D01*
X196864171Y-111440679D01*
X196876154Y-111509514D01*
X196849019Y-111573899D01*
X196791382Y-111613393D01*
X196752948Y-111619500D01*
X107347051Y-111619500D01*
X107280012Y-111599815D01*
X107234257Y-111547011D01*
X107224313Y-111477853D01*
X107253338Y-111414297D01*
X107283119Y-111389251D01*
X107504920Y-111255799D01*
X107789838Y-111039210D01*
X108049669Y-110793085D01*
X108281366Y-110520310D01*
X108482212Y-110224084D01*
X108649854Y-109907879D01*
X108782325Y-109575402D01*
X108878072Y-109230551D01*
X108923500Y-108953454D01*
X108935971Y-108877384D01*
X108935971Y-108877381D01*
X108935973Y-108877370D01*
X108955349Y-108519999D01*
X108939084Y-108219999D01*
X120514357Y-108219999D01*
X120514357Y-108220000D01*
X120534884Y-108441535D01*
X120534885Y-108441537D01*
X120595769Y-108655523D01*
X120595775Y-108655538D01*
X120694938Y-108854683D01*
X120694943Y-108854691D01*
X120829020Y-109032238D01*
X120993437Y-109182123D01*
X120993439Y-109182125D01*
X121182595Y-109299245D01*
X121182596Y-109299245D01*
X121182599Y-109299247D01*
X121390060Y-109379618D01*
X121608757Y-109420500D01*
X121608759Y-109420500D01*
X121831241Y-109420500D01*
X121831243Y-109420500D01*
X122049940Y-109379618D01*
X122257401Y-109299247D01*
X122446562Y-109182124D01*
X122610981Y-109032236D01*
X122745058Y-108854689D01*
X122844229Y-108655528D01*
X122905115Y-108441536D01*
X122925643Y-108220000D01*
X122920325Y-108162614D01*
X122905115Y-107998464D01*
X122905114Y-107998462D01*
X122892085Y-107952671D01*
X122844229Y-107784472D01*
X122832643Y-107761204D01*
X122745061Y-107585316D01*
X122745056Y-107585308D01*
X122610979Y-107407761D01*
X122446562Y-107257876D01*
X122446560Y-107257874D01*
X122257404Y-107140754D01*
X122257398Y-107140751D01*
X122127967Y-107090610D01*
X122062784Y-107065358D01*
X122007385Y-107022786D01*
X121983794Y-106957019D01*
X121999505Y-106888939D01*
X122049529Y-106840160D01*
X122062786Y-106834105D01*
X122257177Y-106758797D01*
X122257181Y-106758795D01*
X122373326Y-106686879D01*
X122251440Y-106564993D01*
X127554700Y-106564993D01*
X127554700Y-106565006D01*
X127573864Y-106796297D01*
X127573866Y-106796308D01*
X127630842Y-107021300D01*
X127724075Y-107233848D01*
X127851016Y-107428147D01*
X127851019Y-107428151D01*
X127851021Y-107428153D01*
X127945803Y-107531114D01*
X127976724Y-107593767D01*
X127968864Y-107663193D01*
X127924716Y-107717348D01*
X127897906Y-107731277D01*
X127817669Y-107761203D01*
X127817664Y-107761206D01*
X127702455Y-107847452D01*
X127702452Y-107847455D01*
X127616206Y-107962664D01*
X127616202Y-107962671D01*
X127565908Y-108097517D01*
X127560575Y-108147127D01*
X127559501Y-108157123D01*
X127559500Y-108157135D01*
X127559500Y-110052870D01*
X127559501Y-110052876D01*
X127565908Y-110112483D01*
X127616202Y-110247328D01*
X127616206Y-110247335D01*
X127702452Y-110362544D01*
X127702455Y-110362547D01*
X127817664Y-110448793D01*
X127817671Y-110448797D01*
X127952517Y-110499091D01*
X127952516Y-110499091D01*
X127959444Y-110499835D01*
X128012127Y-110505500D01*
X129907872Y-110505499D01*
X129967483Y-110499091D01*
X130102331Y-110448796D01*
X130217546Y-110362546D01*
X130303796Y-110247331D01*
X130354091Y-110112483D01*
X130360500Y-110052873D01*
X130360499Y-108157128D01*
X130354091Y-108097517D01*
X130350361Y-108087517D01*
X130303797Y-107962671D01*
X130303793Y-107962664D01*
X130217547Y-107847455D01*
X130217544Y-107847452D01*
X130102335Y-107761206D01*
X130102328Y-107761202D01*
X130022094Y-107731277D01*
X129966160Y-107689406D01*
X129941743Y-107623941D01*
X129956595Y-107555668D01*
X129974190Y-107531121D01*
X130068979Y-107428153D01*
X130195924Y-107233849D01*
X130289157Y-107021300D01*
X130346134Y-106796305D01*
X130346135Y-106796297D01*
X130365300Y-106565006D01*
X130365300Y-106564993D01*
X130364471Y-106554993D01*
X132684700Y-106554993D01*
X132684700Y-106555006D01*
X132703864Y-106786297D01*
X132703866Y-106786308D01*
X132760842Y-107011300D01*
X132854075Y-107223848D01*
X132981016Y-107418147D01*
X132981019Y-107418151D01*
X132981021Y-107418153D01*
X133075803Y-107521114D01*
X133106724Y-107583767D01*
X133098864Y-107653193D01*
X133054716Y-107707348D01*
X133027906Y-107721277D01*
X132947669Y-107751203D01*
X132947664Y-107751206D01*
X132832455Y-107837452D01*
X132832452Y-107837455D01*
X132746206Y-107952664D01*
X132746202Y-107952671D01*
X132695908Y-108087517D01*
X132689501Y-108147116D01*
X132689501Y-108147123D01*
X132689500Y-108147135D01*
X132689500Y-110042870D01*
X132689501Y-110042876D01*
X132695908Y-110102483D01*
X132746202Y-110237328D01*
X132746206Y-110237335D01*
X132832452Y-110352544D01*
X132832455Y-110352547D01*
X132947664Y-110438793D01*
X132947671Y-110438797D01*
X133082517Y-110489091D01*
X133082516Y-110489091D01*
X133089444Y-110489835D01*
X133142127Y-110495500D01*
X135037872Y-110495499D01*
X135097483Y-110489091D01*
X135232331Y-110438796D01*
X135347546Y-110352546D01*
X135433796Y-110237331D01*
X135484091Y-110102483D01*
X135490500Y-110042873D01*
X135490499Y-108722135D01*
X150849500Y-108722135D01*
X150849500Y-110517870D01*
X150849501Y-110517876D01*
X150855908Y-110577483D01*
X150906202Y-110712328D01*
X150906206Y-110712335D01*
X150992452Y-110827544D01*
X150992455Y-110827547D01*
X151107664Y-110913793D01*
X151107671Y-110913797D01*
X151242517Y-110964091D01*
X151242516Y-110964091D01*
X151249444Y-110964835D01*
X151302127Y-110970500D01*
X153097872Y-110970499D01*
X153157483Y-110964091D01*
X153292331Y-110913796D01*
X153407546Y-110827546D01*
X153493796Y-110712331D01*
X153542810Y-110580916D01*
X153584681Y-110524984D01*
X153650145Y-110500566D01*
X153718418Y-110515417D01*
X153746673Y-110536569D01*
X153868599Y-110658495D01*
X153965384Y-110726265D01*
X154062165Y-110794032D01*
X154062167Y-110794033D01*
X154062170Y-110794035D01*
X154276337Y-110893903D01*
X154504592Y-110955063D01*
X154681034Y-110970500D01*
X154739999Y-110975659D01*
X154740000Y-110975659D01*
X154740001Y-110975659D01*
X154798966Y-110970500D01*
X154975408Y-110955063D01*
X155203663Y-110893903D01*
X155417830Y-110794035D01*
X155611401Y-110658495D01*
X155778495Y-110491401D01*
X155908425Y-110305842D01*
X155963002Y-110262217D01*
X156032500Y-110255023D01*
X156094855Y-110286546D01*
X156111575Y-110305842D01*
X156241500Y-110491395D01*
X156241505Y-110491401D01*
X156408599Y-110658495D01*
X156505384Y-110726265D01*
X156602165Y-110794032D01*
X156602167Y-110794033D01*
X156602170Y-110794035D01*
X156816337Y-110893903D01*
X157044592Y-110955063D01*
X157221034Y-110970500D01*
X157279999Y-110975659D01*
X157280000Y-110975659D01*
X157280001Y-110975659D01*
X157338966Y-110970500D01*
X157515408Y-110955063D01*
X157743663Y-110893903D01*
X157957830Y-110794035D01*
X158151401Y-110658495D01*
X158318495Y-110491401D01*
X158448425Y-110305842D01*
X158503002Y-110262217D01*
X158572500Y-110255023D01*
X158634855Y-110286546D01*
X158651575Y-110305842D01*
X158781500Y-110491395D01*
X158781505Y-110491401D01*
X158948599Y-110658495D01*
X159045384Y-110726265D01*
X159142165Y-110794032D01*
X159142167Y-110794033D01*
X159142170Y-110794035D01*
X159356337Y-110893903D01*
X159584592Y-110955063D01*
X159761034Y-110970500D01*
X159819999Y-110975659D01*
X159820000Y-110975659D01*
X159820001Y-110975659D01*
X159878966Y-110970500D01*
X160055408Y-110955063D01*
X160283663Y-110893903D01*
X160497830Y-110794035D01*
X160691401Y-110658495D01*
X160858495Y-110491401D01*
X160988425Y-110305842D01*
X161043002Y-110262217D01*
X161112500Y-110255023D01*
X161174855Y-110286546D01*
X161191575Y-110305842D01*
X161321500Y-110491395D01*
X161321505Y-110491401D01*
X161488599Y-110658495D01*
X161585384Y-110726265D01*
X161682165Y-110794032D01*
X161682167Y-110794033D01*
X161682170Y-110794035D01*
X161896337Y-110893903D01*
X162124592Y-110955063D01*
X162301034Y-110970500D01*
X162359999Y-110975659D01*
X162360000Y-110975659D01*
X162360001Y-110975659D01*
X162418966Y-110970500D01*
X162595408Y-110955063D01*
X162823663Y-110893903D01*
X163037830Y-110794035D01*
X163231401Y-110658495D01*
X163398495Y-110491401D01*
X163528425Y-110305842D01*
X163583002Y-110262217D01*
X163652500Y-110255023D01*
X163714855Y-110286546D01*
X163731575Y-110305842D01*
X163861500Y-110491395D01*
X163861505Y-110491401D01*
X164028599Y-110658495D01*
X164125384Y-110726265D01*
X164222165Y-110794032D01*
X164222167Y-110794033D01*
X164222170Y-110794035D01*
X164436337Y-110893903D01*
X164664592Y-110955063D01*
X164841034Y-110970500D01*
X164899999Y-110975659D01*
X164900000Y-110975659D01*
X164900001Y-110975659D01*
X164958966Y-110970500D01*
X165135408Y-110955063D01*
X165363663Y-110893903D01*
X165577830Y-110794035D01*
X165771401Y-110658495D01*
X165938495Y-110491401D01*
X166068425Y-110305842D01*
X166123002Y-110262217D01*
X166192500Y-110255023D01*
X166254855Y-110286546D01*
X166271575Y-110305842D01*
X166401500Y-110491395D01*
X166401505Y-110491401D01*
X166568599Y-110658495D01*
X166665384Y-110726265D01*
X166762165Y-110794032D01*
X166762167Y-110794033D01*
X166762170Y-110794035D01*
X166976337Y-110893903D01*
X167204592Y-110955063D01*
X167381034Y-110970500D01*
X167439999Y-110975659D01*
X167440000Y-110975659D01*
X167440001Y-110975659D01*
X167498966Y-110970500D01*
X167675408Y-110955063D01*
X167903663Y-110893903D01*
X168117830Y-110794035D01*
X168311401Y-110658495D01*
X168478495Y-110491401D01*
X168608425Y-110305842D01*
X168663002Y-110262217D01*
X168732500Y-110255023D01*
X168794855Y-110286546D01*
X168811575Y-110305842D01*
X168941500Y-110491395D01*
X168941505Y-110491401D01*
X169108599Y-110658495D01*
X169205384Y-110726265D01*
X169302165Y-110794032D01*
X169302167Y-110794033D01*
X169302170Y-110794035D01*
X169516337Y-110893903D01*
X169744592Y-110955063D01*
X169921034Y-110970500D01*
X169979999Y-110975659D01*
X169980000Y-110975659D01*
X169980001Y-110975659D01*
X170038966Y-110970500D01*
X170215408Y-110955063D01*
X170443663Y-110893903D01*
X170657830Y-110794035D01*
X170851401Y-110658495D01*
X171018495Y-110491401D01*
X171154035Y-110297830D01*
X171253903Y-110083663D01*
X171315063Y-109855408D01*
X171335659Y-109620000D01*
X171315063Y-109384592D01*
X171253903Y-109156337D01*
X171154035Y-108942171D01*
X171148425Y-108934158D01*
X171018494Y-108748597D01*
X170992032Y-108722135D01*
X173449500Y-108722135D01*
X173449500Y-110517870D01*
X173449501Y-110517876D01*
X173455908Y-110577483D01*
X173506202Y-110712328D01*
X173506206Y-110712335D01*
X173592452Y-110827544D01*
X173592455Y-110827547D01*
X173707664Y-110913793D01*
X173707671Y-110913797D01*
X173842517Y-110964091D01*
X173842516Y-110964091D01*
X173849444Y-110964835D01*
X173902127Y-110970500D01*
X175697872Y-110970499D01*
X175757483Y-110964091D01*
X175892331Y-110913796D01*
X176007546Y-110827546D01*
X176093796Y-110712331D01*
X176142810Y-110580916D01*
X176184681Y-110524984D01*
X176250145Y-110500566D01*
X176318418Y-110515417D01*
X176346673Y-110536569D01*
X176468599Y-110658495D01*
X176565384Y-110726265D01*
X176662165Y-110794032D01*
X176662167Y-110794033D01*
X176662170Y-110794035D01*
X176876337Y-110893903D01*
X177104592Y-110955063D01*
X177281034Y-110970500D01*
X177339999Y-110975659D01*
X177340000Y-110975659D01*
X177340001Y-110975659D01*
X177398966Y-110970500D01*
X177575408Y-110955063D01*
X177803663Y-110893903D01*
X178017830Y-110794035D01*
X178211401Y-110658495D01*
X178378495Y-110491401D01*
X178508425Y-110305842D01*
X178563002Y-110262217D01*
X178632500Y-110255023D01*
X178694855Y-110286546D01*
X178711575Y-110305842D01*
X178841500Y-110491395D01*
X178841505Y-110491401D01*
X179008599Y-110658495D01*
X179105384Y-110726265D01*
X179202165Y-110794032D01*
X179202167Y-110794033D01*
X179202170Y-110794035D01*
X179416337Y-110893903D01*
X179644592Y-110955063D01*
X179821034Y-110970500D01*
X179879999Y-110975659D01*
X179880000Y-110975659D01*
X179880001Y-110975659D01*
X179938966Y-110970500D01*
X180115408Y-110955063D01*
X180343663Y-110893903D01*
X180557830Y-110794035D01*
X180751401Y-110658495D01*
X180918495Y-110491401D01*
X181048425Y-110305842D01*
X181103002Y-110262217D01*
X181172500Y-110255023D01*
X181234855Y-110286546D01*
X181251575Y-110305842D01*
X181381500Y-110491395D01*
X181381505Y-110491401D01*
X181548599Y-110658495D01*
X181645384Y-110726265D01*
X181742165Y-110794032D01*
X181742167Y-110794033D01*
X181742170Y-110794035D01*
X181956337Y-110893903D01*
X182184592Y-110955063D01*
X182361034Y-110970500D01*
X182419999Y-110975659D01*
X182420000Y-110975659D01*
X182420001Y-110975659D01*
X182478966Y-110970500D01*
X182655408Y-110955063D01*
X182883663Y-110893903D01*
X183097830Y-110794035D01*
X183291401Y-110658495D01*
X183458495Y-110491401D01*
X183588425Y-110305842D01*
X183643002Y-110262217D01*
X183712500Y-110255023D01*
X183774855Y-110286546D01*
X183791575Y-110305842D01*
X183921500Y-110491395D01*
X183921505Y-110491401D01*
X184088599Y-110658495D01*
X184185384Y-110726265D01*
X184282165Y-110794032D01*
X184282167Y-110794033D01*
X184282170Y-110794035D01*
X184496337Y-110893903D01*
X184724592Y-110955063D01*
X184901034Y-110970500D01*
X184959999Y-110975659D01*
X184960000Y-110975659D01*
X184960001Y-110975659D01*
X185018966Y-110970500D01*
X185195408Y-110955063D01*
X185423663Y-110893903D01*
X185637830Y-110794035D01*
X185831401Y-110658495D01*
X185998495Y-110491401D01*
X186128425Y-110305842D01*
X186183002Y-110262217D01*
X186252500Y-110255023D01*
X186314855Y-110286546D01*
X186331575Y-110305842D01*
X186461500Y-110491395D01*
X186461505Y-110491401D01*
X186628599Y-110658495D01*
X186725384Y-110726265D01*
X186822165Y-110794032D01*
X186822167Y-110794033D01*
X186822170Y-110794035D01*
X187036337Y-110893903D01*
X187264592Y-110955063D01*
X187441034Y-110970500D01*
X187499999Y-110975659D01*
X187500000Y-110975659D01*
X187500001Y-110975659D01*
X187558966Y-110970500D01*
X187735408Y-110955063D01*
X187963663Y-110893903D01*
X188177830Y-110794035D01*
X188371401Y-110658495D01*
X188538495Y-110491401D01*
X188674035Y-110297830D01*
X188773903Y-110083663D01*
X188835063Y-109855408D01*
X188855659Y-109620000D01*
X188835063Y-109384592D01*
X188773903Y-109156337D01*
X188674035Y-108942171D01*
X188668425Y-108934158D01*
X188538494Y-108748597D01*
X188371402Y-108581506D01*
X188371395Y-108581501D01*
X188177834Y-108445967D01*
X188177830Y-108445965D01*
X188168330Y-108441535D01*
X187963663Y-108346097D01*
X187963659Y-108346096D01*
X187963655Y-108346094D01*
X187735413Y-108284938D01*
X187735403Y-108284936D01*
X187500001Y-108264341D01*
X187499999Y-108264341D01*
X187264596Y-108284936D01*
X187264586Y-108284938D01*
X187036344Y-108346094D01*
X187036335Y-108346098D01*
X186822171Y-108445964D01*
X186822169Y-108445965D01*
X186628597Y-108581505D01*
X186461505Y-108748597D01*
X186331575Y-108934158D01*
X186276998Y-108977783D01*
X186207500Y-108984977D01*
X186145145Y-108953454D01*
X186128425Y-108934158D01*
X185998494Y-108748597D01*
X185831402Y-108581506D01*
X185831395Y-108581501D01*
X185637834Y-108445967D01*
X185637830Y-108445965D01*
X185628330Y-108441535D01*
X185423663Y-108346097D01*
X185423659Y-108346096D01*
X185423655Y-108346094D01*
X185195413Y-108284938D01*
X185195403Y-108284936D01*
X184960001Y-108264341D01*
X184959999Y-108264341D01*
X184724596Y-108284936D01*
X184724586Y-108284938D01*
X184496344Y-108346094D01*
X184496335Y-108346098D01*
X184282171Y-108445964D01*
X184282169Y-108445965D01*
X184088597Y-108581505D01*
X183921505Y-108748597D01*
X183791575Y-108934158D01*
X183736998Y-108977783D01*
X183667500Y-108984977D01*
X183605145Y-108953454D01*
X183588425Y-108934158D01*
X183458494Y-108748597D01*
X183291402Y-108581506D01*
X183291395Y-108581501D01*
X183097834Y-108445967D01*
X183097830Y-108445965D01*
X183088330Y-108441535D01*
X182883663Y-108346097D01*
X182883659Y-108346096D01*
X182883655Y-108346094D01*
X182655413Y-108284938D01*
X182655403Y-108284936D01*
X182420001Y-108264341D01*
X182419999Y-108264341D01*
X182184596Y-108284936D01*
X182184586Y-108284938D01*
X181956344Y-108346094D01*
X181956335Y-108346098D01*
X181742171Y-108445964D01*
X181742169Y-108445965D01*
X181548597Y-108581505D01*
X181381505Y-108748597D01*
X181251575Y-108934158D01*
X181196998Y-108977783D01*
X181127500Y-108984977D01*
X181065145Y-108953454D01*
X181048425Y-108934158D01*
X180918494Y-108748597D01*
X180751402Y-108581506D01*
X180751395Y-108581501D01*
X180557834Y-108445967D01*
X180557830Y-108445965D01*
X180548330Y-108441535D01*
X180343663Y-108346097D01*
X180343659Y-108346096D01*
X180343655Y-108346094D01*
X180115413Y-108284938D01*
X180115403Y-108284936D01*
X179880001Y-108264341D01*
X179879999Y-108264341D01*
X179644596Y-108284936D01*
X179644586Y-108284938D01*
X179416344Y-108346094D01*
X179416335Y-108346098D01*
X179202171Y-108445964D01*
X179202169Y-108445965D01*
X179008597Y-108581505D01*
X178841505Y-108748597D01*
X178711575Y-108934158D01*
X178656998Y-108977783D01*
X178587500Y-108984977D01*
X178525145Y-108953454D01*
X178508425Y-108934158D01*
X178378494Y-108748597D01*
X178211402Y-108581506D01*
X178211395Y-108581501D01*
X178017834Y-108445967D01*
X178017830Y-108445965D01*
X178008330Y-108441535D01*
X177803663Y-108346097D01*
X177803659Y-108346096D01*
X177803655Y-108346094D01*
X177575413Y-108284938D01*
X177575403Y-108284936D01*
X177340001Y-108264341D01*
X177339999Y-108264341D01*
X177104596Y-108284936D01*
X177104586Y-108284938D01*
X176876344Y-108346094D01*
X176876335Y-108346098D01*
X176662171Y-108445964D01*
X176662169Y-108445965D01*
X176468600Y-108581503D01*
X176346673Y-108703430D01*
X176285350Y-108736914D01*
X176215658Y-108731930D01*
X176159725Y-108690058D01*
X176142810Y-108659081D01*
X176093797Y-108527671D01*
X176093793Y-108527664D01*
X176007547Y-108412455D01*
X176007544Y-108412452D01*
X175892335Y-108326206D01*
X175892328Y-108326202D01*
X175757482Y-108275908D01*
X175757483Y-108275908D01*
X175697883Y-108269501D01*
X175697881Y-108269500D01*
X175697873Y-108269500D01*
X175697864Y-108269500D01*
X173902129Y-108269500D01*
X173902123Y-108269501D01*
X173842516Y-108275908D01*
X173707671Y-108326202D01*
X173707664Y-108326206D01*
X173592455Y-108412452D01*
X173592452Y-108412455D01*
X173506206Y-108527664D01*
X173506202Y-108527671D01*
X173455908Y-108662517D01*
X173449501Y-108722116D01*
X173449500Y-108722135D01*
X170992032Y-108722135D01*
X170851402Y-108581506D01*
X170851395Y-108581501D01*
X170657834Y-108445967D01*
X170657830Y-108445965D01*
X170648330Y-108441535D01*
X170443663Y-108346097D01*
X170443659Y-108346096D01*
X170443655Y-108346094D01*
X170215413Y-108284938D01*
X170215403Y-108284936D01*
X169980001Y-108264341D01*
X169979999Y-108264341D01*
X169744596Y-108284936D01*
X169744586Y-108284938D01*
X169516344Y-108346094D01*
X169516335Y-108346098D01*
X169302171Y-108445964D01*
X169302169Y-108445965D01*
X169108597Y-108581505D01*
X168941505Y-108748597D01*
X168811575Y-108934158D01*
X168756998Y-108977783D01*
X168687500Y-108984977D01*
X168625145Y-108953454D01*
X168608425Y-108934158D01*
X168478494Y-108748597D01*
X168311402Y-108581506D01*
X168311395Y-108581501D01*
X168117834Y-108445967D01*
X168117830Y-108445965D01*
X168108330Y-108441535D01*
X167903663Y-108346097D01*
X167903659Y-108346096D01*
X167903655Y-108346094D01*
X167675413Y-108284938D01*
X167675403Y-108284936D01*
X167440001Y-108264341D01*
X167439999Y-108264341D01*
X167204596Y-108284936D01*
X167204586Y-108284938D01*
X166976344Y-108346094D01*
X166976335Y-108346098D01*
X166762171Y-108445964D01*
X166762169Y-108445965D01*
X166568597Y-108581505D01*
X166401505Y-108748597D01*
X166271575Y-108934158D01*
X166216998Y-108977783D01*
X166147500Y-108984977D01*
X166085145Y-108953454D01*
X166068425Y-108934158D01*
X165938494Y-108748597D01*
X165771402Y-108581506D01*
X165771395Y-108581501D01*
X165577834Y-108445967D01*
X165577830Y-108445965D01*
X165568330Y-108441535D01*
X165363663Y-108346097D01*
X165363659Y-108346096D01*
X165363655Y-108346094D01*
X165135413Y-108284938D01*
X165135403Y-108284936D01*
X164900001Y-108264341D01*
X164899999Y-108264341D01*
X164664596Y-108284936D01*
X164664586Y-108284938D01*
X164436344Y-108346094D01*
X164436335Y-108346098D01*
X164222171Y-108445964D01*
X164222169Y-108445965D01*
X164028597Y-108581505D01*
X163861505Y-108748597D01*
X163731575Y-108934158D01*
X163676998Y-108977783D01*
X163607500Y-108984977D01*
X163545145Y-108953454D01*
X163528425Y-108934158D01*
X163398494Y-108748597D01*
X163231402Y-108581506D01*
X163231395Y-108581501D01*
X163037834Y-108445967D01*
X163037830Y-108445965D01*
X163028330Y-108441535D01*
X162823663Y-108346097D01*
X162823659Y-108346096D01*
X162823655Y-108346094D01*
X162595413Y-108284938D01*
X162595403Y-108284936D01*
X162360001Y-108264341D01*
X162359999Y-108264341D01*
X162124596Y-108284936D01*
X162124586Y-108284938D01*
X161896344Y-108346094D01*
X161896335Y-108346098D01*
X161682171Y-108445964D01*
X161682169Y-108445965D01*
X161488597Y-108581505D01*
X161321505Y-108748597D01*
X161191575Y-108934158D01*
X161136998Y-108977783D01*
X161067500Y-108984977D01*
X161005145Y-108953454D01*
X160988425Y-108934158D01*
X160858494Y-108748597D01*
X160691402Y-108581506D01*
X160691395Y-108581501D01*
X160497834Y-108445967D01*
X160497830Y-108445965D01*
X160488330Y-108441535D01*
X160283663Y-108346097D01*
X160283659Y-108346096D01*
X160283655Y-108346094D01*
X160055413Y-108284938D01*
X160055403Y-108284936D01*
X159820001Y-108264341D01*
X159819999Y-108264341D01*
X159584596Y-108284936D01*
X159584586Y-108284938D01*
X159356344Y-108346094D01*
X159356335Y-108346098D01*
X159142171Y-108445964D01*
X159142169Y-108445965D01*
X158948597Y-108581505D01*
X158781505Y-108748597D01*
X158651575Y-108934158D01*
X158596998Y-108977783D01*
X158527500Y-108984977D01*
X158465145Y-108953454D01*
X158448425Y-108934158D01*
X158318494Y-108748597D01*
X158151402Y-108581506D01*
X158151395Y-108581501D01*
X157957834Y-108445967D01*
X157957830Y-108445965D01*
X157948330Y-108441535D01*
X157743663Y-108346097D01*
X157743659Y-108346096D01*
X157743655Y-108346094D01*
X157515413Y-108284938D01*
X157515403Y-108284936D01*
X157280001Y-108264341D01*
X157279999Y-108264341D01*
X157044596Y-108284936D01*
X157044586Y-108284938D01*
X156816344Y-108346094D01*
X156816335Y-108346098D01*
X156602171Y-108445964D01*
X156602169Y-108445965D01*
X156408597Y-108581505D01*
X156241505Y-108748597D01*
X156111575Y-108934158D01*
X156056998Y-108977783D01*
X155987500Y-108984977D01*
X155925145Y-108953454D01*
X155908425Y-108934158D01*
X155778494Y-108748597D01*
X155611402Y-108581506D01*
X155611395Y-108581501D01*
X155417834Y-108445967D01*
X155417830Y-108445965D01*
X155408330Y-108441535D01*
X155203663Y-108346097D01*
X155203659Y-108346096D01*
X155203655Y-108346094D01*
X154975413Y-108284938D01*
X154975403Y-108284936D01*
X154740001Y-108264341D01*
X154739999Y-108264341D01*
X154504596Y-108284936D01*
X154504586Y-108284938D01*
X154276344Y-108346094D01*
X154276335Y-108346098D01*
X154062171Y-108445964D01*
X154062169Y-108445965D01*
X153868600Y-108581503D01*
X153746673Y-108703430D01*
X153685350Y-108736914D01*
X153615658Y-108731930D01*
X153559725Y-108690058D01*
X153542810Y-108659081D01*
X153493797Y-108527671D01*
X153493793Y-108527664D01*
X153407547Y-108412455D01*
X153407544Y-108412452D01*
X153292335Y-108326206D01*
X153292328Y-108326202D01*
X153157482Y-108275908D01*
X153157483Y-108275908D01*
X153097883Y-108269501D01*
X153097881Y-108269500D01*
X153097873Y-108269500D01*
X153097864Y-108269500D01*
X151302129Y-108269500D01*
X151302123Y-108269501D01*
X151242516Y-108275908D01*
X151107671Y-108326202D01*
X151107664Y-108326206D01*
X150992455Y-108412452D01*
X150992452Y-108412455D01*
X150906206Y-108527664D01*
X150906202Y-108527671D01*
X150855908Y-108662517D01*
X150849501Y-108722116D01*
X150849500Y-108722135D01*
X135490499Y-108722135D01*
X135490499Y-108147128D01*
X135484091Y-108087517D01*
X135450876Y-107998464D01*
X135433797Y-107952671D01*
X135433793Y-107952664D01*
X135347547Y-107837455D01*
X135347544Y-107837452D01*
X135232335Y-107751206D01*
X135232328Y-107751202D01*
X135152094Y-107721277D01*
X135096160Y-107679406D01*
X135071743Y-107613941D01*
X135086595Y-107545668D01*
X135104190Y-107521121D01*
X135198979Y-107418153D01*
X135325924Y-107223849D01*
X135419157Y-107011300D01*
X135476134Y-106786305D01*
X135476135Y-106786297D01*
X135495300Y-106555006D01*
X135495300Y-106554993D01*
X135476135Y-106323702D01*
X135476133Y-106323691D01*
X135419157Y-106098699D01*
X135325924Y-105886151D01*
X135198983Y-105691852D01*
X135198980Y-105691849D01*
X135198979Y-105691847D01*
X135041784Y-105521087D01*
X135041779Y-105521083D01*
X135041777Y-105521081D01*
X134858634Y-105378535D01*
X134858628Y-105378531D01*
X134654504Y-105268064D01*
X134654495Y-105268061D01*
X134434984Y-105192702D01*
X134263282Y-105164050D01*
X134206049Y-105154500D01*
X133973951Y-105154500D01*
X133928164Y-105162140D01*
X133745015Y-105192702D01*
X133525504Y-105268061D01*
X133525495Y-105268064D01*
X133321371Y-105378531D01*
X133321365Y-105378535D01*
X133138222Y-105521081D01*
X133138219Y-105521084D01*
X133138216Y-105521086D01*
X133138216Y-105521087D01*
X133079267Y-105585122D01*
X132981016Y-105691852D01*
X132854075Y-105886151D01*
X132760842Y-106098699D01*
X132703866Y-106323691D01*
X132703864Y-106323702D01*
X132684700Y-106554993D01*
X130364471Y-106554993D01*
X130346135Y-106333702D01*
X130346133Y-106333691D01*
X130289157Y-106108699D01*
X130195924Y-105896151D01*
X130068983Y-105701852D01*
X130068980Y-105701849D01*
X130068979Y-105701847D01*
X129911784Y-105531087D01*
X129911779Y-105531083D01*
X129911777Y-105531081D01*
X129728634Y-105388535D01*
X129728628Y-105388531D01*
X129524504Y-105278064D01*
X129524495Y-105278061D01*
X129304984Y-105202702D01*
X129133282Y-105174050D01*
X129076049Y-105164500D01*
X128843951Y-105164500D01*
X128798164Y-105172140D01*
X128615015Y-105202702D01*
X128395504Y-105278061D01*
X128395495Y-105278064D01*
X128191371Y-105388531D01*
X128191365Y-105388535D01*
X128008222Y-105531081D01*
X128008219Y-105531084D01*
X127851016Y-105701852D01*
X127724075Y-105896151D01*
X127630842Y-106108699D01*
X127573866Y-106333691D01*
X127573864Y-106333702D01*
X127554700Y-106564993D01*
X122251440Y-106564993D01*
X121766448Y-106080000D01*
X121772661Y-106080000D01*
X121874394Y-106052741D01*
X121965606Y-106000080D01*
X122040080Y-105925606D01*
X122092741Y-105834394D01*
X122120000Y-105732661D01*
X122120000Y-105726447D01*
X122728861Y-106335308D01*
X122744631Y-106314425D01*
X122744633Y-106314422D01*
X122843759Y-106115350D01*
X122904621Y-105901439D01*
X122925141Y-105680000D01*
X122925141Y-105679999D01*
X122904621Y-105458560D01*
X122843759Y-105244649D01*
X122744635Y-105045580D01*
X122744630Y-105045572D01*
X122728860Y-105024690D01*
X122120000Y-105633551D01*
X122120000Y-105627339D01*
X122092741Y-105525606D01*
X122040080Y-105434394D01*
X121965606Y-105359920D01*
X121874394Y-105307259D01*
X121772661Y-105280000D01*
X121766448Y-105280000D01*
X122373327Y-104673119D01*
X122257178Y-104601202D01*
X122257177Y-104601201D01*
X122049804Y-104520865D01*
X121831193Y-104480000D01*
X121608807Y-104480000D01*
X121390195Y-104520865D01*
X121182824Y-104601200D01*
X121182823Y-104601201D01*
X121066671Y-104673119D01*
X121673553Y-105280000D01*
X121667339Y-105280000D01*
X121565606Y-105307259D01*
X121474394Y-105359920D01*
X121399920Y-105434394D01*
X121347259Y-105525606D01*
X121320000Y-105627339D01*
X121320000Y-105633553D01*
X120711138Y-105024691D01*
X120711137Y-105024691D01*
X120695368Y-105045574D01*
X120596240Y-105244649D01*
X120535378Y-105458560D01*
X120514859Y-105679999D01*
X120514859Y-105680000D01*
X120535378Y-105901439D01*
X120596240Y-106115350D01*
X120695369Y-106314428D01*
X120711137Y-106335308D01*
X120711138Y-106335308D01*
X121320000Y-105726446D01*
X121320000Y-105732661D01*
X121347259Y-105834394D01*
X121399920Y-105925606D01*
X121474394Y-106000080D01*
X121565606Y-106052741D01*
X121667339Y-106080000D01*
X121673553Y-106080000D01*
X121066672Y-106686879D01*
X121066672Y-106686880D01*
X121182821Y-106758797D01*
X121182822Y-106758798D01*
X121377213Y-106834105D01*
X121432614Y-106876678D01*
X121456205Y-106942445D01*
X121440494Y-107010525D01*
X121390470Y-107059304D01*
X121377213Y-107065359D01*
X121182601Y-107140751D01*
X121182595Y-107140754D01*
X120993439Y-107257874D01*
X120993437Y-107257876D01*
X120829020Y-107407761D01*
X120694943Y-107585308D01*
X120694938Y-107585316D01*
X120595775Y-107784461D01*
X120595769Y-107784476D01*
X120534885Y-107998462D01*
X120534884Y-107998464D01*
X120514357Y-108219999D01*
X108939084Y-108219999D01*
X108935973Y-108162628D01*
X108935072Y-108157135D01*
X108878074Y-107809459D01*
X108878073Y-107809458D01*
X108878072Y-107809447D01*
X108837465Y-107663193D01*
X108782328Y-107464606D01*
X108782326Y-107464599D01*
X108649858Y-107132128D01*
X108649849Y-107132110D01*
X108482216Y-106815921D01*
X108482214Y-106815918D01*
X108482212Y-106815914D01*
X108281366Y-106519688D01*
X108281362Y-106519683D01*
X108281359Y-106519679D01*
X108049669Y-106246913D01*
X107789838Y-106000788D01*
X107789829Y-106000781D01*
X107789828Y-106000780D01*
X107690938Y-105925606D01*
X107504920Y-105784199D01*
X107198254Y-105599684D01*
X107198253Y-105599683D01*
X107198249Y-105599681D01*
X107198245Y-105599679D01*
X106873448Y-105449413D01*
X106873442Y-105449410D01*
X106873436Y-105449408D01*
X106692757Y-105388530D01*
X106534274Y-105335130D01*
X106184745Y-105258193D01*
X105828950Y-105219499D01*
X105828949Y-105219499D01*
X105471053Y-105219499D01*
X105471051Y-105219499D01*
X105115256Y-105258193D01*
X104765727Y-105335130D01*
X104509971Y-105421305D01*
X104426566Y-105449408D01*
X104426564Y-105449409D01*
X104426553Y-105449413D01*
X104101756Y-105599679D01*
X104101752Y-105599681D01*
X103880739Y-105732661D01*
X103795082Y-105784199D01*
X103795081Y-105784200D01*
X103510173Y-106000780D01*
X103510164Y-106000788D01*
X103250332Y-106246913D01*
X103018642Y-106519679D01*
X103018635Y-106519689D01*
X102817791Y-106815912D01*
X102817785Y-106815922D01*
X102784055Y-106879543D01*
X102735261Y-106929553D01*
X102667176Y-106945244D01*
X102601417Y-106921634D01*
X102558860Y-106866220D01*
X102550500Y-106821460D01*
X102550500Y-102009994D01*
X109754556Y-102009994D01*
X109754556Y-102010005D01*
X109774310Y-102324004D01*
X109774311Y-102324011D01*
X109791153Y-102412297D01*
X109809699Y-102509523D01*
X109833270Y-102633083D01*
X109930497Y-102932316D01*
X109930499Y-102932321D01*
X110064461Y-103217003D01*
X110064464Y-103217009D01*
X110233051Y-103482661D01*
X110233054Y-103482665D01*
X110433606Y-103725090D01*
X110433608Y-103725092D01*
X110662968Y-103940476D01*
X110662978Y-103940484D01*
X110917504Y-104125408D01*
X110917509Y-104125410D01*
X110917516Y-104125416D01*
X111193234Y-104276994D01*
X111193239Y-104276996D01*
X111193241Y-104276997D01*
X111193242Y-104276998D01*
X111485771Y-104392818D01*
X111485774Y-104392819D01*
X111790523Y-104471065D01*
X111790527Y-104471066D01*
X111856010Y-104479338D01*
X112102670Y-104510499D01*
X112102679Y-104510499D01*
X112102682Y-104510500D01*
X112102684Y-104510500D01*
X112417316Y-104510500D01*
X112417318Y-104510500D01*
X112417321Y-104510499D01*
X112417329Y-104510499D01*
X112658752Y-104480000D01*
X112729473Y-104471066D01*
X113034225Y-104392819D01*
X113034228Y-104392818D01*
X113326757Y-104276998D01*
X113326758Y-104276997D01*
X113326756Y-104276997D01*
X113326766Y-104276994D01*
X113602484Y-104125416D01*
X113857030Y-103940478D01*
X114086390Y-103725094D01*
X114286947Y-103482663D01*
X114455537Y-103217007D01*
X114589503Y-102932315D01*
X114686731Y-102633079D01*
X114745688Y-102324015D01*
X114746724Y-102307546D01*
X114765444Y-102010005D01*
X114765444Y-102009994D01*
X114745689Y-101695995D01*
X114745688Y-101695988D01*
X114745688Y-101695985D01*
X114686731Y-101386921D01*
X114589503Y-101087685D01*
X114571766Y-101049993D01*
X114477902Y-100850521D01*
X114455537Y-100802993D01*
X114358328Y-100649815D01*
X114286948Y-100537338D01*
X114286945Y-100537334D01*
X114086393Y-100294909D01*
X114086391Y-100294907D01*
X114021067Y-100233563D01*
X113857030Y-100079522D01*
X113857027Y-100079520D01*
X113857021Y-100079515D01*
X113602495Y-99894591D01*
X113602488Y-99894586D01*
X113602484Y-99894584D01*
X113326766Y-99743006D01*
X113326763Y-99743004D01*
X113326758Y-99743002D01*
X113326757Y-99743001D01*
X113034228Y-99627181D01*
X113034225Y-99627180D01*
X112729476Y-99548934D01*
X112729463Y-99548932D01*
X112417329Y-99509500D01*
X112417318Y-99509500D01*
X112102682Y-99509500D01*
X112102670Y-99509500D01*
X111790536Y-99548932D01*
X111790523Y-99548934D01*
X111485774Y-99627180D01*
X111485771Y-99627181D01*
X111193242Y-99743001D01*
X111193241Y-99743002D01*
X110917516Y-99894584D01*
X110917504Y-99894591D01*
X110662978Y-100079515D01*
X110662968Y-100079523D01*
X110433608Y-100294907D01*
X110433606Y-100294909D01*
X110233054Y-100537334D01*
X110233051Y-100537338D01*
X110064464Y-100802990D01*
X110064461Y-100802996D01*
X109930499Y-101087678D01*
X109930497Y-101087683D01*
X109833270Y-101386916D01*
X109774311Y-101695988D01*
X109774310Y-101695995D01*
X109754556Y-102009994D01*
X102550500Y-102009994D01*
X102550500Y-98199054D01*
X113039498Y-98199054D01*
X113039499Y-98199057D01*
X113080423Y-98351785D01*
X113089634Y-98367738D01*
X113102813Y-98390564D01*
X113102814Y-98390568D01*
X113159475Y-98488709D01*
X113159481Y-98488717D01*
X113278349Y-98607585D01*
X113278354Y-98607589D01*
X113981284Y-99310520D01*
X113981286Y-99310521D01*
X113981290Y-99310524D01*
X114088225Y-99372262D01*
X114118216Y-99389577D01*
X114270943Y-99430501D01*
X114270945Y-99430501D01*
X114436654Y-99430501D01*
X114436670Y-99430500D01*
X118809055Y-99430500D01*
X118809057Y-99430500D01*
X118961784Y-99389577D01*
X119098716Y-99310520D01*
X119210520Y-99198716D01*
X119270661Y-99094545D01*
X119290362Y-99068871D01*
X119768506Y-98590728D01*
X119768511Y-98590724D01*
X119778714Y-98580520D01*
X119778716Y-98580520D01*
X119890520Y-98468716D01*
X119958030Y-98351784D01*
X119969577Y-98331785D01*
X120010500Y-98179058D01*
X120010500Y-98020943D01*
X120010500Y-96550097D01*
X120030185Y-96483058D01*
X120046819Y-96462416D01*
X120622417Y-95886819D01*
X120683740Y-95853334D01*
X120710098Y-95850500D01*
X125043472Y-95850500D01*
X125110511Y-95870185D01*
X125156266Y-95922989D01*
X125166210Y-95992147D01*
X125148466Y-96040472D01*
X125054211Y-96190476D01*
X124994631Y-96360745D01*
X124994630Y-96360750D01*
X124974435Y-96539996D01*
X124974435Y-96540003D01*
X124994630Y-96719246D01*
X124994632Y-96719256D01*
X125012541Y-96770435D01*
X125019500Y-96811390D01*
X125019500Y-100003918D01*
X125019500Y-100003920D01*
X125019499Y-100003920D01*
X125048340Y-100148907D01*
X125048343Y-100148917D01*
X125104914Y-100285492D01*
X125122800Y-100312260D01*
X125122801Y-100312263D01*
X125187046Y-100408414D01*
X125187052Y-100408421D01*
X126393181Y-101614548D01*
X126426666Y-101675871D01*
X126429500Y-101702229D01*
X126429500Y-103560028D01*
X126422542Y-103600982D01*
X126394631Y-103680747D01*
X126374435Y-103859996D01*
X126374435Y-103860003D01*
X126394630Y-104039249D01*
X126394631Y-104039254D01*
X126454211Y-104209523D01*
X126496608Y-104276997D01*
X126550184Y-104362262D01*
X126677738Y-104489816D01*
X126757900Y-104540185D01*
X126805055Y-104569815D01*
X126830478Y-104585789D01*
X126874526Y-104601202D01*
X127000745Y-104645368D01*
X127000750Y-104645369D01*
X127179996Y-104665565D01*
X127180000Y-104665565D01*
X127180004Y-104665565D01*
X127359249Y-104645369D01*
X127359252Y-104645368D01*
X127359255Y-104645368D01*
X127529522Y-104585789D01*
X127682262Y-104489816D01*
X127809816Y-104362262D01*
X127905789Y-104209522D01*
X127965368Y-104039255D01*
X127976497Y-103940484D01*
X127979932Y-103909996D01*
X175184435Y-103909996D01*
X175184435Y-103910003D01*
X175204630Y-104089249D01*
X175204631Y-104089254D01*
X175264211Y-104259523D01*
X175347967Y-104392819D01*
X175360184Y-104412262D01*
X175487738Y-104539816D01*
X175640478Y-104635789D01*
X175747161Y-104673119D01*
X175810745Y-104695368D01*
X175810750Y-104695369D01*
X175989996Y-104715565D01*
X175990000Y-104715565D01*
X175990004Y-104715565D01*
X176169249Y-104695369D01*
X176169252Y-104695368D01*
X176169255Y-104695368D01*
X176339522Y-104635789D01*
X176492262Y-104539816D01*
X176492262Y-104539815D01*
X176492755Y-104539506D01*
X176558727Y-104520500D01*
X178037588Y-104520500D01*
X178104627Y-104540185D01*
X178114903Y-104547555D01*
X178117736Y-104549814D01*
X178117738Y-104549816D01*
X178231270Y-104621152D01*
X178269809Y-104645369D01*
X178270478Y-104645789D01*
X178440745Y-104705368D01*
X178440750Y-104705369D01*
X178619996Y-104725565D01*
X178620000Y-104725565D01*
X178620004Y-104725565D01*
X178799249Y-104705369D01*
X178799252Y-104705368D01*
X178799255Y-104705368D01*
X178969522Y-104645789D01*
X179122262Y-104549816D01*
X179122262Y-104549815D01*
X179122755Y-104549506D01*
X179188727Y-104530500D01*
X180587588Y-104530500D01*
X180654627Y-104550185D01*
X180664903Y-104557555D01*
X180667736Y-104559814D01*
X180667738Y-104559816D01*
X180781270Y-104631152D01*
X180804561Y-104645788D01*
X180820478Y-104655789D01*
X180990745Y-104715368D01*
X180990750Y-104715369D01*
X181169996Y-104735565D01*
X181170000Y-104735565D01*
X181170004Y-104735565D01*
X181349249Y-104715369D01*
X181349252Y-104715368D01*
X181349255Y-104715368D01*
X181519522Y-104655789D01*
X181672262Y-104559816D01*
X181672267Y-104559810D01*
X181675097Y-104557555D01*
X181677275Y-104556665D01*
X181678158Y-104556111D01*
X181678255Y-104556265D01*
X181739783Y-104531145D01*
X181752412Y-104530500D01*
X183187588Y-104530500D01*
X183254627Y-104550185D01*
X183264903Y-104557555D01*
X183267736Y-104559814D01*
X183267738Y-104559816D01*
X183381270Y-104631152D01*
X183404561Y-104645788D01*
X183420478Y-104655789D01*
X183590745Y-104715368D01*
X183590750Y-104715369D01*
X183769996Y-104735565D01*
X183770000Y-104735565D01*
X183770004Y-104735565D01*
X183949249Y-104715369D01*
X183949252Y-104715368D01*
X183949255Y-104715368D01*
X184119522Y-104655789D01*
X184272262Y-104559816D01*
X184272267Y-104559810D01*
X184275097Y-104557555D01*
X184277275Y-104556665D01*
X184278158Y-104556111D01*
X184278255Y-104556265D01*
X184339783Y-104531145D01*
X184352412Y-104530500D01*
X185817588Y-104530500D01*
X185884627Y-104550185D01*
X185894903Y-104557555D01*
X185897736Y-104559814D01*
X185897738Y-104559816D01*
X186011270Y-104631152D01*
X186034561Y-104645788D01*
X186050478Y-104655789D01*
X186220745Y-104715368D01*
X186220750Y-104715369D01*
X186399996Y-104735565D01*
X186400000Y-104735565D01*
X186400004Y-104735565D01*
X186579249Y-104715369D01*
X186579252Y-104715368D01*
X186579255Y-104715368D01*
X186749522Y-104655789D01*
X186902262Y-104559816D01*
X186902262Y-104559815D01*
X186902755Y-104559506D01*
X186968727Y-104540500D01*
X188297588Y-104540500D01*
X188364627Y-104560185D01*
X188374903Y-104567555D01*
X188377736Y-104569814D01*
X188377738Y-104569816D01*
X188482732Y-104635788D01*
X188530121Y-104665565D01*
X188530478Y-104665789D01*
X188672730Y-104715565D01*
X188700745Y-104725368D01*
X188700750Y-104725369D01*
X188879996Y-104745565D01*
X188880000Y-104745565D01*
X188880004Y-104745565D01*
X189059249Y-104725369D01*
X189059252Y-104725368D01*
X189059255Y-104725368D01*
X189229522Y-104665789D01*
X189382262Y-104569816D01*
X189509816Y-104442262D01*
X189605789Y-104289522D01*
X189665368Y-104119255D01*
X189668748Y-104089255D01*
X189685565Y-103940003D01*
X189685565Y-103939996D01*
X189665369Y-103760750D01*
X189665368Y-103760745D01*
X189654872Y-103730750D01*
X189605789Y-103590478D01*
X189586937Y-103560476D01*
X189566582Y-103528080D01*
X189509816Y-103437738D01*
X189382262Y-103310184D01*
X189371117Y-103303181D01*
X189229523Y-103214211D01*
X189059254Y-103154631D01*
X189059249Y-103154630D01*
X188880004Y-103134435D01*
X188879996Y-103134435D01*
X188700750Y-103154630D01*
X188700745Y-103154631D01*
X188530476Y-103214211D01*
X188377736Y-103310185D01*
X188374903Y-103312445D01*
X188372724Y-103313334D01*
X188371842Y-103313889D01*
X188371744Y-103313734D01*
X188310217Y-103338855D01*
X188297588Y-103339500D01*
X186992940Y-103339500D01*
X186925901Y-103319815D01*
X186905259Y-103303181D01*
X186902262Y-103300184D01*
X186749523Y-103204211D01*
X186579254Y-103144631D01*
X186579249Y-103144630D01*
X186400004Y-103124435D01*
X186399996Y-103124435D01*
X186220750Y-103144630D01*
X186220745Y-103144631D01*
X186050476Y-103204211D01*
X185897736Y-103300185D01*
X185894903Y-103302445D01*
X185892724Y-103303334D01*
X185891842Y-103303889D01*
X185891744Y-103303734D01*
X185830217Y-103328855D01*
X185817588Y-103329500D01*
X184352412Y-103329500D01*
X184285373Y-103309815D01*
X184275097Y-103302445D01*
X184272263Y-103300185D01*
X184272262Y-103300184D01*
X184215496Y-103264515D01*
X184119523Y-103204211D01*
X183949254Y-103144631D01*
X183949249Y-103144630D01*
X183770004Y-103124435D01*
X183769996Y-103124435D01*
X183590750Y-103144630D01*
X183590745Y-103144631D01*
X183420476Y-103204211D01*
X183267736Y-103300185D01*
X183264903Y-103302445D01*
X183262724Y-103303334D01*
X183261842Y-103303889D01*
X183261744Y-103303734D01*
X183200217Y-103328855D01*
X183187588Y-103329500D01*
X181752412Y-103329500D01*
X181685373Y-103309815D01*
X181675097Y-103302445D01*
X181672263Y-103300185D01*
X181672262Y-103300184D01*
X181615496Y-103264515D01*
X181519523Y-103204211D01*
X181349254Y-103144631D01*
X181349249Y-103144630D01*
X181170004Y-103124435D01*
X181169996Y-103124435D01*
X180990750Y-103144630D01*
X180990745Y-103144631D01*
X180820476Y-103204211D01*
X180667736Y-103300185D01*
X180664903Y-103302445D01*
X180662724Y-103303334D01*
X180661842Y-103303889D01*
X180661744Y-103303734D01*
X180600217Y-103328855D01*
X180587588Y-103329500D01*
X179212940Y-103329500D01*
X179145901Y-103309815D01*
X179125259Y-103293181D01*
X179122262Y-103290184D01*
X178969523Y-103194211D01*
X178799254Y-103134631D01*
X178799249Y-103134630D01*
X178620004Y-103114435D01*
X178619996Y-103114435D01*
X178440750Y-103134630D01*
X178440745Y-103134631D01*
X178270476Y-103194211D01*
X178117736Y-103290185D01*
X178114903Y-103292445D01*
X178112724Y-103293334D01*
X178111842Y-103293889D01*
X178111744Y-103293734D01*
X178050217Y-103318855D01*
X178037588Y-103319500D01*
X176582940Y-103319500D01*
X176515901Y-103299815D01*
X176495259Y-103283181D01*
X176492262Y-103280184D01*
X176339523Y-103184211D01*
X176169254Y-103124631D01*
X176169249Y-103124630D01*
X175990004Y-103104435D01*
X175989996Y-103104435D01*
X175810750Y-103124630D01*
X175810745Y-103124631D01*
X175640476Y-103184211D01*
X175487737Y-103280184D01*
X175360184Y-103407737D01*
X175264211Y-103560476D01*
X175204631Y-103730745D01*
X175204630Y-103730750D01*
X175184435Y-103909996D01*
X127979932Y-103909996D01*
X127985565Y-103860003D01*
X127985565Y-103859996D01*
X127965368Y-103680747D01*
X127965368Y-103680745D01*
X127937458Y-103600982D01*
X127930500Y-103560028D01*
X127930500Y-101266079D01*
X127901659Y-101121092D01*
X127901658Y-101121091D01*
X127901658Y-101121087D01*
X127889090Y-101090745D01*
X127845087Y-100984511D01*
X127845080Y-100984498D01*
X127762952Y-100861585D01*
X127720058Y-100818691D01*
X127658416Y-100757049D01*
X126556819Y-99655451D01*
X126523334Y-99594128D01*
X126520500Y-99567770D01*
X126520500Y-97351229D01*
X126540185Y-97284190D01*
X126592989Y-97238435D01*
X126662147Y-97228491D01*
X126725703Y-97257516D01*
X126732181Y-97263548D01*
X131905927Y-102437294D01*
X131935287Y-102484019D01*
X131944211Y-102509523D01*
X131944212Y-102509524D01*
X132021847Y-102633079D01*
X132040184Y-102662262D01*
X132167738Y-102789816D01*
X132193159Y-102805789D01*
X132320121Y-102885565D01*
X132320478Y-102885789D01*
X132453442Y-102932315D01*
X132490745Y-102945368D01*
X132490750Y-102945369D01*
X132669996Y-102965565D01*
X132670000Y-102965565D01*
X132670004Y-102965565D01*
X132849249Y-102945369D01*
X132849252Y-102945368D01*
X132849255Y-102945368D01*
X133019522Y-102885789D01*
X133172262Y-102789816D01*
X133299816Y-102662262D01*
X133395789Y-102509522D01*
X133455368Y-102339255D01*
X133455629Y-102336938D01*
X133475565Y-102160003D01*
X133475565Y-102159996D01*
X133466551Y-102079996D01*
X163099435Y-102079996D01*
X163099435Y-102080003D01*
X163119630Y-102259249D01*
X163119631Y-102259254D01*
X163179211Y-102429523D01*
X163275184Y-102582262D01*
X163402738Y-102709816D01*
X163493080Y-102766582D01*
X163530055Y-102789815D01*
X163555478Y-102805789D01*
X163725745Y-102865368D01*
X163725750Y-102865369D01*
X163904996Y-102885565D01*
X163905000Y-102885565D01*
X163905004Y-102885565D01*
X164084249Y-102865369D01*
X164084252Y-102865368D01*
X164084255Y-102865368D01*
X164254522Y-102805789D01*
X164407262Y-102709816D01*
X164407267Y-102709810D01*
X164410097Y-102707555D01*
X164412275Y-102706665D01*
X164413158Y-102706111D01*
X164413255Y-102706265D01*
X164474783Y-102681145D01*
X164487412Y-102680500D01*
X165812588Y-102680500D01*
X165879627Y-102700185D01*
X165889903Y-102707555D01*
X165892736Y-102709814D01*
X165892738Y-102709816D01*
X166006270Y-102781152D01*
X166020055Y-102789815D01*
X166045478Y-102805789D01*
X166215745Y-102865368D01*
X166215750Y-102865369D01*
X166394996Y-102885565D01*
X166395000Y-102885565D01*
X166395004Y-102885565D01*
X166574249Y-102865369D01*
X166574252Y-102865368D01*
X166574255Y-102865368D01*
X166744522Y-102805789D01*
X166897262Y-102709816D01*
X166897267Y-102709810D01*
X166900097Y-102707555D01*
X166902275Y-102706665D01*
X166903158Y-102706111D01*
X166903255Y-102706265D01*
X166964783Y-102681145D01*
X166977412Y-102680500D01*
X168472588Y-102680500D01*
X168539627Y-102700185D01*
X168549903Y-102707555D01*
X168552736Y-102709814D01*
X168552738Y-102709816D01*
X168666270Y-102781152D01*
X168680055Y-102789815D01*
X168705478Y-102805789D01*
X168875745Y-102865368D01*
X168875750Y-102865369D01*
X169054996Y-102885565D01*
X169055000Y-102885565D01*
X169055004Y-102885565D01*
X169234249Y-102865369D01*
X169234252Y-102865368D01*
X169234255Y-102865368D01*
X169404522Y-102805789D01*
X169557262Y-102709816D01*
X169557267Y-102709810D01*
X169560097Y-102707555D01*
X169562275Y-102706665D01*
X169563158Y-102706111D01*
X169563255Y-102706265D01*
X169624783Y-102681145D01*
X169637412Y-102680500D01*
X170732588Y-102680500D01*
X170799627Y-102700185D01*
X170809903Y-102707555D01*
X170812736Y-102709814D01*
X170812738Y-102709816D01*
X170926270Y-102781152D01*
X170940055Y-102789815D01*
X170965478Y-102805789D01*
X171135745Y-102865368D01*
X171135750Y-102865369D01*
X171314996Y-102885565D01*
X171315000Y-102885565D01*
X171315004Y-102885565D01*
X171494249Y-102865369D01*
X171494252Y-102865368D01*
X171494255Y-102865368D01*
X171664522Y-102805789D01*
X171817262Y-102709816D01*
X171944816Y-102582262D01*
X172040789Y-102429522D01*
X172100368Y-102259255D01*
X172107908Y-102192335D01*
X172120565Y-102080003D01*
X172120565Y-102079996D01*
X172100369Y-101900750D01*
X172100368Y-101900745D01*
X172068782Y-101810478D01*
X172040789Y-101730478D01*
X172033481Y-101718848D01*
X171971071Y-101619523D01*
X171944816Y-101577738D01*
X171817262Y-101450184D01*
X171716572Y-101386916D01*
X171664523Y-101354211D01*
X171494254Y-101294631D01*
X171494249Y-101294630D01*
X171315004Y-101274435D01*
X171314996Y-101274435D01*
X171135750Y-101294630D01*
X171135745Y-101294631D01*
X170965476Y-101354211D01*
X170812736Y-101450185D01*
X170809903Y-101452445D01*
X170807724Y-101453334D01*
X170806842Y-101453889D01*
X170806744Y-101453734D01*
X170745217Y-101478855D01*
X170732588Y-101479500D01*
X169637412Y-101479500D01*
X169570373Y-101459815D01*
X169560097Y-101452445D01*
X169557263Y-101450185D01*
X169557262Y-101450184D01*
X169456572Y-101386916D01*
X169404523Y-101354211D01*
X169234254Y-101294631D01*
X169234249Y-101294630D01*
X169055004Y-101274435D01*
X169054996Y-101274435D01*
X168875750Y-101294630D01*
X168875745Y-101294631D01*
X168705476Y-101354211D01*
X168552736Y-101450185D01*
X168549903Y-101452445D01*
X168547724Y-101453334D01*
X168546842Y-101453889D01*
X168546744Y-101453734D01*
X168485217Y-101478855D01*
X168472588Y-101479500D01*
X166977412Y-101479500D01*
X166910373Y-101459815D01*
X166900097Y-101452445D01*
X166897263Y-101450185D01*
X166897262Y-101450184D01*
X166796572Y-101386916D01*
X166744523Y-101354211D01*
X166574254Y-101294631D01*
X166574249Y-101294630D01*
X166395004Y-101274435D01*
X166394996Y-101274435D01*
X166215750Y-101294630D01*
X166215745Y-101294631D01*
X166045476Y-101354211D01*
X165892736Y-101450185D01*
X165889903Y-101452445D01*
X165887724Y-101453334D01*
X165886842Y-101453889D01*
X165886744Y-101453734D01*
X165825217Y-101478855D01*
X165812588Y-101479500D01*
X164487412Y-101479500D01*
X164420373Y-101459815D01*
X164410097Y-101452445D01*
X164407263Y-101450185D01*
X164407262Y-101450184D01*
X164306572Y-101386916D01*
X164254523Y-101354211D01*
X164084254Y-101294631D01*
X164084249Y-101294630D01*
X163905004Y-101274435D01*
X163904996Y-101274435D01*
X163725750Y-101294630D01*
X163725745Y-101294631D01*
X163555476Y-101354211D01*
X163402737Y-101450184D01*
X163275184Y-101577737D01*
X163179211Y-101730476D01*
X163119631Y-101900745D01*
X163119630Y-101900750D01*
X163099435Y-102079996D01*
X133466551Y-102079996D01*
X133455369Y-101980750D01*
X133455368Y-101980745D01*
X133395789Y-101810478D01*
X133299816Y-101657738D01*
X133172262Y-101530184D01*
X133047644Y-101451881D01*
X133025935Y-101434568D01*
X129224959Y-97633592D01*
X129191474Y-97572269D01*
X129196458Y-97502577D01*
X129238330Y-97446644D01*
X129303794Y-97422227D01*
X129353596Y-97428870D01*
X129400740Y-97445367D01*
X129400750Y-97445369D01*
X129579996Y-97465565D01*
X129580000Y-97465565D01*
X129580004Y-97465565D01*
X129759249Y-97445369D01*
X129759252Y-97445368D01*
X129759255Y-97445368D01*
X129929522Y-97385789D01*
X130082262Y-97289816D01*
X130122319Y-97249759D01*
X130183642Y-97216274D01*
X130253334Y-97221258D01*
X130297681Y-97249759D01*
X130347738Y-97299816D01*
X130429561Y-97351229D01*
X130484561Y-97385788D01*
X130500478Y-97395789D01*
X130645813Y-97446644D01*
X130670745Y-97455368D01*
X130670750Y-97455369D01*
X130849996Y-97475565D01*
X130850000Y-97475565D01*
X130850004Y-97475565D01*
X131029249Y-97455369D01*
X131029252Y-97455368D01*
X131029255Y-97455368D01*
X131199522Y-97395789D01*
X131352262Y-97299816D01*
X131479816Y-97172262D01*
X131575789Y-97019522D01*
X131635368Y-96849255D01*
X131635369Y-96849249D01*
X131655565Y-96670003D01*
X131655565Y-96669996D01*
X131635369Y-96490750D01*
X131635368Y-96490745D01*
X131587000Y-96352517D01*
X131575789Y-96320478D01*
X131569504Y-96310476D01*
X131511190Y-96217669D01*
X131479816Y-96167738D01*
X131479814Y-96167736D01*
X131479813Y-96167734D01*
X131477550Y-96164896D01*
X131476659Y-96162715D01*
X131476111Y-96161842D01*
X131476264Y-96161745D01*
X131451144Y-96100209D01*
X131450500Y-96087587D01*
X131450500Y-95309059D01*
X131450501Y-95309046D01*
X131450501Y-95140945D01*
X131450501Y-95140943D01*
X131409577Y-94988215D01*
X131363389Y-94908216D01*
X131363388Y-94908214D01*
X131330521Y-94851286D01*
X131330520Y-94851284D01*
X131218716Y-94739480D01*
X131218715Y-94739479D01*
X131214385Y-94735149D01*
X131214374Y-94735139D01*
X130907590Y-94428355D01*
X130907588Y-94428352D01*
X130788717Y-94309481D01*
X130788709Y-94309475D01*
X130686936Y-94250717D01*
X130686934Y-94250716D01*
X130651790Y-94230425D01*
X130651789Y-94230424D01*
X130639263Y-94227067D01*
X130499057Y-94189499D01*
X130340943Y-94189499D01*
X130333347Y-94189499D01*
X130333331Y-94189500D01*
X118367911Y-94189500D01*
X118300872Y-94169815D01*
X118255528Y-94117903D01*
X118252518Y-94111448D01*
X118250568Y-94107266D01*
X118120047Y-93920861D01*
X118120045Y-93920858D01*
X117959141Y-93759954D01*
X117772734Y-93629432D01*
X117772732Y-93629431D01*
X117566497Y-93533261D01*
X117566488Y-93533258D01*
X117346697Y-93474366D01*
X117346693Y-93474365D01*
X117346692Y-93474365D01*
X117346691Y-93474364D01*
X117346686Y-93474364D01*
X117120002Y-93454532D01*
X117119998Y-93454532D01*
X116893313Y-93474364D01*
X116893302Y-93474366D01*
X116673511Y-93533258D01*
X116673502Y-93533261D01*
X116467267Y-93629431D01*
X116467265Y-93629432D01*
X116280858Y-93759954D01*
X116207681Y-93833132D01*
X116146358Y-93866617D01*
X116076666Y-93861633D01*
X116032319Y-93833132D01*
X115959141Y-93759954D01*
X115772734Y-93629432D01*
X115772732Y-93629431D01*
X115566497Y-93533261D01*
X115566488Y-93533258D01*
X115346697Y-93474366D01*
X115346693Y-93474365D01*
X115346692Y-93474365D01*
X115346691Y-93474364D01*
X115346686Y-93474364D01*
X115120002Y-93454532D01*
X115119998Y-93454532D01*
X114893313Y-93474364D01*
X114893302Y-93474366D01*
X114673511Y-93533258D01*
X114673502Y-93533261D01*
X114467267Y-93629431D01*
X114467265Y-93629432D01*
X114280858Y-93759954D01*
X114119954Y-93920858D01*
X113989428Y-94107271D01*
X113988302Y-94109222D01*
X113987582Y-94109907D01*
X113986327Y-94111701D01*
X113985966Y-94111448D01*
X113937729Y-94157431D01*
X113913019Y-94166981D01*
X113853089Y-94183039D01*
X113788210Y-94200424D01*
X113788209Y-94200425D01*
X113738096Y-94229359D01*
X113738095Y-94229360D01*
X113701105Y-94250716D01*
X113651285Y-94279479D01*
X113651282Y-94279481D01*
X113159479Y-94771284D01*
X113139979Y-94805061D01*
X113128087Y-94825659D01*
X113080423Y-94908215D01*
X113039499Y-95060943D01*
X113039499Y-95060945D01*
X113039499Y-95229046D01*
X113039500Y-95229059D01*
X113039500Y-98033330D01*
X113039499Y-98033348D01*
X113039499Y-98199054D01*
X113039498Y-98199054D01*
X102550500Y-98199054D01*
X102550500Y-90009994D01*
X109754556Y-90009994D01*
X109754556Y-90010005D01*
X109774310Y-90324004D01*
X109774311Y-90324011D01*
X109786240Y-90386546D01*
X109825317Y-90591395D01*
X109833270Y-90633083D01*
X109930497Y-90932316D01*
X109930499Y-90932321D01*
X110064461Y-91217003D01*
X110064464Y-91217009D01*
X110233051Y-91482661D01*
X110233054Y-91482665D01*
X110433606Y-91725090D01*
X110433608Y-91725092D01*
X110433610Y-91725094D01*
X110523518Y-91809523D01*
X110662968Y-91940476D01*
X110662978Y-91940484D01*
X110917504Y-92125408D01*
X110917509Y-92125410D01*
X110917516Y-92125416D01*
X111193234Y-92276994D01*
X111193239Y-92276996D01*
X111193241Y-92276997D01*
X111193242Y-92276998D01*
X111485771Y-92392818D01*
X111485774Y-92392819D01*
X111790523Y-92471065D01*
X111790527Y-92471066D01*
X111856010Y-92479338D01*
X112102670Y-92510499D01*
X112102679Y-92510499D01*
X112102682Y-92510500D01*
X112102684Y-92510500D01*
X112417316Y-92510500D01*
X112417318Y-92510500D01*
X112417321Y-92510499D01*
X112417329Y-92510499D01*
X112603593Y-92486968D01*
X112729473Y-92471066D01*
X113034225Y-92392819D01*
X113034228Y-92392818D01*
X113326757Y-92276998D01*
X113326758Y-92276997D01*
X113326756Y-92276997D01*
X113326766Y-92276994D01*
X113602484Y-92125416D01*
X113857030Y-91940478D01*
X114086390Y-91725094D01*
X114286947Y-91482663D01*
X114455537Y-91217007D01*
X114589503Y-90932315D01*
X114686731Y-90633079D01*
X114745688Y-90324015D01*
X114745689Y-90324004D01*
X114765444Y-90010005D01*
X114765444Y-90009994D01*
X114745689Y-89695995D01*
X114745688Y-89695988D01*
X114745688Y-89695985D01*
X114686731Y-89386921D01*
X114589503Y-89087685D01*
X114584843Y-89077783D01*
X114525320Y-88951290D01*
X114455537Y-88802993D01*
X114420414Y-88747648D01*
X114286948Y-88537338D01*
X114286945Y-88537334D01*
X114086393Y-88294909D01*
X114086391Y-88294907D01*
X114072926Y-88282262D01*
X113857030Y-88079522D01*
X113857027Y-88079520D01*
X113857021Y-88079515D01*
X113602495Y-87894591D01*
X113602488Y-87894586D01*
X113602484Y-87894584D01*
X113326766Y-87743006D01*
X113326763Y-87743004D01*
X113326758Y-87743002D01*
X113326757Y-87743001D01*
X113034228Y-87627181D01*
X113034225Y-87627180D01*
X112729476Y-87548934D01*
X112729463Y-87548932D01*
X112417329Y-87509500D01*
X112417318Y-87509500D01*
X112102682Y-87509500D01*
X112102670Y-87509500D01*
X111790536Y-87548932D01*
X111790523Y-87548934D01*
X111485774Y-87627180D01*
X111485771Y-87627181D01*
X111193242Y-87743001D01*
X111193241Y-87743002D01*
X110917516Y-87894584D01*
X110917504Y-87894591D01*
X110662978Y-88079515D01*
X110662968Y-88079523D01*
X110433608Y-88294907D01*
X110433606Y-88294909D01*
X110233054Y-88537334D01*
X110233051Y-88537338D01*
X110064464Y-88802990D01*
X110064461Y-88802996D01*
X109930499Y-89087678D01*
X109930497Y-89087683D01*
X109833270Y-89386916D01*
X109774311Y-89695988D01*
X109774310Y-89695995D01*
X109754556Y-90009994D01*
X102550500Y-90009994D01*
X102550500Y-85849999D01*
X144644341Y-85849999D01*
X144644341Y-85850000D01*
X144664936Y-86085403D01*
X144664938Y-86085413D01*
X144726094Y-86313655D01*
X144726096Y-86313659D01*
X144726097Y-86313663D01*
X144813999Y-86502169D01*
X144825965Y-86527830D01*
X144825967Y-86527834D01*
X144837971Y-86544977D01*
X144952098Y-86707967D01*
X144961501Y-86721395D01*
X144961506Y-86721402D01*
X145128597Y-86888493D01*
X145128603Y-86888498D01*
X145314158Y-87018425D01*
X145357783Y-87073002D01*
X145364977Y-87142500D01*
X145333454Y-87204855D01*
X145314158Y-87221575D01*
X145128597Y-87351505D01*
X144961505Y-87518597D01*
X144825965Y-87712169D01*
X144825964Y-87712171D01*
X144726098Y-87926335D01*
X144726094Y-87926344D01*
X144664938Y-88154586D01*
X144664936Y-88154596D01*
X144644341Y-88389999D01*
X144644341Y-88390000D01*
X144664936Y-88625403D01*
X144664938Y-88625413D01*
X144726094Y-88853655D01*
X144726096Y-88853659D01*
X144726097Y-88853663D01*
X144813999Y-89042169D01*
X144825965Y-89067830D01*
X144825967Y-89067834D01*
X144884918Y-89152024D01*
X144952098Y-89247967D01*
X144961501Y-89261395D01*
X144961506Y-89261402D01*
X145128597Y-89428493D01*
X145128603Y-89428498D01*
X145314158Y-89558425D01*
X145357783Y-89613002D01*
X145364977Y-89682500D01*
X145333454Y-89744855D01*
X145314158Y-89761575D01*
X145128597Y-89891505D01*
X144961505Y-90058597D01*
X144825965Y-90252169D01*
X144825964Y-90252171D01*
X144726098Y-90466335D01*
X144726094Y-90466344D01*
X144664938Y-90694586D01*
X144664936Y-90694596D01*
X144644341Y-90929999D01*
X144644341Y-90930000D01*
X144664936Y-91165403D01*
X144664938Y-91165413D01*
X144726094Y-91393655D01*
X144726096Y-91393659D01*
X144726097Y-91393663D01*
X144798839Y-91549658D01*
X144825965Y-91607830D01*
X144825967Y-91607834D01*
X144961501Y-91801395D01*
X144961506Y-91801402D01*
X145128597Y-91968493D01*
X145128603Y-91968498D01*
X145314158Y-92098425D01*
X145357783Y-92153002D01*
X145364977Y-92222500D01*
X145333454Y-92284855D01*
X145314158Y-92301575D01*
X145128597Y-92431505D01*
X144961505Y-92598597D01*
X144825965Y-92792169D01*
X144825964Y-92792171D01*
X144726098Y-93006335D01*
X144726094Y-93006344D01*
X144664938Y-93234586D01*
X144664936Y-93234596D01*
X144644341Y-93469999D01*
X144644341Y-93470000D01*
X144664936Y-93705403D01*
X144664938Y-93705413D01*
X144726094Y-93933655D01*
X144726096Y-93933659D01*
X144726097Y-93933663D01*
X144791227Y-94073334D01*
X144825965Y-94147830D01*
X144825967Y-94147834D01*
X144898007Y-94250717D01*
X144961505Y-94341401D01*
X145128599Y-94508495D01*
X145225384Y-94576265D01*
X145322165Y-94644032D01*
X145322167Y-94644033D01*
X145322170Y-94644035D01*
X145327898Y-94646706D01*
X145380339Y-94692872D01*
X145399500Y-94759090D01*
X145399500Y-100283330D01*
X145399499Y-100283348D01*
X145399499Y-100449054D01*
X145399498Y-100449054D01*
X145408591Y-100482989D01*
X145440423Y-100601785D01*
X145464643Y-100643735D01*
X145469358Y-100651900D01*
X145469359Y-100651904D01*
X145469360Y-100651904D01*
X145479146Y-100668855D01*
X145519479Y-100738714D01*
X145519481Y-100738717D01*
X145638349Y-100857585D01*
X145638355Y-100857590D01*
X146415139Y-101634374D01*
X146415149Y-101634385D01*
X146419479Y-101638715D01*
X146419480Y-101638716D01*
X146531284Y-101750520D01*
X146596725Y-101788302D01*
X146668215Y-101829577D01*
X146820942Y-101870500D01*
X146820943Y-101870500D01*
X161177588Y-101870500D01*
X161244627Y-101890185D01*
X161254903Y-101897555D01*
X161257736Y-101899814D01*
X161257738Y-101899816D01*
X161371270Y-101971152D01*
X161386543Y-101980750D01*
X161410478Y-101995789D01*
X161533551Y-102038854D01*
X161580745Y-102055368D01*
X161580750Y-102055369D01*
X161759996Y-102075565D01*
X161760000Y-102075565D01*
X161760004Y-102075565D01*
X161939249Y-102055369D01*
X161939252Y-102055368D01*
X161939255Y-102055368D01*
X162109522Y-101995789D01*
X162262262Y-101899816D01*
X162389816Y-101772262D01*
X162485789Y-101619522D01*
X162545368Y-101449255D01*
X162547023Y-101434568D01*
X162565565Y-101270003D01*
X162565565Y-101269996D01*
X162545369Y-101090750D01*
X162545368Y-101090745D01*
X162531108Y-101049993D01*
X191674700Y-101049993D01*
X191674700Y-101050006D01*
X191693864Y-101281297D01*
X191693866Y-101281308D01*
X191750842Y-101506300D01*
X191844075Y-101718848D01*
X191971016Y-101913147D01*
X191971019Y-101913151D01*
X191971021Y-101913153D01*
X192128216Y-102083913D01*
X192128219Y-102083915D01*
X192128222Y-102083918D01*
X192311365Y-102226464D01*
X192311371Y-102226468D01*
X192311374Y-102226470D01*
X192515497Y-102336936D01*
X192629487Y-102376068D01*
X192735015Y-102412297D01*
X192735017Y-102412297D01*
X192735019Y-102412298D01*
X192963951Y-102450500D01*
X192963952Y-102450500D01*
X193196048Y-102450500D01*
X193196049Y-102450500D01*
X193424981Y-102412298D01*
X193644503Y-102336936D01*
X193848626Y-102226470D01*
X194031784Y-102083913D01*
X194040130Y-102074846D01*
X194100010Y-102038854D01*
X194169849Y-102040949D01*
X194227468Y-102080469D01*
X194247544Y-102115491D01*
X194276203Y-102192330D01*
X194276206Y-102192335D01*
X194362452Y-102307544D01*
X194362455Y-102307547D01*
X194477664Y-102393793D01*
X194477671Y-102393797D01*
X194612517Y-102444091D01*
X194612516Y-102444091D01*
X194619444Y-102444835D01*
X194672127Y-102450500D01*
X196567872Y-102450499D01*
X196627483Y-102444091D01*
X196762331Y-102393796D01*
X196877546Y-102307546D01*
X196963796Y-102192331D01*
X197014091Y-102057483D01*
X197020500Y-101997873D01*
X197020499Y-100102128D01*
X197014091Y-100042517D01*
X197004233Y-100016087D01*
X196963797Y-99907671D01*
X196963793Y-99907664D01*
X196877547Y-99792455D01*
X196877544Y-99792452D01*
X196762335Y-99706206D01*
X196762328Y-99706202D01*
X196627482Y-99655908D01*
X196627483Y-99655908D01*
X196567883Y-99649501D01*
X196567881Y-99649500D01*
X196567873Y-99649500D01*
X196567864Y-99649500D01*
X194672129Y-99649500D01*
X194672123Y-99649501D01*
X194612516Y-99655908D01*
X194477671Y-99706202D01*
X194477664Y-99706206D01*
X194362455Y-99792452D01*
X194362452Y-99792455D01*
X194276206Y-99907664D01*
X194276203Y-99907670D01*
X194247544Y-99984508D01*
X194205672Y-100040441D01*
X194140208Y-100064858D01*
X194071935Y-100050006D01*
X194040135Y-100025158D01*
X194031784Y-100016087D01*
X194031778Y-100016082D01*
X194031777Y-100016081D01*
X193848634Y-99873535D01*
X193848628Y-99873531D01*
X193644504Y-99763064D01*
X193644495Y-99763061D01*
X193424984Y-99687702D01*
X193231214Y-99655368D01*
X193196049Y-99649500D01*
X192963951Y-99649500D01*
X192928786Y-99655368D01*
X192735015Y-99687702D01*
X192515504Y-99763061D01*
X192515495Y-99763064D01*
X192311371Y-99873531D01*
X192311365Y-99873535D01*
X192128222Y-100016081D01*
X192128219Y-100016084D01*
X192128216Y-100016086D01*
X192128216Y-100016087D01*
X192083319Y-100064858D01*
X191971016Y-100186852D01*
X191844075Y-100381151D01*
X191750842Y-100593699D01*
X191693866Y-100818691D01*
X191693864Y-100818702D01*
X191674700Y-101049993D01*
X162531108Y-101049993D01*
X162508193Y-100984505D01*
X162485789Y-100920478D01*
X162389816Y-100767738D01*
X162262262Y-100640184D01*
X162262259Y-100640182D01*
X162262258Y-100640181D01*
X162261166Y-100639495D01*
X162260610Y-100638867D01*
X162256816Y-100635841D01*
X162257345Y-100635176D01*
X162214873Y-100587162D01*
X162204223Y-100518109D01*
X162232597Y-100454260D01*
X162290985Y-100415886D01*
X162327135Y-100410500D01*
X166857588Y-100410500D01*
X166924627Y-100430185D01*
X166934903Y-100437555D01*
X166937736Y-100439814D01*
X166937738Y-100439816D01*
X167090478Y-100535789D01*
X167237294Y-100587162D01*
X167260745Y-100595368D01*
X167260750Y-100595369D01*
X167439996Y-100615565D01*
X167440000Y-100615565D01*
X167440004Y-100615565D01*
X167619249Y-100595369D01*
X167619252Y-100595368D01*
X167619255Y-100595368D01*
X167789522Y-100535789D01*
X167942262Y-100439816D01*
X168069816Y-100312262D01*
X168165789Y-100159522D01*
X168225368Y-99989255D01*
X168225903Y-99984508D01*
X168245565Y-99810003D01*
X168245565Y-99809996D01*
X168225369Y-99630750D01*
X168225368Y-99630745D01*
X168165788Y-99460475D01*
X168146936Y-99430473D01*
X168127935Y-99363236D01*
X168148302Y-99296401D01*
X168201570Y-99251186D01*
X168251929Y-99240500D01*
X169421273Y-99240500D01*
X169487245Y-99259506D01*
X169487737Y-99259815D01*
X169487738Y-99259816D01*
X169640478Y-99355789D01*
X169737027Y-99389573D01*
X169810745Y-99415368D01*
X169810750Y-99415369D01*
X169989996Y-99435565D01*
X169990000Y-99435565D01*
X169990004Y-99435565D01*
X170169249Y-99415369D01*
X170169252Y-99415368D01*
X170169255Y-99415368D01*
X170339522Y-99355789D01*
X170492262Y-99259816D01*
X170619816Y-99132262D01*
X170715789Y-98979522D01*
X170775368Y-98809255D01*
X170775369Y-98809249D01*
X170795565Y-98630003D01*
X170795565Y-98629996D01*
X170775369Y-98450750D01*
X170775366Y-98450737D01*
X170757723Y-98400316D01*
X170754161Y-98330537D01*
X170788889Y-98269910D01*
X170850883Y-98237682D01*
X170920458Y-98244087D01*
X170962445Y-98271680D01*
X171925139Y-99234374D01*
X171925149Y-99234385D01*
X171929479Y-99238715D01*
X171929480Y-99238716D01*
X172041284Y-99350520D01*
X172108928Y-99389573D01*
X172128095Y-99400639D01*
X172128097Y-99400641D01*
X172153605Y-99415368D01*
X172178215Y-99429577D01*
X172330943Y-99470501D01*
X172330946Y-99470501D01*
X172496653Y-99470501D01*
X172496669Y-99470500D01*
X189537588Y-99470500D01*
X189604627Y-99490185D01*
X189614903Y-99497555D01*
X189617736Y-99499814D01*
X189617738Y-99499816D01*
X189695906Y-99548932D01*
X189767834Y-99594128D01*
X189770478Y-99595789D01*
X189870377Y-99630745D01*
X189940745Y-99655368D01*
X189940750Y-99655369D01*
X190119996Y-99675565D01*
X190120000Y-99675565D01*
X190120004Y-99675565D01*
X190299249Y-99655369D01*
X190299252Y-99655368D01*
X190299255Y-99655368D01*
X190469522Y-99595789D01*
X190622262Y-99499816D01*
X190749816Y-99372262D01*
X190845789Y-99219522D01*
X190905368Y-99049255D01*
X190925565Y-98870000D01*
X190918720Y-98809249D01*
X190905369Y-98690750D01*
X190905368Y-98690745D01*
X190866799Y-98580521D01*
X190845789Y-98520478D01*
X190813263Y-98468714D01*
X190764161Y-98390568D01*
X190749816Y-98367738D01*
X190622262Y-98240184D01*
X190524981Y-98179058D01*
X190469523Y-98144211D01*
X190299254Y-98084631D01*
X190299249Y-98084630D01*
X190120004Y-98064435D01*
X190119996Y-98064435D01*
X189940750Y-98084630D01*
X189940745Y-98084631D01*
X189770476Y-98144211D01*
X189617736Y-98240185D01*
X189614903Y-98242445D01*
X189612724Y-98243334D01*
X189611842Y-98243889D01*
X189611744Y-98243734D01*
X189550217Y-98268855D01*
X189537588Y-98269500D01*
X172710097Y-98269500D01*
X172643058Y-98249815D01*
X172622416Y-98233181D01*
X171356819Y-96967584D01*
X171323334Y-96906261D01*
X171320500Y-96879903D01*
X171320500Y-92042412D01*
X171340185Y-91975373D01*
X171347555Y-91965097D01*
X171349810Y-91962267D01*
X171349816Y-91962262D01*
X171445789Y-91809522D01*
X171505368Y-91639255D01*
X171505369Y-91639249D01*
X171525565Y-91460003D01*
X171525565Y-91459996D01*
X171505369Y-91280750D01*
X171505368Y-91280745D01*
X171471409Y-91183697D01*
X171445789Y-91110478D01*
X171349816Y-90957738D01*
X171222262Y-90830184D01*
X171069523Y-90734211D01*
X170899254Y-90674631D01*
X170899249Y-90674630D01*
X170720004Y-90654435D01*
X170719996Y-90654435D01*
X170540750Y-90674630D01*
X170540745Y-90674631D01*
X170370476Y-90734211D01*
X170217737Y-90830184D01*
X170090184Y-90957737D01*
X169994211Y-91110476D01*
X169934631Y-91280745D01*
X169934630Y-91280750D01*
X169914435Y-91459996D01*
X169914435Y-91460003D01*
X169934630Y-91639249D01*
X169934631Y-91639254D01*
X169994211Y-91809523D01*
X170090185Y-91962263D01*
X170092445Y-91965097D01*
X170093334Y-91967275D01*
X170093889Y-91968158D01*
X170093734Y-91968255D01*
X170118855Y-92029783D01*
X170119500Y-92042412D01*
X170119500Y-97093330D01*
X170119499Y-97093348D01*
X170119499Y-97259054D01*
X170119498Y-97259054D01*
X170144197Y-97351229D01*
X170160423Y-97411785D01*
X170185586Y-97455368D01*
X170194334Y-97470520D01*
X170239479Y-97548714D01*
X170239481Y-97548717D01*
X170348318Y-97657554D01*
X170381803Y-97718877D01*
X170376819Y-97788569D01*
X170334947Y-97844502D01*
X170269483Y-97868919D01*
X170219683Y-97862277D01*
X170169257Y-97844632D01*
X170169249Y-97844630D01*
X169990004Y-97824435D01*
X169989996Y-97824435D01*
X169810750Y-97844630D01*
X169810745Y-97844631D01*
X169640476Y-97904211D01*
X169487737Y-98000184D01*
X169484741Y-98003181D01*
X169482328Y-98004498D01*
X169482295Y-98004525D01*
X169482290Y-98004519D01*
X169423418Y-98036666D01*
X169397060Y-98039500D01*
X152380097Y-98039500D01*
X152313058Y-98019815D01*
X152292416Y-98003181D01*
X151066819Y-96777584D01*
X151033334Y-96716261D01*
X151030500Y-96689903D01*
X151030500Y-94789996D01*
X160584435Y-94789996D01*
X160584435Y-94790003D01*
X160604630Y-94969249D01*
X160604631Y-94969254D01*
X160664211Y-95139523D01*
X160720471Y-95229059D01*
X160760184Y-95292262D01*
X160887738Y-95419816D01*
X161040478Y-95515789D01*
X161210745Y-95575368D01*
X161210750Y-95575369D01*
X161389996Y-95595565D01*
X161390000Y-95595565D01*
X161390004Y-95595565D01*
X161569249Y-95575369D01*
X161569252Y-95575368D01*
X161569255Y-95575368D01*
X161739522Y-95515789D01*
X161892262Y-95419816D01*
X161892267Y-95419810D01*
X161895097Y-95417555D01*
X161897275Y-95416665D01*
X161898158Y-95416111D01*
X161898255Y-95416265D01*
X161959783Y-95391145D01*
X161972412Y-95390500D01*
X164747588Y-95390500D01*
X164814627Y-95410185D01*
X164824903Y-95417555D01*
X164827736Y-95419814D01*
X164827738Y-95419816D01*
X164980478Y-95515789D01*
X165150745Y-95575368D01*
X165150750Y-95575369D01*
X165329996Y-95595565D01*
X165330000Y-95595565D01*
X165330004Y-95595565D01*
X165509249Y-95575369D01*
X165509252Y-95575368D01*
X165509255Y-95575368D01*
X165679522Y-95515789D01*
X165832262Y-95419816D01*
X165832267Y-95419810D01*
X165835097Y-95417555D01*
X165837275Y-95416665D01*
X165838158Y-95416111D01*
X165838255Y-95416265D01*
X165899783Y-95391145D01*
X165912412Y-95390500D01*
X167397588Y-95390500D01*
X167464627Y-95410185D01*
X167474903Y-95417555D01*
X167477736Y-95419814D01*
X167477738Y-95419816D01*
X167630478Y-95515789D01*
X167800745Y-95575368D01*
X167800750Y-95575369D01*
X167979996Y-95595565D01*
X167980000Y-95595565D01*
X167980004Y-95595565D01*
X168159249Y-95575369D01*
X168159252Y-95575368D01*
X168159255Y-95575368D01*
X168329522Y-95515789D01*
X168482262Y-95419816D01*
X168609816Y-95292262D01*
X168705789Y-95139522D01*
X168765368Y-94969255D01*
X168765369Y-94969249D01*
X168785565Y-94790003D01*
X168785565Y-94789996D01*
X168765369Y-94610750D01*
X168765368Y-94610745D01*
X168705788Y-94440476D01*
X168609815Y-94287737D01*
X168482262Y-94160184D01*
X168329523Y-94064211D01*
X168159254Y-94004631D01*
X168159249Y-94004630D01*
X167980004Y-93984435D01*
X167979996Y-93984435D01*
X167800750Y-94004630D01*
X167800745Y-94004631D01*
X167630476Y-94064211D01*
X167477736Y-94160185D01*
X167474903Y-94162445D01*
X167472724Y-94163334D01*
X167471842Y-94163889D01*
X167471744Y-94163734D01*
X167410217Y-94188855D01*
X167397588Y-94189500D01*
X165912412Y-94189500D01*
X165845373Y-94169815D01*
X165835097Y-94162445D01*
X165832263Y-94160185D01*
X165832262Y-94160184D01*
X165747332Y-94106819D01*
X165679523Y-94064211D01*
X165509254Y-94004631D01*
X165509249Y-94004630D01*
X165330004Y-93984435D01*
X165329996Y-93984435D01*
X165150750Y-94004630D01*
X165150745Y-94004631D01*
X164980476Y-94064211D01*
X164827736Y-94160185D01*
X164824903Y-94162445D01*
X164822724Y-94163334D01*
X164821842Y-94163889D01*
X164821744Y-94163734D01*
X164760217Y-94188855D01*
X164747588Y-94189500D01*
X161972412Y-94189500D01*
X161905373Y-94169815D01*
X161895097Y-94162445D01*
X161892263Y-94160185D01*
X161892262Y-94160184D01*
X161807332Y-94106819D01*
X161739523Y-94064211D01*
X161569254Y-94004631D01*
X161569249Y-94004630D01*
X161390004Y-93984435D01*
X161389996Y-93984435D01*
X161210750Y-94004630D01*
X161210745Y-94004631D01*
X161040476Y-94064211D01*
X160887737Y-94160184D01*
X160760184Y-94287737D01*
X160664211Y-94440476D01*
X160604631Y-94610745D01*
X160604630Y-94610750D01*
X160584435Y-94789996D01*
X151030500Y-94789996D01*
X151030500Y-89409060D01*
X151030501Y-89409047D01*
X151030501Y-89240944D01*
X151030501Y-89240943D01*
X150989577Y-89088216D01*
X150977807Y-89067830D01*
X150910524Y-88951290D01*
X150910518Y-88951282D01*
X149987590Y-88028355D01*
X149987588Y-88028352D01*
X149868717Y-87909481D01*
X149868709Y-87909475D01*
X149779256Y-87857830D01*
X149779254Y-87857829D01*
X149731790Y-87830425D01*
X149731789Y-87830424D01*
X149701160Y-87822217D01*
X149579057Y-87789499D01*
X149420943Y-87789499D01*
X149413347Y-87789499D01*
X149413331Y-87789500D01*
X147289091Y-87789500D01*
X147222052Y-87769815D01*
X147176711Y-87717909D01*
X147174037Y-87712175D01*
X147174034Y-87712170D01*
X147174033Y-87712169D01*
X147059736Y-87548934D01*
X147038494Y-87518597D01*
X146871402Y-87351506D01*
X146871396Y-87351501D01*
X146685842Y-87221575D01*
X146642217Y-87166998D01*
X146635023Y-87097500D01*
X146666546Y-87035145D01*
X146685842Y-87018425D01*
X146708026Y-87002891D01*
X146871401Y-86888495D01*
X147038495Y-86721401D01*
X147174035Y-86527830D01*
X147273903Y-86313663D01*
X147335063Y-86085408D01*
X147355659Y-85850000D01*
X147335063Y-85614592D01*
X147273903Y-85386337D01*
X147174035Y-85172171D01*
X147163109Y-85156566D01*
X147038494Y-84978597D01*
X146871402Y-84811506D01*
X146871401Y-84811505D01*
X146685405Y-84681269D01*
X146641781Y-84626692D01*
X146634588Y-84557193D01*
X146666110Y-84494839D01*
X146685405Y-84478119D01*
X146871082Y-84348105D01*
X147038105Y-84181082D01*
X147173600Y-83987578D01*
X147273429Y-83773492D01*
X147273432Y-83773486D01*
X147330636Y-83560000D01*
X146433012Y-83560000D01*
X146465925Y-83502993D01*
X146500000Y-83375826D01*
X146500000Y-83244174D01*
X146465925Y-83117007D01*
X146433012Y-83060000D01*
X147330636Y-83060000D01*
X147330635Y-83059999D01*
X147273432Y-82846513D01*
X147273429Y-82846507D01*
X147173600Y-82632422D01*
X147173599Y-82632420D01*
X147038113Y-82438926D01*
X147038108Y-82438920D01*
X146916053Y-82316865D01*
X146882568Y-82255542D01*
X146887552Y-82185850D01*
X146929424Y-82129917D01*
X146960400Y-82113002D01*
X147092331Y-82063796D01*
X147207546Y-81977546D01*
X147293796Y-81862331D01*
X147344091Y-81727483D01*
X147350500Y-81667873D01*
X147350500Y-81494500D01*
X147370185Y-81427461D01*
X147422989Y-81381706D01*
X147474500Y-81370500D01*
X151042256Y-81370500D01*
X151109295Y-81390185D01*
X151155050Y-81442989D01*
X151164994Y-81512147D01*
X151147244Y-81560480D01*
X151143656Y-81566190D01*
X151141043Y-81570348D01*
X151139159Y-81573254D01*
X151104918Y-81624499D01*
X151104911Y-81624513D01*
X151104852Y-81624657D01*
X151095300Y-81643147D01*
X151089544Y-81652309D01*
X151089542Y-81652314D01*
X151069715Y-81708974D01*
X151067237Y-81715466D01*
X151048341Y-81761088D01*
X151048339Y-81761097D01*
X151045903Y-81773341D01*
X151041330Y-81790097D01*
X151033687Y-81811939D01*
X151033687Y-81811940D01*
X151028341Y-81859382D01*
X151026739Y-81869685D01*
X151019500Y-81906081D01*
X151019500Y-81930890D01*
X151018720Y-81944774D01*
X151014751Y-81979997D01*
X151014751Y-81980000D01*
X151018720Y-82015223D01*
X151019500Y-82029108D01*
X151019500Y-82053916D01*
X151026739Y-82090312D01*
X151028341Y-82100616D01*
X151033687Y-82148059D01*
X151041330Y-82169902D01*
X151045904Y-82186659D01*
X151048342Y-82198913D01*
X151057136Y-82220145D01*
X151067235Y-82244525D01*
X151069708Y-82251003D01*
X151082868Y-82288610D01*
X151089543Y-82307687D01*
X151089546Y-82307694D01*
X151095295Y-82316844D01*
X151104851Y-82335340D01*
X151104912Y-82335488D01*
X151104916Y-82335495D01*
X151139169Y-82386760D01*
X151141060Y-82389677D01*
X151175029Y-82443739D01*
X151179523Y-82450890D01*
X151299110Y-82570477D01*
X151360338Y-82608949D01*
X151363247Y-82610834D01*
X151414505Y-82645084D01*
X151414648Y-82645143D01*
X151433162Y-82654708D01*
X151442310Y-82660456D01*
X151496332Y-82679358D01*
X151498979Y-82680285D01*
X151505477Y-82682766D01*
X151551087Y-82701658D01*
X151551095Y-82701660D01*
X151563332Y-82704094D01*
X151580101Y-82708671D01*
X151601938Y-82716312D01*
X151601941Y-82716313D01*
X151649398Y-82721659D01*
X151659689Y-82723260D01*
X151671926Y-82725694D01*
X151696081Y-82730500D01*
X151696082Y-82730500D01*
X151720890Y-82730500D01*
X151734774Y-82731280D01*
X151769998Y-82735249D01*
X151770000Y-82735249D01*
X151770002Y-82735249D01*
X151805226Y-82731280D01*
X151819110Y-82730500D01*
X157497770Y-82730500D01*
X157564809Y-82750185D01*
X157585451Y-82766819D01*
X157733181Y-82914549D01*
X157766666Y-82975872D01*
X157769500Y-83002230D01*
X157769500Y-84123433D01*
X157749815Y-84190472D01*
X157697011Y-84236227D01*
X157627853Y-84246171D01*
X157564297Y-84217146D01*
X157533118Y-84175838D01*
X157433600Y-83962422D01*
X157433599Y-83962420D01*
X157298113Y-83768926D01*
X157298108Y-83768920D01*
X157131082Y-83601894D01*
X156937578Y-83466399D01*
X156723492Y-83366570D01*
X156723486Y-83366567D01*
X156510000Y-83309364D01*
X156510000Y-84206988D01*
X156452993Y-84174075D01*
X156325826Y-84140000D01*
X156194174Y-84140000D01*
X156067007Y-84174075D01*
X156010000Y-84206988D01*
X156010000Y-83309364D01*
X156009999Y-83309364D01*
X155796513Y-83366567D01*
X155796507Y-83366570D01*
X155582422Y-83466399D01*
X155582420Y-83466400D01*
X155388926Y-83601886D01*
X155266865Y-83723947D01*
X155205542Y-83757431D01*
X155135850Y-83752447D01*
X155079917Y-83710575D01*
X155063002Y-83679598D01*
X155013797Y-83547671D01*
X155013793Y-83547664D01*
X154927547Y-83432455D01*
X154927544Y-83432452D01*
X154812335Y-83346206D01*
X154812328Y-83346202D01*
X154677482Y-83295908D01*
X154677483Y-83295908D01*
X154617883Y-83289501D01*
X154617881Y-83289500D01*
X154617873Y-83289500D01*
X154617864Y-83289500D01*
X152822129Y-83289500D01*
X152822123Y-83289501D01*
X152762516Y-83295908D01*
X152627671Y-83346202D01*
X152627664Y-83346206D01*
X152512455Y-83432452D01*
X152512452Y-83432455D01*
X152426206Y-83547664D01*
X152426202Y-83547671D01*
X152375908Y-83682517D01*
X152369501Y-83742116D01*
X152369500Y-83742135D01*
X152369500Y-85537870D01*
X152369501Y-85537876D01*
X152375908Y-85597483D01*
X152426202Y-85732328D01*
X152426206Y-85732335D01*
X152512452Y-85847544D01*
X152512455Y-85847547D01*
X152627664Y-85933793D01*
X152627671Y-85933797D01*
X152759081Y-85982810D01*
X152815015Y-86024681D01*
X152839432Y-86090145D01*
X152824580Y-86158418D01*
X152803430Y-86186673D01*
X152681503Y-86308600D01*
X152545965Y-86502169D01*
X152545964Y-86502171D01*
X152446098Y-86716335D01*
X152446094Y-86716344D01*
X152384938Y-86944586D01*
X152384936Y-86944596D01*
X152364341Y-87179999D01*
X152364341Y-87180000D01*
X152384936Y-87415403D01*
X152384938Y-87415413D01*
X152446094Y-87643655D01*
X152446096Y-87643659D01*
X152446097Y-87643663D01*
X152545965Y-87857830D01*
X152681501Y-88051396D01*
X152681506Y-88051402D01*
X152848597Y-88218493D01*
X152848603Y-88218498D01*
X153034158Y-88348425D01*
X153077783Y-88403002D01*
X153084977Y-88472500D01*
X153053454Y-88534855D01*
X153034158Y-88551575D01*
X152848597Y-88681505D01*
X152681505Y-88848597D01*
X152545965Y-89042169D01*
X152545964Y-89042171D01*
X152446098Y-89256335D01*
X152446094Y-89256344D01*
X152384938Y-89484586D01*
X152384936Y-89484596D01*
X152364341Y-89719999D01*
X152364341Y-89720000D01*
X152384936Y-89955403D01*
X152384938Y-89955413D01*
X152446094Y-90183655D01*
X152446096Y-90183659D01*
X152446097Y-90183663D01*
X152526004Y-90355023D01*
X152545965Y-90397830D01*
X152545967Y-90397834D01*
X152593934Y-90466337D01*
X152681505Y-90591401D01*
X152848599Y-90758495D01*
X152945384Y-90826265D01*
X153042165Y-90894032D01*
X153042167Y-90894033D01*
X153042170Y-90894035D01*
X153256337Y-90993903D01*
X153484592Y-91055063D01*
X153665640Y-91070903D01*
X153719999Y-91075659D01*
X153720000Y-91075659D01*
X153720001Y-91075659D01*
X153774360Y-91070903D01*
X153955408Y-91055063D01*
X154183663Y-90993903D01*
X154397830Y-90894035D01*
X154591401Y-90758495D01*
X154758495Y-90591401D01*
X154888425Y-90405842D01*
X154943002Y-90362217D01*
X155012500Y-90355023D01*
X155074855Y-90386546D01*
X155091575Y-90405842D01*
X155221500Y-90591395D01*
X155221505Y-90591401D01*
X155388599Y-90758495D01*
X155485384Y-90826265D01*
X155582165Y-90894032D01*
X155582167Y-90894033D01*
X155582170Y-90894035D01*
X155796337Y-90993903D01*
X156024592Y-91055063D01*
X156205640Y-91070903D01*
X156259999Y-91075659D01*
X156260000Y-91075659D01*
X156260001Y-91075659D01*
X156314360Y-91070903D01*
X156495408Y-91055063D01*
X156723663Y-90993903D01*
X156937830Y-90894035D01*
X157131401Y-90758495D01*
X157298495Y-90591401D01*
X157434035Y-90397830D01*
X157533903Y-90183663D01*
X157595063Y-89955408D01*
X157615659Y-89720000D01*
X157614521Y-89706998D01*
X157604108Y-89587975D01*
X157595063Y-89484592D01*
X157540240Y-89279986D01*
X159305001Y-89279986D01*
X159315494Y-89382697D01*
X159370641Y-89549119D01*
X159370643Y-89549124D01*
X159462684Y-89698345D01*
X159586654Y-89822315D01*
X159735875Y-89914356D01*
X159735880Y-89914358D01*
X159902302Y-89969505D01*
X159902309Y-89969506D01*
X160005019Y-89979999D01*
X160279999Y-89979999D01*
X160780000Y-89979999D01*
X161054972Y-89979999D01*
X161054986Y-89979998D01*
X161157697Y-89969505D01*
X161324119Y-89914358D01*
X161324124Y-89914356D01*
X161473345Y-89822315D01*
X161597315Y-89698345D01*
X161689356Y-89549124D01*
X161689358Y-89549119D01*
X161744505Y-89382697D01*
X161744506Y-89382690D01*
X161754999Y-89279986D01*
X161755000Y-89279973D01*
X161755000Y-89230000D01*
X160780000Y-89230000D01*
X160780000Y-89979999D01*
X160279999Y-89979999D01*
X160280000Y-89979998D01*
X160280000Y-89230000D01*
X159305001Y-89230000D01*
X159305001Y-89279986D01*
X157540240Y-89279986D01*
X157533903Y-89256337D01*
X157434035Y-89042171D01*
X157428425Y-89034158D01*
X157362648Y-88940218D01*
X160330000Y-88940218D01*
X160330000Y-89019782D01*
X160360448Y-89093291D01*
X160416709Y-89149552D01*
X160490218Y-89180000D01*
X160569782Y-89180000D01*
X160643291Y-89149552D01*
X160699552Y-89093291D01*
X160730000Y-89019782D01*
X160730000Y-88940218D01*
X160699552Y-88866709D01*
X160643291Y-88810448D01*
X160569782Y-88780000D01*
X160490218Y-88780000D01*
X160416709Y-88810448D01*
X160360448Y-88866709D01*
X160330000Y-88940218D01*
X157362648Y-88940218D01*
X157298494Y-88848597D01*
X157131404Y-88681507D01*
X157129270Y-88680013D01*
X159305000Y-88680013D01*
X159305000Y-88730000D01*
X160280000Y-88730000D01*
X160780000Y-88730000D01*
X161754999Y-88730000D01*
X161754999Y-88680028D01*
X161754998Y-88680013D01*
X161744505Y-88577302D01*
X161689358Y-88410880D01*
X161689356Y-88410875D01*
X161597315Y-88261654D01*
X161473345Y-88137684D01*
X161324124Y-88045643D01*
X161324119Y-88045641D01*
X161157697Y-87990494D01*
X161157690Y-87990493D01*
X161054986Y-87980000D01*
X160780000Y-87980000D01*
X160780000Y-88730000D01*
X160280000Y-88730000D01*
X160280000Y-87980000D01*
X160005029Y-87980000D01*
X160005012Y-87980001D01*
X159902302Y-87990494D01*
X159735880Y-88045641D01*
X159735875Y-88045643D01*
X159586654Y-88137684D01*
X159462684Y-88261654D01*
X159370643Y-88410875D01*
X159370641Y-88410880D01*
X159315494Y-88577302D01*
X159315493Y-88577309D01*
X159305000Y-88680013D01*
X157129270Y-88680013D01*
X157063375Y-88633872D01*
X157019751Y-88579294D01*
X157010500Y-88532298D01*
X157010500Y-88367700D01*
X157030185Y-88300661D01*
X157063375Y-88266126D01*
X157131401Y-88218495D01*
X157298495Y-88051401D01*
X157346127Y-87983376D01*
X157400704Y-87939751D01*
X157447701Y-87930500D01*
X158083920Y-87930500D01*
X158189615Y-87909475D01*
X158228913Y-87901658D01*
X158365495Y-87845084D01*
X158448683Y-87789500D01*
X158488416Y-87762952D01*
X159102952Y-87148416D01*
X159152186Y-87074729D01*
X159185084Y-87025495D01*
X159241658Y-86888913D01*
X159270500Y-86743918D01*
X159270500Y-82566082D01*
X159270500Y-82566079D01*
X159241659Y-82421092D01*
X159241658Y-82421091D01*
X159241658Y-82421087D01*
X159240684Y-82418735D01*
X159185085Y-82284507D01*
X159185084Y-82284505D01*
X159136054Y-82211126D01*
X159119038Y-82185659D01*
X159102954Y-82161586D01*
X158523549Y-81582181D01*
X158490064Y-81520858D01*
X158495048Y-81451166D01*
X158536920Y-81395233D01*
X158602384Y-81370816D01*
X158611230Y-81370500D01*
X171379903Y-81370500D01*
X171446942Y-81390185D01*
X171467584Y-81406819D01*
X172443181Y-82382416D01*
X172476666Y-82443739D01*
X172479500Y-82470097D01*
X172479500Y-94357187D01*
X172460494Y-94423159D01*
X172374211Y-94560476D01*
X172314631Y-94730745D01*
X172314630Y-94730750D01*
X172294435Y-94909996D01*
X172294435Y-94910003D01*
X172314630Y-95089249D01*
X172314631Y-95089254D01*
X172374211Y-95259523D01*
X172399054Y-95299060D01*
X172470184Y-95412262D01*
X172597738Y-95539816D01*
X172750478Y-95635789D01*
X172896451Y-95686867D01*
X172920745Y-95695368D01*
X172920750Y-95695369D01*
X173099996Y-95715565D01*
X173100000Y-95715565D01*
X173100004Y-95715565D01*
X173279249Y-95695369D01*
X173279252Y-95695368D01*
X173279255Y-95695368D01*
X173449522Y-95635789D01*
X173602262Y-95539816D01*
X173729816Y-95412262D01*
X173825789Y-95259522D01*
X173885368Y-95089255D01*
X173895161Y-95002329D01*
X173922226Y-94937918D01*
X173930690Y-94928544D01*
X174752417Y-94106819D01*
X174813740Y-94073334D01*
X174840098Y-94070500D01*
X188550909Y-94070500D01*
X188617948Y-94090185D01*
X188663292Y-94142097D01*
X188665965Y-94147830D01*
X188801505Y-94341401D01*
X188968599Y-94508495D01*
X189065384Y-94576265D01*
X189162165Y-94644032D01*
X189162167Y-94644033D01*
X189162170Y-94644035D01*
X189376337Y-94743903D01*
X189604592Y-94805063D01*
X189792918Y-94821539D01*
X189839999Y-94825659D01*
X189840000Y-94825659D01*
X189840001Y-94825659D01*
X189879234Y-94822226D01*
X190075408Y-94805063D01*
X190303663Y-94743903D01*
X190517830Y-94644035D01*
X190711401Y-94508495D01*
X190878495Y-94341401D01*
X191014035Y-94147830D01*
X191113903Y-93933663D01*
X191175063Y-93705408D01*
X191195659Y-93470000D01*
X191175063Y-93234592D01*
X191113903Y-93006337D01*
X191014035Y-92792171D01*
X191014034Y-92792169D01*
X190878494Y-92598597D01*
X190711402Y-92431506D01*
X190711396Y-92431501D01*
X190525842Y-92301575D01*
X190482217Y-92246998D01*
X190475023Y-92177500D01*
X190506546Y-92115145D01*
X190525842Y-92098425D01*
X190548026Y-92082891D01*
X190711401Y-91968495D01*
X190878495Y-91801401D01*
X191014035Y-91607830D01*
X191113903Y-91393663D01*
X191175063Y-91165408D01*
X191195659Y-90930000D01*
X191175063Y-90694592D01*
X191113903Y-90466337D01*
X191014035Y-90252171D01*
X191014034Y-90252169D01*
X190878494Y-90058597D01*
X190711402Y-89891506D01*
X190711396Y-89891501D01*
X190525842Y-89761575D01*
X190482217Y-89706998D01*
X190475023Y-89637500D01*
X190506546Y-89575145D01*
X190525842Y-89558425D01*
X190562987Y-89532416D01*
X190711401Y-89428495D01*
X190769899Y-89369997D01*
X196944723Y-89369997D01*
X196944723Y-89370002D01*
X196949841Y-89428498D01*
X196962670Y-89575145D01*
X196963793Y-89587975D01*
X196963793Y-89587979D01*
X197020422Y-89799322D01*
X197020424Y-89799326D01*
X197020425Y-89799330D01*
X197031143Y-89822315D01*
X197112897Y-89997638D01*
X197112898Y-89997639D01*
X197238402Y-90176877D01*
X197393123Y-90331598D01*
X197572361Y-90457102D01*
X197770670Y-90549575D01*
X197982023Y-90606207D01*
X198164926Y-90622208D01*
X198199998Y-90625277D01*
X198200000Y-90625277D01*
X198200002Y-90625277D01*
X198228254Y-90622805D01*
X198417977Y-90606207D01*
X198629330Y-90549575D01*
X198827639Y-90457102D01*
X199006877Y-90331598D01*
X199161598Y-90176877D01*
X199287102Y-89997639D01*
X199379575Y-89799330D01*
X199436207Y-89587977D01*
X199455277Y-89370000D01*
X199436207Y-89152023D01*
X199382419Y-88951284D01*
X199379577Y-88940677D01*
X199379576Y-88940676D01*
X199379575Y-88940670D01*
X199287102Y-88742362D01*
X199287100Y-88742359D01*
X199287099Y-88742357D01*
X199161599Y-88563124D01*
X199095473Y-88496998D01*
X199006877Y-88408402D01*
X198853007Y-88300661D01*
X198827638Y-88282897D01*
X198728484Y-88236661D01*
X198629330Y-88190425D01*
X198629326Y-88190424D01*
X198629322Y-88190422D01*
X198417977Y-88133793D01*
X198200002Y-88114723D01*
X198199998Y-88114723D01*
X198054682Y-88127436D01*
X197982023Y-88133793D01*
X197982020Y-88133793D01*
X197770677Y-88190422D01*
X197770668Y-88190426D01*
X197572361Y-88282898D01*
X197572357Y-88282900D01*
X197393121Y-88408402D01*
X197238402Y-88563121D01*
X197112900Y-88742357D01*
X197112898Y-88742361D01*
X197020426Y-88940668D01*
X197020422Y-88940677D01*
X196963793Y-89152020D01*
X196963793Y-89152024D01*
X196944723Y-89369997D01*
X190769899Y-89369997D01*
X190878495Y-89261401D01*
X191014035Y-89067830D01*
X191113903Y-88853663D01*
X191175063Y-88625408D01*
X191195659Y-88390000D01*
X191175063Y-88154592D01*
X191117497Y-87939751D01*
X191113905Y-87926344D01*
X191113904Y-87926343D01*
X191113903Y-87926337D01*
X191014035Y-87712171D01*
X191014034Y-87712169D01*
X190878494Y-87518597D01*
X190711402Y-87351506D01*
X190711396Y-87351501D01*
X190525842Y-87221575D01*
X190482217Y-87166998D01*
X190475023Y-87097500D01*
X190506546Y-87035145D01*
X190525842Y-87018425D01*
X190548026Y-87002891D01*
X190711401Y-86888495D01*
X190878495Y-86721401D01*
X191014035Y-86527830D01*
X191113903Y-86313663D01*
X191175063Y-86085408D01*
X191195659Y-85850000D01*
X191175063Y-85614592D01*
X191113903Y-85386337D01*
X191014035Y-85172171D01*
X191003109Y-85156566D01*
X190878494Y-84978597D01*
X190711402Y-84811506D01*
X190711396Y-84811501D01*
X190525842Y-84681575D01*
X190482217Y-84626998D01*
X190475023Y-84557500D01*
X190506546Y-84495145D01*
X190525842Y-84478425D01*
X190591432Y-84432498D01*
X190711401Y-84348495D01*
X190878495Y-84181401D01*
X191014035Y-83987830D01*
X191113903Y-83773663D01*
X191175063Y-83545408D01*
X191195659Y-83310000D01*
X191175063Y-83074592D01*
X191118546Y-82863664D01*
X191113905Y-82846344D01*
X191113904Y-82846343D01*
X191113903Y-82846337D01*
X191014035Y-82632171D01*
X190998420Y-82609871D01*
X190878496Y-82438600D01*
X190822312Y-82382416D01*
X190756567Y-82316671D01*
X190723084Y-82255351D01*
X190728068Y-82185659D01*
X190769939Y-82129725D01*
X190800915Y-82112810D01*
X190932331Y-82063796D01*
X191047546Y-81977546D01*
X191133796Y-81862331D01*
X191184091Y-81727483D01*
X191190500Y-81667873D01*
X191190499Y-79872128D01*
X191184091Y-79812517D01*
X191133796Y-79677669D01*
X191133795Y-79677668D01*
X191133793Y-79677664D01*
X191047547Y-79562455D01*
X191047544Y-79562452D01*
X190932335Y-79476206D01*
X190932328Y-79476202D01*
X190797482Y-79425908D01*
X190797483Y-79425908D01*
X190737883Y-79419501D01*
X190737881Y-79419500D01*
X190737873Y-79419500D01*
X190737864Y-79419500D01*
X188942129Y-79419500D01*
X188942123Y-79419501D01*
X188882516Y-79425908D01*
X188747671Y-79476202D01*
X188747664Y-79476206D01*
X188632455Y-79562452D01*
X188632452Y-79562455D01*
X188546206Y-79677664D01*
X188546202Y-79677671D01*
X188495908Y-79812517D01*
X188489501Y-79872116D01*
X188489501Y-79872123D01*
X188489500Y-79872135D01*
X188489500Y-81667870D01*
X188489501Y-81667876D01*
X188495908Y-81727483D01*
X188546202Y-81862328D01*
X188546206Y-81862335D01*
X188632452Y-81977544D01*
X188632455Y-81977547D01*
X188747664Y-82063793D01*
X188747671Y-82063797D01*
X188879081Y-82112810D01*
X188935015Y-82154681D01*
X188959432Y-82220145D01*
X188944580Y-82288418D01*
X188923430Y-82316673D01*
X188801503Y-82438600D01*
X188665965Y-82632169D01*
X188665964Y-82632171D01*
X188566098Y-82846335D01*
X188566094Y-82846344D01*
X188504938Y-83074586D01*
X188504936Y-83074596D01*
X188484341Y-83309999D01*
X188484341Y-83310000D01*
X188504936Y-83545403D01*
X188504938Y-83545413D01*
X188566094Y-83773655D01*
X188566096Y-83773659D01*
X188566097Y-83773663D01*
X188620113Y-83889500D01*
X188665965Y-83987830D01*
X188665967Y-83987834D01*
X188716968Y-84060670D01*
X188799864Y-84179058D01*
X188801501Y-84181395D01*
X188801506Y-84181402D01*
X188968597Y-84348493D01*
X188968603Y-84348498D01*
X189154158Y-84478425D01*
X189197783Y-84533002D01*
X189204977Y-84602500D01*
X189173454Y-84664855D01*
X189154158Y-84681575D01*
X188968597Y-84811505D01*
X188801505Y-84978597D01*
X188665965Y-85172169D01*
X188665964Y-85172171D01*
X188566098Y-85386335D01*
X188566094Y-85386344D01*
X188504938Y-85614586D01*
X188504936Y-85614596D01*
X188484341Y-85849999D01*
X188484341Y-85850000D01*
X188504936Y-86085403D01*
X188504938Y-86085413D01*
X188566094Y-86313655D01*
X188566096Y-86313659D01*
X188566097Y-86313663D01*
X188653999Y-86502169D01*
X188665965Y-86527830D01*
X188665967Y-86527834D01*
X188677971Y-86544977D01*
X188792098Y-86707967D01*
X188801501Y-86721395D01*
X188801506Y-86721402D01*
X188968597Y-86888493D01*
X188968603Y-86888498D01*
X189154158Y-87018425D01*
X189197783Y-87073002D01*
X189204977Y-87142500D01*
X189173454Y-87204855D01*
X189154158Y-87221575D01*
X188968597Y-87351505D01*
X188801505Y-87518597D01*
X188665965Y-87712169D01*
X188665964Y-87712171D01*
X188566098Y-87926335D01*
X188566094Y-87926344D01*
X188504938Y-88154586D01*
X188504936Y-88154596D01*
X188484341Y-88389999D01*
X188484341Y-88390000D01*
X188504936Y-88625403D01*
X188504938Y-88625413D01*
X188566094Y-88853655D01*
X188566096Y-88853659D01*
X188566097Y-88853663D01*
X188653999Y-89042169D01*
X188665965Y-89067830D01*
X188665967Y-89067834D01*
X188724918Y-89152024D01*
X188792098Y-89247967D01*
X188801501Y-89261395D01*
X188801506Y-89261402D01*
X188968597Y-89428493D01*
X188968603Y-89428498D01*
X189154158Y-89558425D01*
X189197783Y-89613002D01*
X189204977Y-89682500D01*
X189173454Y-89744855D01*
X189154158Y-89761575D01*
X188968597Y-89891505D01*
X188801505Y-90058597D01*
X188665965Y-90252169D01*
X188665964Y-90252171D01*
X188566098Y-90466335D01*
X188566094Y-90466344D01*
X188504938Y-90694586D01*
X188504936Y-90694596D01*
X188484341Y-90929999D01*
X188484341Y-90930000D01*
X188504936Y-91165403D01*
X188504938Y-91165413D01*
X188566094Y-91393655D01*
X188566096Y-91393659D01*
X188566097Y-91393663D01*
X188638839Y-91549658D01*
X188665965Y-91607830D01*
X188665967Y-91607834D01*
X188801501Y-91801395D01*
X188801506Y-91801402D01*
X188968597Y-91968493D01*
X188968603Y-91968498D01*
X189154158Y-92098425D01*
X189197783Y-92153002D01*
X189204977Y-92222500D01*
X189173454Y-92284855D01*
X189154158Y-92301575D01*
X188968597Y-92431505D01*
X188801506Y-92598596D01*
X188665965Y-92792170D01*
X188665962Y-92792175D01*
X188663289Y-92797909D01*
X188617115Y-92850346D01*
X188550909Y-92869500D01*
X174626670Y-92869500D01*
X174626654Y-92869499D01*
X174619058Y-92869499D01*
X174460943Y-92869499D01*
X174384579Y-92889961D01*
X174308214Y-92910423D01*
X174308209Y-92910426D01*
X174171290Y-92989475D01*
X174171282Y-92989481D01*
X173892181Y-93268583D01*
X173830858Y-93302068D01*
X173761166Y-93297084D01*
X173705233Y-93255212D01*
X173680816Y-93189748D01*
X173680500Y-93180902D01*
X173680500Y-85719996D01*
X175454435Y-85719996D01*
X175454435Y-85720003D01*
X175474630Y-85899249D01*
X175474631Y-85899254D01*
X175534211Y-86069523D01*
X175630185Y-86222263D01*
X175632445Y-86225097D01*
X175633334Y-86227275D01*
X175633889Y-86228158D01*
X175633734Y-86228255D01*
X175658855Y-86289783D01*
X175659500Y-86302412D01*
X175659500Y-87211273D01*
X175640494Y-87277245D01*
X175544211Y-87430476D01*
X175484631Y-87600745D01*
X175484630Y-87600750D01*
X175464435Y-87779996D01*
X175464435Y-87780003D01*
X175484630Y-87959249D01*
X175484631Y-87959254D01*
X175544211Y-88129523D01*
X175600115Y-88218493D01*
X175640184Y-88282262D01*
X175767738Y-88409816D01*
X175920478Y-88505789D01*
X176051327Y-88551575D01*
X176090745Y-88565368D01*
X176090750Y-88565369D01*
X176269996Y-88585565D01*
X176270000Y-88585565D01*
X176270004Y-88585565D01*
X176449249Y-88565369D01*
X176449252Y-88565368D01*
X176449255Y-88565368D01*
X176619522Y-88505789D01*
X176772262Y-88409816D01*
X176899816Y-88282262D01*
X176995789Y-88129522D01*
X177055368Y-87959255D01*
X177060976Y-87909481D01*
X177075565Y-87780003D01*
X177075565Y-87779996D01*
X177055369Y-87600750D01*
X177055368Y-87600745D01*
X176995789Y-87430478D01*
X176899816Y-87277738D01*
X176896819Y-87274741D01*
X176895501Y-87272328D01*
X176895475Y-87272295D01*
X176895480Y-87272290D01*
X176863334Y-87213418D01*
X176860500Y-87187060D01*
X176860500Y-86302412D01*
X176880185Y-86235373D01*
X176887555Y-86225097D01*
X176889810Y-86222267D01*
X176889816Y-86222262D01*
X176985789Y-86069522D01*
X177045368Y-85899255D01*
X177051194Y-85847546D01*
X177065565Y-85720003D01*
X177065565Y-85719996D01*
X177045369Y-85540750D01*
X177045368Y-85540745D01*
X177043323Y-85534901D01*
X176985789Y-85370478D01*
X176889816Y-85217738D01*
X176762262Y-85090184D01*
X176609523Y-84994211D01*
X176439254Y-84934631D01*
X176439249Y-84934630D01*
X176260004Y-84914435D01*
X176259996Y-84914435D01*
X176080750Y-84934630D01*
X176080745Y-84934631D01*
X175910476Y-84994211D01*
X175757737Y-85090184D01*
X175630184Y-85217737D01*
X175534211Y-85370476D01*
X175474631Y-85540745D01*
X175474630Y-85540750D01*
X175454435Y-85719996D01*
X173680500Y-85719996D01*
X173680500Y-82259059D01*
X173680501Y-82259046D01*
X173680501Y-82090945D01*
X173680501Y-82090943D01*
X173639577Y-81938215D01*
X173586701Y-81846632D01*
X173560520Y-81801284D01*
X173448716Y-81689480D01*
X173448715Y-81689479D01*
X173444385Y-81685149D01*
X173444374Y-81685139D01*
X172167590Y-80408355D01*
X172167588Y-80408352D01*
X172048717Y-80289481D01*
X172048716Y-80289480D01*
X171961904Y-80239360D01*
X171961904Y-80239359D01*
X171961900Y-80239358D01*
X171911785Y-80210423D01*
X171759057Y-80169499D01*
X171600943Y-80169499D01*
X171593347Y-80169499D01*
X171593331Y-80169500D01*
X171277135Y-80169500D01*
X171210096Y-80149815D01*
X171164341Y-80097011D01*
X171154397Y-80027853D01*
X171183422Y-79964297D01*
X171206852Y-79944204D01*
X171206816Y-79944159D01*
X171208087Y-79943144D01*
X171211166Y-79940505D01*
X171211598Y-79940232D01*
X171212262Y-79939816D01*
X171339816Y-79812262D01*
X171435789Y-79659522D01*
X171495368Y-79489255D01*
X171496839Y-79476206D01*
X171515565Y-79310002D01*
X171515565Y-79309998D01*
X171509971Y-79260354D01*
X171522025Y-79191532D01*
X171569374Y-79140152D01*
X171619309Y-79123249D01*
X171689249Y-79115369D01*
X171689252Y-79115368D01*
X171689255Y-79115368D01*
X171859522Y-79055789D01*
X172012262Y-78959816D01*
X172139816Y-78832262D01*
X172235789Y-78679522D01*
X172295368Y-78509255D01*
X172301647Y-78453521D01*
X172328712Y-78389110D01*
X172386306Y-78349554D01*
X172410972Y-78344187D01*
X172489255Y-78335368D01*
X172659522Y-78275789D01*
X172812262Y-78179816D01*
X172939816Y-78052262D01*
X173035789Y-77899522D01*
X173095368Y-77729255D01*
X173101003Y-77679247D01*
X173115342Y-77551981D01*
X173142408Y-77487567D01*
X173200003Y-77448012D01*
X173224680Y-77442644D01*
X173289249Y-77435369D01*
X173289252Y-77435368D01*
X173289255Y-77435368D01*
X173459522Y-77375789D01*
X173612262Y-77279816D01*
X173739816Y-77152262D01*
X173835789Y-76999522D01*
X173895368Y-76829255D01*
X173911142Y-76689255D01*
X173915565Y-76650003D01*
X173915565Y-76649996D01*
X173899791Y-76509996D01*
X174474435Y-76509996D01*
X174474435Y-76510003D01*
X174494630Y-76689249D01*
X174494631Y-76689254D01*
X174554211Y-76859523D01*
X174647307Y-77007684D01*
X174650184Y-77012262D01*
X174777738Y-77139816D01*
X174809565Y-77159814D01*
X174928730Y-77234691D01*
X174930478Y-77235789D01*
X175059341Y-77280880D01*
X175100745Y-77295368D01*
X175100750Y-77295369D01*
X175279996Y-77315565D01*
X175280000Y-77315565D01*
X175280004Y-77315565D01*
X175459249Y-77295369D01*
X175459252Y-77295368D01*
X175459255Y-77295368D01*
X175629522Y-77235789D01*
X175782262Y-77139816D01*
X175782262Y-77139815D01*
X175782755Y-77139506D01*
X175848727Y-77120500D01*
X182617588Y-77120500D01*
X182684627Y-77140185D01*
X182694903Y-77147555D01*
X182697736Y-77149814D01*
X182697738Y-77149816D01*
X182776837Y-77199517D01*
X182834561Y-77235788D01*
X182850478Y-77245789D01*
X183020745Y-77305368D01*
X183020750Y-77305369D01*
X183199996Y-77325565D01*
X183200000Y-77325565D01*
X183200004Y-77325565D01*
X183379249Y-77305369D01*
X183379252Y-77305368D01*
X183379255Y-77305368D01*
X183549522Y-77245789D01*
X183702262Y-77149816D01*
X183702262Y-77149815D01*
X183702755Y-77149506D01*
X183768727Y-77130500D01*
X187937588Y-77130500D01*
X188004627Y-77150185D01*
X188014903Y-77157555D01*
X188017736Y-77159814D01*
X188017738Y-77159816D01*
X188080922Y-77199517D01*
X188154561Y-77245788D01*
X188170478Y-77255789D01*
X188340745Y-77315368D01*
X188340750Y-77315369D01*
X188519996Y-77335565D01*
X188520000Y-77335565D01*
X188520004Y-77335565D01*
X188699249Y-77315369D01*
X188699252Y-77315368D01*
X188699255Y-77315368D01*
X188869522Y-77255789D01*
X189022262Y-77159816D01*
X189022267Y-77159810D01*
X189025097Y-77157555D01*
X189027275Y-77156665D01*
X189028158Y-77156111D01*
X189028255Y-77156265D01*
X189089783Y-77131145D01*
X189102412Y-77130500D01*
X190927588Y-77130500D01*
X190994627Y-77150185D01*
X191004903Y-77157555D01*
X191007736Y-77159814D01*
X191007738Y-77159816D01*
X191070922Y-77199517D01*
X191144561Y-77245788D01*
X191160478Y-77255789D01*
X191330745Y-77315368D01*
X191330750Y-77315369D01*
X191509996Y-77335565D01*
X191510000Y-77335565D01*
X191510004Y-77335565D01*
X191689249Y-77315369D01*
X191689252Y-77315368D01*
X191689255Y-77315368D01*
X191859522Y-77255789D01*
X191875439Y-77245788D01*
X191878246Y-77244023D01*
X191976631Y-77182203D01*
X192043864Y-77163204D01*
X192110700Y-77183571D01*
X192130282Y-77199517D01*
X192799298Y-77868533D01*
X192832783Y-77929856D01*
X192834837Y-77942330D01*
X192844630Y-78029249D01*
X192844631Y-78029254D01*
X192844632Y-78029255D01*
X192845748Y-78032445D01*
X192904210Y-78199521D01*
X192940462Y-78257215D01*
X193000184Y-78352262D01*
X193127738Y-78479816D01*
X193280478Y-78575789D01*
X193408306Y-78620518D01*
X193450745Y-78635368D01*
X193450750Y-78635369D01*
X193629996Y-78655565D01*
X193630000Y-78655565D01*
X193630004Y-78655565D01*
X193809249Y-78635369D01*
X193809252Y-78635368D01*
X193809255Y-78635368D01*
X193979522Y-78575789D01*
X194132262Y-78479816D01*
X194259816Y-78352262D01*
X194355789Y-78199522D01*
X194415368Y-78029255D01*
X194415369Y-78029249D01*
X194435565Y-77850003D01*
X194435565Y-77849996D01*
X194415369Y-77670750D01*
X194415368Y-77670745D01*
X194377360Y-77562124D01*
X194355789Y-77500478D01*
X194347676Y-77487567D01*
X194291305Y-77397853D01*
X194259816Y-77347738D01*
X194132262Y-77220184D01*
X194032589Y-77157555D01*
X193979521Y-77124210D01*
X193809249Y-77064630D01*
X193722330Y-77054837D01*
X193657916Y-77027770D01*
X193648533Y-77019298D01*
X192797590Y-76168355D01*
X192797588Y-76168352D01*
X192678717Y-76049481D01*
X192678709Y-76049475D01*
X192576936Y-75990717D01*
X192576934Y-75990716D01*
X192541790Y-75970425D01*
X192541789Y-75970424D01*
X192522696Y-75965308D01*
X192389057Y-75929499D01*
X192230943Y-75929499D01*
X192223347Y-75929499D01*
X192223331Y-75929500D01*
X192092412Y-75929500D01*
X192025373Y-75909815D01*
X192015097Y-75902445D01*
X192012263Y-75900185D01*
X192012262Y-75900184D01*
X191955496Y-75864515D01*
X191859523Y-75804211D01*
X191689254Y-75744631D01*
X191689249Y-75744630D01*
X191510004Y-75724435D01*
X191509996Y-75724435D01*
X191330750Y-75744630D01*
X191330745Y-75744631D01*
X191160476Y-75804211D01*
X191007736Y-75900185D01*
X191004903Y-75902445D01*
X191002724Y-75903334D01*
X191001842Y-75903889D01*
X191001744Y-75903734D01*
X190940217Y-75928855D01*
X190927588Y-75929500D01*
X189102412Y-75929500D01*
X189035373Y-75909815D01*
X189025097Y-75902445D01*
X189022263Y-75900185D01*
X189022262Y-75900184D01*
X188965496Y-75864515D01*
X188869523Y-75804211D01*
X188699254Y-75744631D01*
X188699249Y-75744630D01*
X188520004Y-75724435D01*
X188519996Y-75724435D01*
X188340750Y-75744630D01*
X188340745Y-75744631D01*
X188170476Y-75804211D01*
X188017736Y-75900185D01*
X188014903Y-75902445D01*
X188012724Y-75903334D01*
X188011842Y-75903889D01*
X188011744Y-75903734D01*
X187950217Y-75928855D01*
X187937588Y-75929500D01*
X183792940Y-75929500D01*
X183725901Y-75909815D01*
X183705259Y-75893181D01*
X183702262Y-75890184D01*
X183549523Y-75794211D01*
X183379254Y-75734631D01*
X183379249Y-75734630D01*
X183200004Y-75714435D01*
X183199996Y-75714435D01*
X183020750Y-75734630D01*
X183020745Y-75734631D01*
X182850476Y-75794211D01*
X182697736Y-75890185D01*
X182694903Y-75892445D01*
X182692724Y-75893334D01*
X182691842Y-75893889D01*
X182691744Y-75893734D01*
X182630217Y-75918855D01*
X182617588Y-75919500D01*
X175872940Y-75919500D01*
X175805901Y-75899815D01*
X175785259Y-75883181D01*
X175782262Y-75880184D01*
X175629523Y-75784211D01*
X175459254Y-75724631D01*
X175459249Y-75724630D01*
X175280004Y-75704435D01*
X175279996Y-75704435D01*
X175100750Y-75724630D01*
X175100745Y-75724631D01*
X174930476Y-75784211D01*
X174777737Y-75880184D01*
X174650184Y-76007737D01*
X174554211Y-76160476D01*
X174494631Y-76330745D01*
X174494630Y-76330750D01*
X174474435Y-76509996D01*
X173899791Y-76509996D01*
X173895369Y-76470750D01*
X173895368Y-76470745D01*
X173879115Y-76424297D01*
X173835789Y-76300478D01*
X173835411Y-76299877D01*
X173796582Y-76238080D01*
X173739816Y-76147738D01*
X173612262Y-76020184D01*
X173533071Y-75970425D01*
X173459521Y-75924210D01*
X173289249Y-75864630D01*
X173202330Y-75854837D01*
X173137916Y-75827770D01*
X173128533Y-75819298D01*
X171379234Y-74069999D01*
X194464357Y-74069999D01*
X194464357Y-74070000D01*
X194484884Y-74291535D01*
X194484885Y-74291537D01*
X194545769Y-74505523D01*
X194545775Y-74505538D01*
X194644938Y-74704683D01*
X194644943Y-74704691D01*
X194779020Y-74882238D01*
X194943437Y-75032123D01*
X194943439Y-75032125D01*
X195132595Y-75149245D01*
X195132597Y-75149246D01*
X195132599Y-75149247D01*
X195338618Y-75229059D01*
X195394017Y-75271630D01*
X195417608Y-75337396D01*
X195401897Y-75405477D01*
X195351874Y-75454256D01*
X195338616Y-75460310D01*
X195182610Y-75520747D01*
X195182595Y-75520754D01*
X194993439Y-75637874D01*
X194993437Y-75637876D01*
X194829020Y-75787761D01*
X194694943Y-75965308D01*
X194694938Y-75965316D01*
X194595775Y-76164461D01*
X194595769Y-76164476D01*
X194534885Y-76378462D01*
X194534884Y-76378464D01*
X194514357Y-76599999D01*
X194514357Y-76600000D01*
X194534884Y-76821535D01*
X194534885Y-76821537D01*
X194595769Y-77035523D01*
X194595775Y-77035538D01*
X194694938Y-77234683D01*
X194694943Y-77234691D01*
X194829020Y-77412238D01*
X194993437Y-77562123D01*
X194993439Y-77562125D01*
X195182595Y-77679245D01*
X195182596Y-77679245D01*
X195182599Y-77679247D01*
X195390060Y-77759618D01*
X195608757Y-77800500D01*
X195608759Y-77800500D01*
X195831241Y-77800500D01*
X195831243Y-77800500D01*
X196049940Y-77759618D01*
X196257401Y-77679247D01*
X196446562Y-77562124D01*
X196610981Y-77412236D01*
X196745058Y-77234689D01*
X196844229Y-77035528D01*
X196870734Y-76942371D01*
X196908013Y-76883278D01*
X196971323Y-76853721D01*
X197040562Y-76863083D01*
X197093749Y-76908393D01*
X197109266Y-76942372D01*
X197135769Y-77035523D01*
X197135775Y-77035538D01*
X197234938Y-77234683D01*
X197234943Y-77234691D01*
X197369020Y-77412238D01*
X197533437Y-77562123D01*
X197533439Y-77562125D01*
X197722595Y-77679245D01*
X197722596Y-77679245D01*
X197722599Y-77679247D01*
X197930060Y-77759618D01*
X198148757Y-77800500D01*
X198148759Y-77800500D01*
X198371241Y-77800500D01*
X198371243Y-77800500D01*
X198589940Y-77759618D01*
X198797401Y-77679247D01*
X198986562Y-77562124D01*
X199150981Y-77412236D01*
X199285058Y-77234689D01*
X199302572Y-77199517D01*
X199334500Y-77135397D01*
X199382003Y-77084160D01*
X199449666Y-77066739D01*
X199516006Y-77088665D01*
X199559961Y-77142976D01*
X199569500Y-77190669D01*
X199569500Y-83765500D01*
X199549815Y-83832539D01*
X199497011Y-83878294D01*
X199445500Y-83889500D01*
X199370655Y-83889500D01*
X199303616Y-83869815D01*
X199269080Y-83836623D01*
X199161599Y-83683124D01*
X199086019Y-83607544D01*
X199006877Y-83528402D01*
X198827639Y-83402898D01*
X198827640Y-83402898D01*
X198827638Y-83402897D01*
X198728484Y-83356661D01*
X198629330Y-83310425D01*
X198629326Y-83310424D01*
X198629322Y-83310422D01*
X198417977Y-83253793D01*
X198200002Y-83234723D01*
X198199998Y-83234723D01*
X198054682Y-83247436D01*
X197982023Y-83253793D01*
X197982020Y-83253793D01*
X197770677Y-83310422D01*
X197770668Y-83310426D01*
X197572361Y-83402898D01*
X197572357Y-83402900D01*
X197393121Y-83528402D01*
X197238402Y-83683121D01*
X197112900Y-83862357D01*
X197112898Y-83862361D01*
X197020426Y-84060668D01*
X197020422Y-84060677D01*
X196963793Y-84272020D01*
X196963793Y-84272024D01*
X196945736Y-84478425D01*
X196944723Y-84490000D01*
X196961456Y-84681269D01*
X196963793Y-84707975D01*
X196963793Y-84707979D01*
X197020422Y-84919322D01*
X197020424Y-84919326D01*
X197020425Y-84919330D01*
X197048062Y-84978597D01*
X197112897Y-85117638D01*
X197112898Y-85117639D01*
X197238402Y-85296877D01*
X197393123Y-85451598D01*
X197572361Y-85577102D01*
X197770670Y-85669575D01*
X197982023Y-85726207D01*
X198164926Y-85742208D01*
X198199998Y-85745277D01*
X198200000Y-85745277D01*
X198200002Y-85745277D01*
X198228254Y-85742805D01*
X198417977Y-85726207D01*
X198629330Y-85669575D01*
X198827639Y-85577102D01*
X199006877Y-85451598D01*
X199161598Y-85296877D01*
X199269081Y-85143374D01*
X199323657Y-85099751D01*
X199370655Y-85090500D01*
X199693331Y-85090500D01*
X199693347Y-85090501D01*
X199700943Y-85090501D01*
X199859054Y-85090501D01*
X199859057Y-85090501D01*
X200011785Y-85049577D01*
X200061904Y-85020639D01*
X200148716Y-84970520D01*
X200260520Y-84858716D01*
X200260520Y-84858714D01*
X200270728Y-84848507D01*
X200270730Y-84848504D01*
X200528506Y-84590728D01*
X200528511Y-84590724D01*
X200538714Y-84580520D01*
X200538716Y-84580520D01*
X200650520Y-84468716D01*
X200720120Y-84348165D01*
X200729577Y-84331785D01*
X200770500Y-84179058D01*
X200770500Y-84020943D01*
X200770500Y-74610943D01*
X200729577Y-74458216D01*
X200703109Y-74412372D01*
X200650524Y-74321290D01*
X200650521Y-74321286D01*
X200650520Y-74321284D01*
X200538716Y-74209480D01*
X200538715Y-74209479D01*
X200534385Y-74205149D01*
X200534374Y-74205139D01*
X200037590Y-73708355D01*
X200037588Y-73708352D01*
X199918717Y-73589481D01*
X199918716Y-73589480D01*
X199831904Y-73539360D01*
X199831904Y-73539359D01*
X199831900Y-73539358D01*
X199781785Y-73510423D01*
X199629057Y-73469499D01*
X199470943Y-73469499D01*
X199463347Y-73469499D01*
X199463331Y-73469500D01*
X199322621Y-73469500D01*
X199255582Y-73449815D01*
X199223667Y-73420227D01*
X199100979Y-73257761D01*
X198936562Y-73107876D01*
X198936560Y-73107874D01*
X198747404Y-72990754D01*
X198747398Y-72990752D01*
X198539940Y-72910382D01*
X198321243Y-72869500D01*
X198098757Y-72869500D01*
X197880060Y-72910382D01*
X197751507Y-72960184D01*
X197672601Y-72990752D01*
X197672595Y-72990754D01*
X197483439Y-73107874D01*
X197483437Y-73107876D01*
X197319020Y-73257761D01*
X197184943Y-73435308D01*
X197184938Y-73435316D01*
X197085775Y-73634461D01*
X197085769Y-73634476D01*
X197059266Y-73727627D01*
X197021987Y-73786721D01*
X196958677Y-73816278D01*
X196889438Y-73806916D01*
X196836251Y-73761606D01*
X196820734Y-73727627D01*
X196805865Y-73675368D01*
X196794229Y-73634472D01*
X196784926Y-73615789D01*
X196695061Y-73435316D01*
X196695056Y-73435308D01*
X196560979Y-73257761D01*
X196396562Y-73107876D01*
X196396560Y-73107874D01*
X196207404Y-72990754D01*
X196207398Y-72990752D01*
X195999940Y-72910382D01*
X195781243Y-72869500D01*
X195558757Y-72869500D01*
X195340060Y-72910382D01*
X195211507Y-72960184D01*
X195132601Y-72990752D01*
X195132595Y-72990754D01*
X194943439Y-73107874D01*
X194943437Y-73107876D01*
X194779020Y-73257761D01*
X194644943Y-73435308D01*
X194644938Y-73435316D01*
X194545775Y-73634461D01*
X194545769Y-73634476D01*
X194484885Y-73848462D01*
X194484884Y-73848464D01*
X194464357Y-74069999D01*
X171379234Y-74069999D01*
X170616819Y-73307584D01*
X170583334Y-73246261D01*
X170580500Y-73219903D01*
X170580500Y-65909090D01*
X170600185Y-65842051D01*
X170652101Y-65796706D01*
X170657830Y-65794035D01*
X170851401Y-65658495D01*
X171018495Y-65491401D01*
X171154035Y-65297830D01*
X171253903Y-65083663D01*
X171315063Y-64855408D01*
X171335659Y-64620000D01*
X171335659Y-64619999D01*
X173439341Y-64619999D01*
X173439341Y-64620000D01*
X173459936Y-64855403D01*
X173459938Y-64855413D01*
X173521094Y-65083655D01*
X173521096Y-65083659D01*
X173521097Y-65083663D01*
X173576533Y-65202546D01*
X173620965Y-65297830D01*
X173620967Y-65297834D01*
X173728277Y-65451087D01*
X173756505Y-65491401D01*
X173923599Y-65658495D01*
X174020384Y-65726265D01*
X174117165Y-65794032D01*
X174117167Y-65794033D01*
X174117170Y-65794035D01*
X174331337Y-65893903D01*
X174559592Y-65955063D01*
X174736034Y-65970500D01*
X174794999Y-65975659D01*
X174795000Y-65975659D01*
X174795001Y-65975659D01*
X174853966Y-65970500D01*
X175030408Y-65955063D01*
X175258663Y-65893903D01*
X175472830Y-65794035D01*
X175666401Y-65658495D01*
X175833495Y-65491401D01*
X175963425Y-65305842D01*
X176018002Y-65262217D01*
X176087500Y-65255023D01*
X176149855Y-65286546D01*
X176166575Y-65305842D01*
X176296500Y-65491395D01*
X176296505Y-65491401D01*
X176463599Y-65658495D01*
X176560384Y-65726265D01*
X176657165Y-65794032D01*
X176657167Y-65794033D01*
X176657170Y-65794035D01*
X176871337Y-65893903D01*
X177099592Y-65955063D01*
X177276034Y-65970500D01*
X177334999Y-65975659D01*
X177335000Y-65975659D01*
X177335001Y-65975659D01*
X177393966Y-65970500D01*
X177570408Y-65955063D01*
X177798663Y-65893903D01*
X178012830Y-65794035D01*
X178206401Y-65658495D01*
X178373495Y-65491401D01*
X178503425Y-65305842D01*
X178558002Y-65262217D01*
X178627500Y-65255023D01*
X178689855Y-65286546D01*
X178706575Y-65305842D01*
X178836500Y-65491395D01*
X178836505Y-65491401D01*
X179003599Y-65658495D01*
X179100384Y-65726265D01*
X179197165Y-65794032D01*
X179197167Y-65794033D01*
X179197170Y-65794035D01*
X179411337Y-65893903D01*
X179639592Y-65955063D01*
X179816034Y-65970500D01*
X179874999Y-65975659D01*
X179875000Y-65975659D01*
X179875001Y-65975659D01*
X179933966Y-65970500D01*
X180110408Y-65955063D01*
X180338663Y-65893903D01*
X180552830Y-65794035D01*
X180746401Y-65658495D01*
X180913495Y-65491401D01*
X181043425Y-65305842D01*
X181098002Y-65262217D01*
X181167500Y-65255023D01*
X181229855Y-65286546D01*
X181246575Y-65305842D01*
X181376500Y-65491395D01*
X181376505Y-65491401D01*
X181543599Y-65658495D01*
X181640384Y-65726265D01*
X181737165Y-65794032D01*
X181737167Y-65794033D01*
X181737170Y-65794035D01*
X181951337Y-65893903D01*
X182179592Y-65955063D01*
X182356034Y-65970500D01*
X182414999Y-65975659D01*
X182415000Y-65975659D01*
X182415001Y-65975659D01*
X182473966Y-65970500D01*
X182650408Y-65955063D01*
X182878663Y-65893903D01*
X183092830Y-65794035D01*
X183286401Y-65658495D01*
X183453495Y-65491401D01*
X183583425Y-65305842D01*
X183638002Y-65262217D01*
X183707500Y-65255023D01*
X183769855Y-65286546D01*
X183786575Y-65305842D01*
X183916500Y-65491395D01*
X183916505Y-65491401D01*
X184083599Y-65658495D01*
X184180384Y-65726265D01*
X184277165Y-65794032D01*
X184277167Y-65794033D01*
X184277170Y-65794035D01*
X184491337Y-65893903D01*
X184719592Y-65955063D01*
X184896034Y-65970500D01*
X184954999Y-65975659D01*
X184955000Y-65975659D01*
X184955001Y-65975659D01*
X185013966Y-65970500D01*
X185190408Y-65955063D01*
X185418663Y-65893903D01*
X185632830Y-65794035D01*
X185826401Y-65658495D01*
X185993495Y-65491401D01*
X186123425Y-65305842D01*
X186178002Y-65262217D01*
X186247500Y-65255023D01*
X186309855Y-65286546D01*
X186326575Y-65305842D01*
X186456500Y-65491395D01*
X186456505Y-65491401D01*
X186623599Y-65658495D01*
X186720384Y-65726265D01*
X186817165Y-65794032D01*
X186817167Y-65794033D01*
X186817170Y-65794035D01*
X187031337Y-65893903D01*
X187259592Y-65955063D01*
X187436034Y-65970500D01*
X187494999Y-65975659D01*
X187495000Y-65975659D01*
X187495001Y-65975659D01*
X187553966Y-65970500D01*
X187730408Y-65955063D01*
X187958663Y-65893903D01*
X188172830Y-65794035D01*
X188366401Y-65658495D01*
X188533495Y-65491401D01*
X188663425Y-65305842D01*
X188718002Y-65262217D01*
X188787500Y-65255023D01*
X188849855Y-65286546D01*
X188866575Y-65305842D01*
X188996500Y-65491395D01*
X188996505Y-65491401D01*
X189163599Y-65658495D01*
X189260384Y-65726265D01*
X189357165Y-65794032D01*
X189357167Y-65794033D01*
X189357170Y-65794035D01*
X189571337Y-65893903D01*
X189799592Y-65955063D01*
X189976034Y-65970500D01*
X190034999Y-65975659D01*
X190035000Y-65975659D01*
X190035001Y-65975659D01*
X190093966Y-65970500D01*
X190270408Y-65955063D01*
X190498663Y-65893903D01*
X190712830Y-65794035D01*
X190906401Y-65658495D01*
X191028329Y-65536566D01*
X191089648Y-65503084D01*
X191159340Y-65508068D01*
X191215274Y-65549939D01*
X191232189Y-65580917D01*
X191281202Y-65712328D01*
X191281206Y-65712335D01*
X191367452Y-65827544D01*
X191367455Y-65827547D01*
X191482664Y-65913793D01*
X191482671Y-65913797D01*
X191617517Y-65964091D01*
X191617516Y-65964091D01*
X191624444Y-65964835D01*
X191677127Y-65970500D01*
X193472872Y-65970499D01*
X193532483Y-65964091D01*
X193667331Y-65913796D01*
X193782546Y-65827546D01*
X193868796Y-65712331D01*
X193919091Y-65577483D01*
X193925500Y-65517873D01*
X193925499Y-63722128D01*
X193919091Y-63662517D01*
X193917810Y-63659083D01*
X193868797Y-63527671D01*
X193868793Y-63527664D01*
X193782547Y-63412455D01*
X193782544Y-63412452D01*
X193667335Y-63326206D01*
X193667328Y-63326202D01*
X193532482Y-63275908D01*
X193532483Y-63275908D01*
X193472883Y-63269501D01*
X193472881Y-63269500D01*
X193472873Y-63269500D01*
X193472864Y-63269500D01*
X191677129Y-63269500D01*
X191677123Y-63269501D01*
X191617516Y-63275908D01*
X191482671Y-63326202D01*
X191482664Y-63326206D01*
X191367455Y-63412452D01*
X191367452Y-63412455D01*
X191281206Y-63527664D01*
X191281203Y-63527669D01*
X191232189Y-63659083D01*
X191190317Y-63715016D01*
X191124853Y-63739433D01*
X191056580Y-63724581D01*
X191028326Y-63703430D01*
X190906402Y-63581506D01*
X190906395Y-63581501D01*
X190712834Y-63445967D01*
X190712830Y-63445965D01*
X190712828Y-63445964D01*
X190498663Y-63346097D01*
X190498659Y-63346096D01*
X190498655Y-63346094D01*
X190270413Y-63284938D01*
X190270403Y-63284936D01*
X190035001Y-63264341D01*
X190034999Y-63264341D01*
X189799596Y-63284936D01*
X189799586Y-63284938D01*
X189571344Y-63346094D01*
X189571335Y-63346098D01*
X189357171Y-63445964D01*
X189357169Y-63445965D01*
X189163597Y-63581505D01*
X188996505Y-63748597D01*
X188866575Y-63934158D01*
X188811998Y-63977783D01*
X188742500Y-63984977D01*
X188680145Y-63953454D01*
X188663425Y-63934158D01*
X188533494Y-63748597D01*
X188366402Y-63581506D01*
X188366395Y-63581501D01*
X188172834Y-63445967D01*
X188172830Y-63445965D01*
X188172828Y-63445964D01*
X187958663Y-63346097D01*
X187958659Y-63346096D01*
X187958655Y-63346094D01*
X187730413Y-63284938D01*
X187730403Y-63284936D01*
X187495001Y-63264341D01*
X187494999Y-63264341D01*
X187259596Y-63284936D01*
X187259586Y-63284938D01*
X187031344Y-63346094D01*
X187031335Y-63346098D01*
X186817171Y-63445964D01*
X186817169Y-63445965D01*
X186623597Y-63581505D01*
X186456505Y-63748597D01*
X186326575Y-63934158D01*
X186271998Y-63977783D01*
X186202500Y-63984977D01*
X186140145Y-63953454D01*
X186123425Y-63934158D01*
X185993494Y-63748597D01*
X185826402Y-63581506D01*
X185826395Y-63581501D01*
X185632834Y-63445967D01*
X185632830Y-63445965D01*
X185632828Y-63445964D01*
X185418663Y-63346097D01*
X185418659Y-63346096D01*
X185418655Y-63346094D01*
X185190413Y-63284938D01*
X185190403Y-63284936D01*
X184955001Y-63264341D01*
X184954999Y-63264341D01*
X184719596Y-63284936D01*
X184719586Y-63284938D01*
X184491344Y-63346094D01*
X184491335Y-63346098D01*
X184277171Y-63445964D01*
X184277169Y-63445965D01*
X184083597Y-63581505D01*
X183916505Y-63748597D01*
X183786575Y-63934158D01*
X183731998Y-63977783D01*
X183662500Y-63984977D01*
X183600145Y-63953454D01*
X183583425Y-63934158D01*
X183453494Y-63748597D01*
X183286402Y-63581506D01*
X183286395Y-63581501D01*
X183092834Y-63445967D01*
X183092830Y-63445965D01*
X183092828Y-63445964D01*
X182878663Y-63346097D01*
X182878659Y-63346096D01*
X182878655Y-63346094D01*
X182650413Y-63284938D01*
X182650403Y-63284936D01*
X182415001Y-63264341D01*
X182414999Y-63264341D01*
X182179596Y-63284936D01*
X182179586Y-63284938D01*
X181951344Y-63346094D01*
X181951335Y-63346098D01*
X181737171Y-63445964D01*
X181737169Y-63445965D01*
X181543597Y-63581505D01*
X181376505Y-63748597D01*
X181246575Y-63934158D01*
X181191998Y-63977783D01*
X181122500Y-63984977D01*
X181060145Y-63953454D01*
X181043425Y-63934158D01*
X180913494Y-63748597D01*
X180746402Y-63581506D01*
X180746395Y-63581501D01*
X180552834Y-63445967D01*
X180552830Y-63445965D01*
X180552828Y-63445964D01*
X180338663Y-63346097D01*
X180338659Y-63346096D01*
X180338655Y-63346094D01*
X180110413Y-63284938D01*
X180110403Y-63284936D01*
X179875001Y-63264341D01*
X179874999Y-63264341D01*
X179639596Y-63284936D01*
X179639586Y-63284938D01*
X179411344Y-63346094D01*
X179411335Y-63346098D01*
X179197171Y-63445964D01*
X179197169Y-63445965D01*
X179003597Y-63581505D01*
X178836505Y-63748597D01*
X178706575Y-63934158D01*
X178651998Y-63977783D01*
X178582500Y-63984977D01*
X178520145Y-63953454D01*
X178503425Y-63934158D01*
X178373494Y-63748597D01*
X178206402Y-63581506D01*
X178206395Y-63581501D01*
X178012834Y-63445967D01*
X178012830Y-63445965D01*
X178012828Y-63445964D01*
X177798663Y-63346097D01*
X177798659Y-63346096D01*
X177798655Y-63346094D01*
X177570413Y-63284938D01*
X177570403Y-63284936D01*
X177335001Y-63264341D01*
X177334999Y-63264341D01*
X177099596Y-63284936D01*
X177099586Y-63284938D01*
X176871344Y-63346094D01*
X176871335Y-63346098D01*
X176657171Y-63445964D01*
X176657169Y-63445965D01*
X176463597Y-63581505D01*
X176296505Y-63748597D01*
X176166575Y-63934158D01*
X176111998Y-63977783D01*
X176042500Y-63984977D01*
X175980145Y-63953454D01*
X175963425Y-63934158D01*
X175833494Y-63748597D01*
X175666402Y-63581506D01*
X175666395Y-63581501D01*
X175472834Y-63445967D01*
X175472830Y-63445965D01*
X175472828Y-63445964D01*
X175258663Y-63346097D01*
X175258659Y-63346096D01*
X175258655Y-63346094D01*
X175030413Y-63284938D01*
X175030403Y-63284936D01*
X174795001Y-63264341D01*
X174794999Y-63264341D01*
X174559596Y-63284936D01*
X174559586Y-63284938D01*
X174331344Y-63346094D01*
X174331335Y-63346098D01*
X174117171Y-63445964D01*
X174117169Y-63445965D01*
X173923597Y-63581505D01*
X173756505Y-63748597D01*
X173620965Y-63942169D01*
X173620964Y-63942171D01*
X173521098Y-64156335D01*
X173521094Y-64156344D01*
X173459938Y-64384586D01*
X173459936Y-64384596D01*
X173439341Y-64619999D01*
X171335659Y-64619999D01*
X171315063Y-64384592D01*
X171253903Y-64156337D01*
X171154035Y-63942171D01*
X171148425Y-63934158D01*
X171018494Y-63748597D01*
X170851402Y-63581506D01*
X170851395Y-63581501D01*
X170657834Y-63445967D01*
X170657830Y-63445965D01*
X170657828Y-63445964D01*
X170443663Y-63346097D01*
X170443659Y-63346096D01*
X170443655Y-63346094D01*
X170215413Y-63284938D01*
X170215403Y-63284936D01*
X169980001Y-63264341D01*
X169979999Y-63264341D01*
X169744596Y-63284936D01*
X169744586Y-63284938D01*
X169516344Y-63346094D01*
X169516335Y-63346098D01*
X169302171Y-63445964D01*
X169302169Y-63445965D01*
X169108597Y-63581505D01*
X168941505Y-63748597D01*
X168811575Y-63934158D01*
X168756998Y-63977783D01*
X168687500Y-63984977D01*
X168625145Y-63953454D01*
X168608425Y-63934158D01*
X168478494Y-63748597D01*
X168311402Y-63581506D01*
X168311395Y-63581501D01*
X168117834Y-63445967D01*
X168117830Y-63445965D01*
X168117828Y-63445964D01*
X167903663Y-63346097D01*
X167903659Y-63346096D01*
X167903655Y-63346094D01*
X167675413Y-63284938D01*
X167675403Y-63284936D01*
X167440001Y-63264341D01*
X167439999Y-63264341D01*
X167204596Y-63284936D01*
X167204586Y-63284938D01*
X166976344Y-63346094D01*
X166976335Y-63346098D01*
X166762171Y-63445964D01*
X166762169Y-63445965D01*
X166568597Y-63581505D01*
X166401505Y-63748597D01*
X166271575Y-63934158D01*
X166216998Y-63977783D01*
X166147500Y-63984977D01*
X166085145Y-63953454D01*
X166068425Y-63934158D01*
X165938494Y-63748597D01*
X165771402Y-63581506D01*
X165771395Y-63581501D01*
X165577834Y-63445967D01*
X165577830Y-63445965D01*
X165577828Y-63445964D01*
X165363663Y-63346097D01*
X165363659Y-63346096D01*
X165363655Y-63346094D01*
X165135413Y-63284938D01*
X165135403Y-63284936D01*
X164900001Y-63264341D01*
X164899999Y-63264341D01*
X164664596Y-63284936D01*
X164664586Y-63284938D01*
X164436344Y-63346094D01*
X164436335Y-63346098D01*
X164222171Y-63445964D01*
X164222169Y-63445965D01*
X164028597Y-63581505D01*
X163861505Y-63748597D01*
X163731575Y-63934158D01*
X163676998Y-63977783D01*
X163607500Y-63984977D01*
X163545145Y-63953454D01*
X163528425Y-63934158D01*
X163398494Y-63748597D01*
X163231402Y-63581506D01*
X163231395Y-63581501D01*
X163037834Y-63445967D01*
X163037830Y-63445965D01*
X163037828Y-63445964D01*
X162823663Y-63346097D01*
X162823659Y-63346096D01*
X162823655Y-63346094D01*
X162595413Y-63284938D01*
X162595403Y-63284936D01*
X162360001Y-63264341D01*
X162359999Y-63264341D01*
X162124596Y-63284936D01*
X162124586Y-63284938D01*
X161896344Y-63346094D01*
X161896335Y-63346098D01*
X161682171Y-63445964D01*
X161682169Y-63445965D01*
X161488597Y-63581505D01*
X161321505Y-63748597D01*
X161191575Y-63934158D01*
X161136998Y-63977783D01*
X161067500Y-63984977D01*
X161005145Y-63953454D01*
X160988425Y-63934158D01*
X160858494Y-63748597D01*
X160691402Y-63581506D01*
X160691395Y-63581501D01*
X160497834Y-63445967D01*
X160497830Y-63445965D01*
X160497828Y-63445964D01*
X160283663Y-63346097D01*
X160283659Y-63346096D01*
X160283655Y-63346094D01*
X160055413Y-63284938D01*
X160055403Y-63284936D01*
X159820001Y-63264341D01*
X159819999Y-63264341D01*
X159584596Y-63284936D01*
X159584586Y-63284938D01*
X159356344Y-63346094D01*
X159356335Y-63346098D01*
X159142171Y-63445964D01*
X159142169Y-63445965D01*
X158948597Y-63581505D01*
X158781505Y-63748597D01*
X158651575Y-63934158D01*
X158596998Y-63977783D01*
X158527500Y-63984977D01*
X158465145Y-63953454D01*
X158448425Y-63934158D01*
X158318494Y-63748597D01*
X158151402Y-63581506D01*
X158151395Y-63581501D01*
X157957834Y-63445967D01*
X157957830Y-63445965D01*
X157957828Y-63445964D01*
X157743663Y-63346097D01*
X157743659Y-63346096D01*
X157743655Y-63346094D01*
X157515413Y-63284938D01*
X157515403Y-63284936D01*
X157280001Y-63264341D01*
X157279999Y-63264341D01*
X157044596Y-63284936D01*
X157044586Y-63284938D01*
X156816344Y-63346094D01*
X156816335Y-63346098D01*
X156602171Y-63445964D01*
X156602169Y-63445965D01*
X156408597Y-63581505D01*
X156241505Y-63748597D01*
X156111575Y-63934158D01*
X156056998Y-63977783D01*
X155987500Y-63984977D01*
X155925145Y-63953454D01*
X155908425Y-63934158D01*
X155778494Y-63748597D01*
X155611402Y-63581506D01*
X155611395Y-63581501D01*
X155417834Y-63445967D01*
X155417830Y-63445965D01*
X155417828Y-63445964D01*
X155203663Y-63346097D01*
X155203659Y-63346096D01*
X155203655Y-63346094D01*
X154975413Y-63284938D01*
X154975403Y-63284936D01*
X154740001Y-63264341D01*
X154739999Y-63264341D01*
X154504596Y-63284936D01*
X154504586Y-63284938D01*
X154276344Y-63346094D01*
X154276335Y-63346098D01*
X154062171Y-63445964D01*
X154062169Y-63445965D01*
X153868600Y-63581503D01*
X153746673Y-63703430D01*
X153685350Y-63736914D01*
X153615658Y-63731930D01*
X153559725Y-63690058D01*
X153542810Y-63659081D01*
X153493797Y-63527671D01*
X153493793Y-63527664D01*
X153407547Y-63412455D01*
X153407544Y-63412452D01*
X153292335Y-63326206D01*
X153292328Y-63326202D01*
X153157482Y-63275908D01*
X153157483Y-63275908D01*
X153097883Y-63269501D01*
X153097881Y-63269500D01*
X153097873Y-63269500D01*
X153097864Y-63269500D01*
X151302129Y-63269500D01*
X151302123Y-63269501D01*
X151242516Y-63275908D01*
X151107671Y-63326202D01*
X151107664Y-63326206D01*
X150992455Y-63412452D01*
X150992452Y-63412455D01*
X150906206Y-63527664D01*
X150906202Y-63527671D01*
X150855908Y-63662517D01*
X150849763Y-63719680D01*
X150849501Y-63722123D01*
X150849500Y-63722135D01*
X150849500Y-65517870D01*
X150849501Y-65517876D01*
X150855908Y-65577483D01*
X150906202Y-65712328D01*
X150906206Y-65712335D01*
X150992452Y-65827544D01*
X150992455Y-65827547D01*
X151107664Y-65913793D01*
X151107671Y-65913797D01*
X151242517Y-65964091D01*
X151242516Y-65964091D01*
X151249444Y-65964835D01*
X151302127Y-65970500D01*
X153097872Y-65970499D01*
X153157483Y-65964091D01*
X153292331Y-65913796D01*
X153407546Y-65827546D01*
X153493796Y-65712331D01*
X153542810Y-65580916D01*
X153584681Y-65524984D01*
X153650145Y-65500566D01*
X153718418Y-65515417D01*
X153746673Y-65536569D01*
X153868599Y-65658495D01*
X153965384Y-65726265D01*
X154062165Y-65794032D01*
X154062167Y-65794033D01*
X154062170Y-65794035D01*
X154276337Y-65893903D01*
X154504592Y-65955063D01*
X154681034Y-65970500D01*
X154739999Y-65975659D01*
X154740000Y-65975659D01*
X154740001Y-65975659D01*
X154798966Y-65970500D01*
X154975408Y-65955063D01*
X155203663Y-65893903D01*
X155417830Y-65794035D01*
X155611401Y-65658495D01*
X155778495Y-65491401D01*
X155908425Y-65305842D01*
X155963002Y-65262217D01*
X156032500Y-65255023D01*
X156094855Y-65286546D01*
X156111575Y-65305842D01*
X156241500Y-65491395D01*
X156241505Y-65491401D01*
X156408599Y-65658495D01*
X156505384Y-65726265D01*
X156602165Y-65794032D01*
X156602167Y-65794033D01*
X156602170Y-65794035D01*
X156816337Y-65893903D01*
X157044592Y-65955063D01*
X157221034Y-65970500D01*
X157279999Y-65975659D01*
X157280000Y-65975659D01*
X157280001Y-65975659D01*
X157338966Y-65970500D01*
X157515408Y-65955063D01*
X157743663Y-65893903D01*
X157957830Y-65794035D01*
X158151401Y-65658495D01*
X158318495Y-65491401D01*
X158448425Y-65305842D01*
X158503002Y-65262217D01*
X158572500Y-65255023D01*
X158634855Y-65286546D01*
X158651575Y-65305842D01*
X158781500Y-65491395D01*
X158781505Y-65491401D01*
X158948599Y-65658495D01*
X159045384Y-65726265D01*
X159142165Y-65794032D01*
X159142167Y-65794033D01*
X159142170Y-65794035D01*
X159356337Y-65893903D01*
X159584592Y-65955063D01*
X159761034Y-65970500D01*
X159819999Y-65975659D01*
X159820000Y-65975659D01*
X159820001Y-65975659D01*
X159878966Y-65970500D01*
X160055408Y-65955063D01*
X160283663Y-65893903D01*
X160497830Y-65794035D01*
X160691401Y-65658495D01*
X160858495Y-65491401D01*
X160988425Y-65305842D01*
X161043002Y-65262217D01*
X161112500Y-65255023D01*
X161174855Y-65286546D01*
X161191575Y-65305842D01*
X161321500Y-65491395D01*
X161321505Y-65491401D01*
X161488599Y-65658495D01*
X161585384Y-65726265D01*
X161682165Y-65794032D01*
X161682167Y-65794033D01*
X161682170Y-65794035D01*
X161687898Y-65796706D01*
X161740339Y-65842872D01*
X161759500Y-65909090D01*
X161759500Y-70873330D01*
X161759499Y-70873348D01*
X161759499Y-71039054D01*
X161759498Y-71039054D01*
X161759499Y-71039057D01*
X161800304Y-71191342D01*
X161800424Y-71191787D01*
X161815406Y-71217736D01*
X161815407Y-71217738D01*
X161879477Y-71328712D01*
X161879481Y-71328717D01*
X161998349Y-71447585D01*
X161998355Y-71447590D01*
X165363541Y-74812776D01*
X165397026Y-74874099D01*
X165392042Y-74943791D01*
X165350170Y-74999724D01*
X165316815Y-75017498D01*
X165240480Y-75044209D01*
X165087737Y-75140184D01*
X164960184Y-75267737D01*
X164864211Y-75420476D01*
X164804631Y-75590745D01*
X164804630Y-75590750D01*
X164784435Y-75769996D01*
X164784435Y-75770003D01*
X164804630Y-75949249D01*
X164804631Y-75949254D01*
X164864211Y-76119523D01*
X164950988Y-76257627D01*
X164960184Y-76272262D01*
X165087738Y-76399816D01*
X165240478Y-76495789D01*
X165410745Y-76555368D01*
X165497669Y-76565161D01*
X165562080Y-76592226D01*
X165571465Y-76600700D01*
X167517866Y-78547101D01*
X167547226Y-78593827D01*
X167584210Y-78699520D01*
X167584212Y-78699524D01*
X167619269Y-78755317D01*
X167680184Y-78852262D01*
X167807738Y-78979816D01*
X167869303Y-79018500D01*
X167928646Y-79055788D01*
X167960478Y-79075789D01*
X168096111Y-79123249D01*
X168130745Y-79135368D01*
X168130750Y-79135369D01*
X168309996Y-79155565D01*
X168310000Y-79155565D01*
X168310004Y-79155565D01*
X168489249Y-79135369D01*
X168489252Y-79135368D01*
X168489255Y-79135368D01*
X168659522Y-79075789D01*
X168812262Y-78979816D01*
X168939816Y-78852262D01*
X169035789Y-78699522D01*
X169035790Y-78699520D01*
X169035833Y-78699452D01*
X169088168Y-78653161D01*
X169157221Y-78642513D01*
X169221070Y-78670888D01*
X169228508Y-78677743D01*
X169879298Y-79328533D01*
X169912783Y-79389856D01*
X169914837Y-79402330D01*
X169924630Y-79489249D01*
X169984210Y-79659521D01*
X170080184Y-79812262D01*
X170207737Y-79939815D01*
X170207741Y-79939818D01*
X170208834Y-79940505D01*
X170209389Y-79941132D01*
X170213184Y-79944159D01*
X170212654Y-79944823D01*
X170255127Y-79992838D01*
X170265777Y-80061891D01*
X170237403Y-80125740D01*
X170179015Y-80164114D01*
X170142865Y-80169500D01*
X147474499Y-80169500D01*
X147407460Y-80149815D01*
X147361705Y-80097011D01*
X147350499Y-80045500D01*
X147350499Y-79872129D01*
X147350498Y-79872123D01*
X147350497Y-79872116D01*
X147344091Y-79812517D01*
X147293796Y-79677669D01*
X147293795Y-79677668D01*
X147293793Y-79677664D01*
X147207547Y-79562455D01*
X147207544Y-79562452D01*
X147092335Y-79476206D01*
X147092328Y-79476202D01*
X146957482Y-79425908D01*
X146957483Y-79425908D01*
X146897883Y-79419501D01*
X146897881Y-79419500D01*
X146897873Y-79419500D01*
X146897864Y-79419500D01*
X145102129Y-79419500D01*
X145102123Y-79419501D01*
X145042516Y-79425908D01*
X144907671Y-79476202D01*
X144907664Y-79476206D01*
X144792455Y-79562452D01*
X144792452Y-79562455D01*
X144706206Y-79677664D01*
X144706202Y-79677671D01*
X144655908Y-79812517D01*
X144649501Y-79872116D01*
X144649501Y-79872123D01*
X144649500Y-79872135D01*
X144649500Y-81667870D01*
X144649501Y-81667876D01*
X144655908Y-81727483D01*
X144706202Y-81862328D01*
X144706206Y-81862335D01*
X144792452Y-81977544D01*
X144792455Y-81977547D01*
X144907664Y-82063793D01*
X144907671Y-82063797D01*
X144907674Y-82063798D01*
X145039598Y-82113002D01*
X145095531Y-82154873D01*
X145119949Y-82220337D01*
X145105098Y-82288610D01*
X145083947Y-82316865D01*
X144961886Y-82438926D01*
X144826400Y-82632420D01*
X144826399Y-82632422D01*
X144726570Y-82846507D01*
X144726567Y-82846513D01*
X144669364Y-83059999D01*
X144669364Y-83060000D01*
X145566988Y-83060000D01*
X145534075Y-83117007D01*
X145500000Y-83244174D01*
X145500000Y-83375826D01*
X145534075Y-83502993D01*
X145566988Y-83560000D01*
X144669364Y-83560000D01*
X144726567Y-83773486D01*
X144726570Y-83773492D01*
X144826399Y-83987578D01*
X144961894Y-84181082D01*
X145128917Y-84348105D01*
X145314595Y-84478119D01*
X145358219Y-84532696D01*
X145365412Y-84602195D01*
X145333890Y-84664549D01*
X145314595Y-84681269D01*
X145128594Y-84811508D01*
X144961505Y-84978597D01*
X144825965Y-85172169D01*
X144825964Y-85172171D01*
X144726098Y-85386335D01*
X144726094Y-85386344D01*
X144664938Y-85614586D01*
X144664936Y-85614596D01*
X144644341Y-85849999D01*
X102550500Y-85849999D01*
X102550500Y-83732486D01*
X122225001Y-83732486D01*
X122235494Y-83835197D01*
X122290641Y-84001619D01*
X122290643Y-84001624D01*
X122382684Y-84150845D01*
X122506654Y-84274815D01*
X122655875Y-84366856D01*
X122655880Y-84366858D01*
X122822302Y-84422005D01*
X122822309Y-84422006D01*
X122925019Y-84432499D01*
X123824999Y-84432499D01*
X124325000Y-84432499D01*
X125224972Y-84432499D01*
X125224986Y-84432498D01*
X125327697Y-84422005D01*
X125494119Y-84366858D01*
X125494124Y-84366856D01*
X125643345Y-84274815D01*
X125767315Y-84150845D01*
X125859356Y-84001624D01*
X125859358Y-84001619D01*
X125914505Y-83835197D01*
X125914506Y-83835190D01*
X125924999Y-83732486D01*
X125925000Y-83732473D01*
X125925000Y-83432500D01*
X124325000Y-83432500D01*
X124325000Y-84432499D01*
X123824999Y-84432499D01*
X123825000Y-84432498D01*
X123825000Y-83432500D01*
X122225001Y-83432500D01*
X122225001Y-83732486D01*
X102550500Y-83732486D01*
X102550500Y-79991386D01*
X110029500Y-79991386D01*
X110029500Y-81928613D01*
X110029501Y-81928652D01*
X110032295Y-81981243D01*
X110032295Y-81981244D01*
X110067174Y-82161586D01*
X110076755Y-82211126D01*
X110113197Y-82307690D01*
X110159425Y-82430189D01*
X110277929Y-82632131D01*
X110277934Y-82632138D01*
X110428856Y-82811141D01*
X110428858Y-82811143D01*
X110607861Y-82962065D01*
X110607868Y-82962070D01*
X110809810Y-83080574D01*
X111028874Y-83163245D01*
X111258759Y-83207705D01*
X111311378Y-83210500D01*
X111311386Y-83210500D01*
X113248614Y-83210500D01*
X113248622Y-83210500D01*
X113301241Y-83207705D01*
X113531126Y-83163245D01*
X113584761Y-83143004D01*
X123775000Y-83143004D01*
X123775000Y-83221996D01*
X123795444Y-83298296D01*
X123834940Y-83366705D01*
X123890795Y-83422560D01*
X123959204Y-83462056D01*
X124035504Y-83482500D01*
X124114496Y-83482500D01*
X124190796Y-83462056D01*
X124259205Y-83422560D01*
X124315060Y-83366705D01*
X124354556Y-83298296D01*
X124375000Y-83221996D01*
X124375000Y-83143004D01*
X124354556Y-83066704D01*
X124315060Y-82998295D01*
X124259205Y-82942440D01*
X124241988Y-82932500D01*
X124325000Y-82932500D01*
X125924999Y-82932500D01*
X125924999Y-82632528D01*
X125924998Y-82632513D01*
X125914505Y-82529802D01*
X125859358Y-82363380D01*
X125859356Y-82363375D01*
X125767315Y-82214154D01*
X125643345Y-82090184D01*
X125494124Y-81998143D01*
X125494119Y-81998141D01*
X125327697Y-81942994D01*
X125327690Y-81942993D01*
X125224986Y-81932500D01*
X124325000Y-81932500D01*
X124325000Y-82932500D01*
X124241988Y-82932500D01*
X124190796Y-82902944D01*
X124114496Y-82882500D01*
X124035504Y-82882500D01*
X123959204Y-82902944D01*
X123890795Y-82942440D01*
X123834940Y-82998295D01*
X123795444Y-83066704D01*
X123775000Y-83143004D01*
X113584761Y-83143004D01*
X113750190Y-83080574D01*
X113952132Y-82962070D01*
X114089401Y-82846335D01*
X114131141Y-82811143D01*
X114131143Y-82811141D01*
X114281749Y-82632513D01*
X122225000Y-82632513D01*
X122225000Y-82932500D01*
X123825000Y-82932500D01*
X123825000Y-81932500D01*
X122925028Y-81932500D01*
X122925012Y-81932501D01*
X122822302Y-81942994D01*
X122655880Y-81998141D01*
X122655875Y-81998143D01*
X122506654Y-82090184D01*
X122382684Y-82214154D01*
X122290643Y-82363375D01*
X122290641Y-82363380D01*
X122235494Y-82529802D01*
X122235493Y-82529809D01*
X122225000Y-82632513D01*
X114281749Y-82632513D01*
X114282065Y-82632138D01*
X114282065Y-82632137D01*
X114282070Y-82632132D01*
X114400574Y-82430190D01*
X114483245Y-82211126D01*
X114527705Y-81981241D01*
X114530500Y-81928622D01*
X114530500Y-81502135D01*
X127714500Y-81502135D01*
X127714500Y-83297870D01*
X127714501Y-83297876D01*
X127720908Y-83357483D01*
X127771202Y-83492328D01*
X127771206Y-83492335D01*
X127857452Y-83607544D01*
X127857455Y-83607547D01*
X127972664Y-83693793D01*
X127972671Y-83693797D01*
X128107517Y-83744091D01*
X128107516Y-83744091D01*
X128114444Y-83744835D01*
X128167127Y-83750500D01*
X129962872Y-83750499D01*
X130022483Y-83744091D01*
X130157331Y-83693796D01*
X130272546Y-83607546D01*
X130358796Y-83492331D01*
X130407810Y-83360916D01*
X130449681Y-83304984D01*
X130515145Y-83280566D01*
X130583418Y-83295417D01*
X130611673Y-83316569D01*
X130733599Y-83438495D01*
X130825712Y-83502993D01*
X130927165Y-83574032D01*
X130927167Y-83574033D01*
X130927170Y-83574035D01*
X131141337Y-83673903D01*
X131141343Y-83673904D01*
X131141344Y-83673905D01*
X131196285Y-83688626D01*
X131369592Y-83735063D01*
X131546034Y-83750500D01*
X131604999Y-83755659D01*
X131605000Y-83755659D01*
X131605001Y-83755659D01*
X131663966Y-83750500D01*
X131840408Y-83735063D01*
X132068663Y-83673903D01*
X132282830Y-83574035D01*
X132476401Y-83438495D01*
X132643495Y-83271401D01*
X132779035Y-83077830D01*
X132878903Y-82863663D01*
X132940063Y-82635408D01*
X132960659Y-82400000D01*
X132940063Y-82164592D01*
X132880687Y-81942994D01*
X132878905Y-81936344D01*
X132878904Y-81936343D01*
X132878903Y-81936337D01*
X132779035Y-81722171D01*
X132774341Y-81715466D01*
X132643494Y-81528597D01*
X132476402Y-81361506D01*
X132476395Y-81361501D01*
X132282834Y-81225967D01*
X132282830Y-81225965D01*
X132282828Y-81225964D01*
X132068663Y-81126097D01*
X132068659Y-81126096D01*
X132068655Y-81126094D01*
X131840413Y-81064938D01*
X131840403Y-81064936D01*
X131605001Y-81044341D01*
X131604999Y-81044341D01*
X131369596Y-81064936D01*
X131369586Y-81064938D01*
X131141344Y-81126094D01*
X131141335Y-81126098D01*
X130927171Y-81225964D01*
X130927169Y-81225965D01*
X130733600Y-81361503D01*
X130611673Y-81483430D01*
X130550350Y-81516914D01*
X130480658Y-81511930D01*
X130424725Y-81470058D01*
X130407810Y-81439081D01*
X130358797Y-81307671D01*
X130358793Y-81307664D01*
X130272547Y-81192455D01*
X130272544Y-81192452D01*
X130157335Y-81106206D01*
X130157328Y-81106202D01*
X130022482Y-81055908D01*
X130022483Y-81055908D01*
X129962883Y-81049501D01*
X129962881Y-81049500D01*
X129962873Y-81049500D01*
X129962864Y-81049500D01*
X128167129Y-81049500D01*
X128167123Y-81049501D01*
X128107516Y-81055908D01*
X127972671Y-81106202D01*
X127972664Y-81106206D01*
X127857455Y-81192452D01*
X127857452Y-81192455D01*
X127771206Y-81307664D01*
X127771202Y-81307671D01*
X127720908Y-81442517D01*
X127714501Y-81502116D01*
X127714500Y-81502135D01*
X114530500Y-81502135D01*
X114530500Y-79991378D01*
X114527705Y-79938759D01*
X114483245Y-79708874D01*
X114400574Y-79489810D01*
X114282070Y-79287868D01*
X114282065Y-79287861D01*
X114131143Y-79108858D01*
X114131141Y-79108856D01*
X113952138Y-78957934D01*
X113952131Y-78957929D01*
X113768186Y-78849986D01*
X131397501Y-78849986D01*
X131407994Y-78952697D01*
X131463141Y-79119119D01*
X131463143Y-79119124D01*
X131555184Y-79268345D01*
X131679154Y-79392315D01*
X131828375Y-79484356D01*
X131828380Y-79484358D01*
X131994802Y-79539505D01*
X131994809Y-79539506D01*
X132097519Y-79549999D01*
X132297499Y-79549999D01*
X132797500Y-79549999D01*
X132997472Y-79549999D01*
X132997486Y-79549998D01*
X133100197Y-79539505D01*
X133266619Y-79484358D01*
X133266624Y-79484356D01*
X133415845Y-79392315D01*
X133539815Y-79268345D01*
X133631856Y-79119124D01*
X133631858Y-79119119D01*
X133687005Y-78952697D01*
X133687006Y-78952690D01*
X133697499Y-78849986D01*
X133697500Y-78849973D01*
X133697500Y-78450000D01*
X132797500Y-78450000D01*
X132797500Y-79549999D01*
X132297499Y-79549999D01*
X132297500Y-79549998D01*
X132297500Y-78450000D01*
X131397501Y-78450000D01*
X131397501Y-78849986D01*
X113768186Y-78849986D01*
X113750189Y-78839425D01*
X113652513Y-78802564D01*
X113531126Y-78756755D01*
X113531121Y-78756754D01*
X113531116Y-78756752D01*
X113528470Y-78756240D01*
X113527451Y-78755713D01*
X113526050Y-78755317D01*
X113526130Y-78755031D01*
X113466392Y-78724177D01*
X113431503Y-78663641D01*
X113434881Y-78593853D01*
X113475452Y-78536970D01*
X113540337Y-78511052D01*
X113552009Y-78510499D01*
X117077872Y-78510499D01*
X117137483Y-78504091D01*
X117272331Y-78453796D01*
X117387546Y-78367546D01*
X117473796Y-78252331D01*
X117511862Y-78150272D01*
X132297500Y-78150272D01*
X132297500Y-78249728D01*
X132335560Y-78341614D01*
X132405886Y-78411940D01*
X132497772Y-78450000D01*
X132597228Y-78450000D01*
X132689114Y-78411940D01*
X132759440Y-78341614D01*
X132797500Y-78249728D01*
X132797500Y-78150272D01*
X132759440Y-78058386D01*
X132689114Y-77988060D01*
X132597228Y-77950000D01*
X132797500Y-77950000D01*
X133697499Y-77950000D01*
X133697499Y-77550028D01*
X133697498Y-77550013D01*
X133687005Y-77447302D01*
X133631858Y-77280880D01*
X133631856Y-77280875D01*
X133539815Y-77131654D01*
X133415845Y-77007684D01*
X133266624Y-76915643D01*
X133266619Y-76915641D01*
X133100197Y-76860494D01*
X133100190Y-76860493D01*
X132997486Y-76850000D01*
X132797500Y-76850000D01*
X132797500Y-77950000D01*
X132597228Y-77950000D01*
X132497772Y-77950000D01*
X132405886Y-77988060D01*
X132335560Y-78058386D01*
X132297500Y-78150272D01*
X117511862Y-78150272D01*
X117524091Y-78117483D01*
X117530500Y-78057873D01*
X117530500Y-77550013D01*
X131397500Y-77550013D01*
X131397500Y-77950000D01*
X132297500Y-77950000D01*
X132297500Y-76850000D01*
X132097529Y-76850000D01*
X132097512Y-76850001D01*
X131994802Y-76860494D01*
X131828380Y-76915641D01*
X131828375Y-76915643D01*
X131679154Y-77007684D01*
X131555184Y-77131654D01*
X131463143Y-77280875D01*
X131463141Y-77280880D01*
X131407994Y-77447302D01*
X131407993Y-77447309D01*
X131397500Y-77550013D01*
X117530500Y-77550013D01*
X117530499Y-74462128D01*
X117524091Y-74402517D01*
X117515093Y-74378393D01*
X117473797Y-74267671D01*
X117473793Y-74267664D01*
X117387547Y-74152455D01*
X117387544Y-74152452D01*
X117272335Y-74066206D01*
X117272328Y-74066202D01*
X117137482Y-74015908D01*
X117137483Y-74015908D01*
X117077883Y-74009501D01*
X117077881Y-74009500D01*
X117077873Y-74009500D01*
X117077864Y-74009500D01*
X113482129Y-74009500D01*
X113482123Y-74009501D01*
X113422516Y-74015908D01*
X113287671Y-74066202D01*
X113287664Y-74066206D01*
X113172455Y-74152452D01*
X113172452Y-74152455D01*
X113086206Y-74267664D01*
X113086202Y-74267671D01*
X113035908Y-74402517D01*
X113031798Y-74440750D01*
X113029501Y-74462123D01*
X113029500Y-74462135D01*
X113029500Y-78057870D01*
X113029501Y-78057876D01*
X113035908Y-78117483D01*
X113086202Y-78252328D01*
X113086206Y-78252335D01*
X113172452Y-78367544D01*
X113172455Y-78367547D01*
X113287664Y-78453793D01*
X113287673Y-78453798D01*
X113334937Y-78471426D01*
X113390871Y-78513296D01*
X113415289Y-78578760D01*
X113400438Y-78647033D01*
X113351033Y-78696439D01*
X113285028Y-78711433D01*
X113248657Y-78709501D01*
X113248628Y-78709500D01*
X113248622Y-78709500D01*
X111311378Y-78709500D01*
X111311370Y-78709500D01*
X111311347Y-78709501D01*
X111258756Y-78712295D01*
X111258755Y-78712295D01*
X111028878Y-78756754D01*
X111028876Y-78756754D01*
X111028874Y-78756755D01*
X110954933Y-78784659D01*
X110809810Y-78839425D01*
X110607868Y-78957929D01*
X110607861Y-78957934D01*
X110428858Y-79108856D01*
X110428856Y-79108858D01*
X110277934Y-79287861D01*
X110277929Y-79287868D01*
X110159425Y-79489810D01*
X110132012Y-79562452D01*
X110076755Y-79708874D01*
X110076754Y-79708876D01*
X110076754Y-79708878D01*
X110032295Y-79938755D01*
X110032295Y-79938756D01*
X110029501Y-79991347D01*
X110029500Y-79991386D01*
X102550500Y-79991386D01*
X102550500Y-75195777D01*
X107279500Y-75195777D01*
X107279500Y-77324208D01*
X107279501Y-77324223D01*
X107289904Y-77456413D01*
X107289905Y-77456420D01*
X107344902Y-77674678D01*
X107344903Y-77674681D01*
X107437991Y-77879622D01*
X107437997Y-77879632D01*
X107566174Y-78064645D01*
X107566178Y-78064650D01*
X107566181Y-78064654D01*
X107725346Y-78223819D01*
X107725350Y-78223822D01*
X107725354Y-78223825D01*
X107800360Y-78275789D01*
X107910374Y-78352007D01*
X108115317Y-78445096D01*
X108115321Y-78445097D01*
X108333579Y-78500094D01*
X108333581Y-78500094D01*
X108333588Y-78500096D01*
X108465783Y-78510500D01*
X110094216Y-78510499D01*
X110226412Y-78500096D01*
X110444683Y-78445096D01*
X110649626Y-78352007D01*
X110834654Y-78223819D01*
X110993819Y-78064654D01*
X111122007Y-77879626D01*
X111215096Y-77674683D01*
X111270096Y-77456412D01*
X111280500Y-77324217D01*
X111280499Y-75195784D01*
X111270096Y-75063588D01*
X111265213Y-75044211D01*
X111215097Y-74845321D01*
X111215096Y-74845318D01*
X111194173Y-74799255D01*
X111122007Y-74640374D01*
X111028592Y-74505538D01*
X110993825Y-74455354D01*
X110993822Y-74455350D01*
X110993819Y-74455346D01*
X110834654Y-74296181D01*
X110834650Y-74296178D01*
X110834645Y-74296174D01*
X110649632Y-74167997D01*
X110649630Y-74167995D01*
X110649626Y-74167993D01*
X110615411Y-74152452D01*
X110444681Y-74074903D01*
X110444678Y-74074902D01*
X110226420Y-74019905D01*
X110226413Y-74019904D01*
X110175638Y-74015908D01*
X110094217Y-74009500D01*
X110094215Y-74009500D01*
X108465791Y-74009500D01*
X108465776Y-74009501D01*
X108333586Y-74019904D01*
X108333579Y-74019905D01*
X108115321Y-74074902D01*
X108115318Y-74074903D01*
X107910377Y-74167991D01*
X107910367Y-74167997D01*
X107725354Y-74296174D01*
X107725342Y-74296184D01*
X107566184Y-74455342D01*
X107566174Y-74455354D01*
X107437997Y-74640367D01*
X107437991Y-74640377D01*
X107344903Y-74845318D01*
X107344902Y-74845321D01*
X107289905Y-75063579D01*
X107289904Y-75063586D01*
X107279500Y-75195777D01*
X102550500Y-75195777D01*
X102550500Y-71609983D01*
X118409500Y-71609983D01*
X118409500Y-73410001D01*
X118409501Y-73410018D01*
X118420000Y-73512796D01*
X118420001Y-73512799D01*
X118461892Y-73639215D01*
X118475186Y-73679334D01*
X118567288Y-73828656D01*
X118691344Y-73952712D01*
X118840666Y-74044814D01*
X119007203Y-74099999D01*
X119109991Y-74110500D01*
X119910008Y-74110499D01*
X119910016Y-74110498D01*
X119910019Y-74110498D01*
X119966302Y-74104748D01*
X120012797Y-74099999D01*
X120179334Y-74044814D01*
X120328656Y-73952712D01*
X120452712Y-73828656D01*
X120544814Y-73679334D01*
X120574418Y-73589996D01*
X126464435Y-73589996D01*
X126464435Y-73590003D01*
X126484630Y-73769249D01*
X126484631Y-73769254D01*
X126544211Y-73939523D01*
X126601354Y-74030465D01*
X126640184Y-74092262D01*
X126767738Y-74219816D01*
X126817819Y-74251284D01*
X126881879Y-74291536D01*
X126920478Y-74315789D01*
X127090745Y-74375368D01*
X127090750Y-74375369D01*
X127269996Y-74395565D01*
X127270000Y-74395565D01*
X127270004Y-74395565D01*
X127449249Y-74375369D01*
X127449252Y-74375368D01*
X127449255Y-74375368D01*
X127619522Y-74315789D01*
X127772262Y-74219816D01*
X127899816Y-74092262D01*
X127995789Y-73939522D01*
X128055368Y-73769255D01*
X128065161Y-73682329D01*
X128092226Y-73617919D01*
X128100701Y-73608533D01*
X128182418Y-73526818D01*
X128243741Y-73493333D01*
X128270098Y-73490500D01*
X135207588Y-73490500D01*
X135274627Y-73510185D01*
X135284903Y-73517555D01*
X135287736Y-73519814D01*
X135287738Y-73519816D01*
X135440478Y-73615789D01*
X135507426Y-73639215D01*
X135610745Y-73675368D01*
X135610750Y-73675369D01*
X135789996Y-73695565D01*
X135790000Y-73695565D01*
X135790004Y-73695565D01*
X135969249Y-73675369D01*
X135969252Y-73675368D01*
X135969255Y-73675368D01*
X136139522Y-73615789D01*
X136292262Y-73519816D01*
X136419816Y-73392262D01*
X136515789Y-73239522D01*
X136575368Y-73069255D01*
X136584213Y-72990752D01*
X136595565Y-72890003D01*
X136595565Y-72889996D01*
X136575369Y-72710750D01*
X136575368Y-72710745D01*
X136544908Y-72623696D01*
X136515789Y-72540478D01*
X136419816Y-72387738D01*
X136292262Y-72260184D01*
X136139523Y-72164211D01*
X135969254Y-72104631D01*
X135969249Y-72104630D01*
X135790004Y-72084435D01*
X135789996Y-72084435D01*
X135610750Y-72104630D01*
X135610745Y-72104631D01*
X135440476Y-72164211D01*
X135287736Y-72260185D01*
X135284903Y-72262445D01*
X135282724Y-72263334D01*
X135281842Y-72263889D01*
X135281744Y-72263734D01*
X135220217Y-72288855D01*
X135207588Y-72289500D01*
X127890942Y-72289500D01*
X127885016Y-72291088D01*
X127738214Y-72330423D01*
X127738209Y-72330426D01*
X127601290Y-72409475D01*
X127601282Y-72409481D01*
X127489478Y-72521286D01*
X127251465Y-72759298D01*
X127190142Y-72792783D01*
X127177668Y-72794837D01*
X127090750Y-72804630D01*
X126920478Y-72864210D01*
X126767737Y-72960184D01*
X126640184Y-73087737D01*
X126544211Y-73240476D01*
X126484631Y-73410745D01*
X126484630Y-73410750D01*
X126464435Y-73589996D01*
X120574418Y-73589996D01*
X120599999Y-73512797D01*
X120610500Y-73410009D01*
X120610500Y-73384500D01*
X120630185Y-73317461D01*
X120682989Y-73271706D01*
X120734500Y-73260500D01*
X125223920Y-73260500D01*
X125329379Y-73239522D01*
X125368913Y-73231658D01*
X125505495Y-73175084D01*
X125585263Y-73121785D01*
X125628416Y-73092952D01*
X127064548Y-71656818D01*
X127125871Y-71623334D01*
X127152229Y-71620500D01*
X146607770Y-71620500D01*
X146674809Y-71640185D01*
X146695451Y-71656819D01*
X148978154Y-73939521D01*
X151179523Y-76140890D01*
X151299110Y-76260477D01*
X151317866Y-76272262D01*
X151360348Y-76298955D01*
X151363257Y-76300840D01*
X151414506Y-76335084D01*
X151414639Y-76335139D01*
X151433165Y-76344710D01*
X151435661Y-76346278D01*
X151442310Y-76350456D01*
X151498971Y-76370282D01*
X151498974Y-76370283D01*
X151505471Y-76372763D01*
X151549352Y-76390939D01*
X151603755Y-76434780D01*
X151625820Y-76501074D01*
X151608541Y-76568774D01*
X151557403Y-76616384D01*
X151501899Y-76629500D01*
X143356897Y-76629500D01*
X143290925Y-76610494D01*
X143289844Y-76609815D01*
X143169522Y-76534211D01*
X143100340Y-76510003D01*
X142999254Y-76474631D01*
X142999249Y-76474630D01*
X142820004Y-76454435D01*
X142819996Y-76454435D01*
X142640750Y-76474630D01*
X142640745Y-76474631D01*
X142470476Y-76534211D01*
X142317737Y-76630184D01*
X142190184Y-76757737D01*
X142094211Y-76910476D01*
X142034631Y-77080745D01*
X142034630Y-77080750D01*
X142014435Y-77259996D01*
X142014435Y-77260003D01*
X142034630Y-77439249D01*
X142034631Y-77439254D01*
X142094211Y-77609523D01*
X142190184Y-77762262D01*
X142275741Y-77847819D01*
X142309226Y-77909142D01*
X142304242Y-77978834D01*
X142262370Y-78034767D01*
X142196906Y-78059184D01*
X142188060Y-78059500D01*
X142172412Y-78059500D01*
X142105373Y-78039815D01*
X142095097Y-78032445D01*
X142092263Y-78030185D01*
X142092262Y-78030184D01*
X141984165Y-77962262D01*
X141939523Y-77934211D01*
X141769254Y-77874631D01*
X141769249Y-77874630D01*
X141590004Y-77854435D01*
X141589996Y-77854435D01*
X141410750Y-77874630D01*
X141410745Y-77874631D01*
X141240476Y-77934211D01*
X141087737Y-78030184D01*
X140960184Y-78157737D01*
X140864211Y-78310476D01*
X140804631Y-78480745D01*
X140804630Y-78480750D01*
X140784435Y-78659996D01*
X140784435Y-78660003D01*
X140804630Y-78839249D01*
X140804631Y-78839254D01*
X140864211Y-79009523D01*
X140955976Y-79155565D01*
X140960184Y-79162262D01*
X141087738Y-79289816D01*
X141240478Y-79385789D01*
X141410745Y-79445368D01*
X141410750Y-79445369D01*
X141589996Y-79465565D01*
X141590000Y-79465565D01*
X141590004Y-79465565D01*
X141769249Y-79445369D01*
X141769252Y-79445368D01*
X141769255Y-79445368D01*
X141939522Y-79385789D01*
X142092262Y-79289816D01*
X142092267Y-79289810D01*
X142095097Y-79287555D01*
X142097275Y-79286665D01*
X142098158Y-79286111D01*
X142098255Y-79286265D01*
X142159783Y-79261145D01*
X142172412Y-79260500D01*
X143223331Y-79260500D01*
X143223347Y-79260501D01*
X143230943Y-79260501D01*
X143389054Y-79260501D01*
X143389057Y-79260501D01*
X143541785Y-79219577D01*
X143591904Y-79190639D01*
X143678716Y-79140520D01*
X143790520Y-79028716D01*
X143790521Y-79028713D01*
X144042417Y-78776816D01*
X144103739Y-78743334D01*
X144130097Y-78740500D01*
X147260943Y-78740500D01*
X159673331Y-78740500D01*
X159673347Y-78740501D01*
X159680943Y-78740501D01*
X159839054Y-78740501D01*
X159839057Y-78740501D01*
X159991785Y-78699577D01*
X160061200Y-78659500D01*
X160128716Y-78620520D01*
X160240520Y-78508716D01*
X160240520Y-78508714D01*
X160250724Y-78498511D01*
X160250728Y-78498506D01*
X160458535Y-78290698D01*
X160519856Y-78257215D01*
X160532311Y-78255163D01*
X160619255Y-78245368D01*
X160789522Y-78185789D01*
X160942262Y-78089816D01*
X161069816Y-77962262D01*
X161165789Y-77809522D01*
X161225368Y-77639255D01*
X161228718Y-77609522D01*
X161245565Y-77460003D01*
X161245565Y-77459996D01*
X161225369Y-77280750D01*
X161225368Y-77280745D01*
X161218108Y-77259996D01*
X161165789Y-77110478D01*
X161147106Y-77080745D01*
X161096071Y-76999523D01*
X161069816Y-76957738D01*
X160942262Y-76830184D01*
X160928497Y-76821535D01*
X160789523Y-76734211D01*
X160619254Y-76674631D01*
X160619249Y-76674630D01*
X160440004Y-76654435D01*
X160439996Y-76654435D01*
X160260750Y-76674630D01*
X160260745Y-76674631D01*
X160090476Y-76734211D01*
X159937737Y-76830184D01*
X159810184Y-76957737D01*
X159714210Y-77110478D01*
X159654630Y-77280750D01*
X159644837Y-77367667D01*
X159617770Y-77432081D01*
X159609300Y-77441463D01*
X159547585Y-77503180D01*
X159486262Y-77536666D01*
X159459902Y-77539500D01*
X153939097Y-77539500D01*
X153872058Y-77519815D01*
X153826303Y-77467011D01*
X153816359Y-77397853D01*
X153845384Y-77334297D01*
X153851416Y-77327819D01*
X155922416Y-75256819D01*
X155983739Y-75223334D01*
X156010097Y-75220500D01*
X159857588Y-75220500D01*
X159924627Y-75240185D01*
X159934903Y-75247555D01*
X159937736Y-75249814D01*
X159937738Y-75249816D01*
X160040897Y-75314635D01*
X160084939Y-75342309D01*
X160090478Y-75345789D01*
X160240743Y-75398369D01*
X160260745Y-75405368D01*
X160260750Y-75405369D01*
X160439996Y-75425565D01*
X160440000Y-75425565D01*
X160440004Y-75425565D01*
X160619249Y-75405369D01*
X160619252Y-75405368D01*
X160619255Y-75405368D01*
X160789522Y-75345789D01*
X160942262Y-75249816D01*
X161069816Y-75122262D01*
X161165789Y-74969522D01*
X161225368Y-74799255D01*
X161225369Y-74799249D01*
X161245565Y-74620003D01*
X161245565Y-74619996D01*
X161225369Y-74440750D01*
X161225368Y-74440745D01*
X161202492Y-74375369D01*
X161165789Y-74270478D01*
X161069816Y-74117738D01*
X160942262Y-73990184D01*
X160861634Y-73939522D01*
X160789523Y-73894211D01*
X160619254Y-73834631D01*
X160619249Y-73834630D01*
X160440004Y-73814435D01*
X160439996Y-73814435D01*
X160260750Y-73834630D01*
X160260745Y-73834631D01*
X160090476Y-73894211D01*
X159937736Y-73990185D01*
X159934903Y-73992445D01*
X159932724Y-73993334D01*
X159931842Y-73993889D01*
X159931744Y-73993734D01*
X159870217Y-74018855D01*
X159857588Y-74019500D01*
X155630940Y-74019500D01*
X155590019Y-74030464D01*
X155590019Y-74030465D01*
X155552751Y-74040451D01*
X155478214Y-74060423D01*
X155478209Y-74060426D01*
X155341290Y-74139475D01*
X155341282Y-74139481D01*
X155275625Y-74205139D01*
X155229480Y-74251284D01*
X155229478Y-74251286D01*
X154040383Y-75440382D01*
X152887584Y-76593181D01*
X152826261Y-76626666D01*
X152799903Y-76629500D01*
X152038101Y-76629500D01*
X151971062Y-76609815D01*
X151925307Y-76557011D01*
X151915363Y-76487853D01*
X151944388Y-76424297D01*
X151990644Y-76390941D01*
X152020768Y-76378462D01*
X152034528Y-76372761D01*
X152040988Y-76370295D01*
X152097690Y-76350456D01*
X152106838Y-76344706D01*
X152125355Y-76335141D01*
X152125494Y-76335084D01*
X152176770Y-76300821D01*
X152179651Y-76298955D01*
X152240890Y-76260477D01*
X152360477Y-76140890D01*
X152398961Y-76079640D01*
X152400827Y-76076762D01*
X152408952Y-76064602D01*
X152435084Y-76025494D01*
X152435141Y-76025355D01*
X152444706Y-76006838D01*
X152450456Y-75997690D01*
X152470295Y-75940987D01*
X152472753Y-75934547D01*
X152491658Y-75888912D01*
X152494093Y-75876664D01*
X152498667Y-75859906D01*
X152506313Y-75838059D01*
X152511660Y-75790590D01*
X152513257Y-75780320D01*
X152520500Y-75743917D01*
X152520500Y-75719108D01*
X152521280Y-75705223D01*
X152525249Y-75670000D01*
X152525249Y-75669997D01*
X152521280Y-75634774D01*
X152520500Y-75620890D01*
X152520500Y-75596079D01*
X152513261Y-75559695D01*
X152511661Y-75549410D01*
X152506313Y-75501941D01*
X152503483Y-75493855D01*
X152498671Y-75480101D01*
X152494094Y-75463332D01*
X152491660Y-75451097D01*
X152491659Y-75451096D01*
X152491658Y-75451087D01*
X152472763Y-75405471D01*
X152470283Y-75398974D01*
X152451673Y-75345789D01*
X152450456Y-75342310D01*
X152444710Y-75333165D01*
X152435137Y-75314635D01*
X152435084Y-75314506D01*
X152400840Y-75263257D01*
X152398955Y-75260348D01*
X152396738Y-75256819D01*
X152360477Y-75199110D01*
X152240890Y-75079523D01*
X151050083Y-73888716D01*
X148881364Y-71719996D01*
X149964435Y-71719996D01*
X149964435Y-71720003D01*
X149984630Y-71899249D01*
X149984631Y-71899254D01*
X150044211Y-72069523D01*
X150126523Y-72200521D01*
X150140184Y-72222262D01*
X150267738Y-72349816D01*
X150420478Y-72445789D01*
X150482765Y-72467584D01*
X150590745Y-72505368D01*
X150590750Y-72505369D01*
X150769996Y-72525565D01*
X150770000Y-72525565D01*
X150770004Y-72525565D01*
X150949249Y-72505369D01*
X150949252Y-72505368D01*
X150949255Y-72505368D01*
X151119522Y-72445789D01*
X151272262Y-72349816D01*
X151272267Y-72349810D01*
X151275097Y-72347555D01*
X151277275Y-72346665D01*
X151278158Y-72346111D01*
X151278255Y-72346265D01*
X151339783Y-72321145D01*
X151352412Y-72320500D01*
X152857060Y-72320500D01*
X152924099Y-72340185D01*
X152944741Y-72356819D01*
X152947738Y-72359816D01*
X152992174Y-72387737D01*
X153084561Y-72445788D01*
X153100478Y-72455789D01*
X153257982Y-72510902D01*
X153270745Y-72515368D01*
X153270750Y-72515369D01*
X153449996Y-72535565D01*
X153450000Y-72535565D01*
X153450004Y-72535565D01*
X153629249Y-72515369D01*
X153629252Y-72515368D01*
X153629255Y-72515368D01*
X153799522Y-72455789D01*
X153952262Y-72359816D01*
X153952267Y-72359810D01*
X153955097Y-72357555D01*
X153957275Y-72356665D01*
X153958158Y-72356111D01*
X153958255Y-72356265D01*
X154019783Y-72331145D01*
X154032412Y-72330500D01*
X155437588Y-72330500D01*
X155504627Y-72350185D01*
X155514903Y-72357555D01*
X155517736Y-72359814D01*
X155517738Y-72359816D01*
X155631270Y-72431152D01*
X155654561Y-72445788D01*
X155670478Y-72455789D01*
X155827982Y-72510902D01*
X155840745Y-72515368D01*
X155840750Y-72515369D01*
X156019996Y-72535565D01*
X156020000Y-72535565D01*
X156020004Y-72535565D01*
X156199249Y-72515369D01*
X156199252Y-72515368D01*
X156199255Y-72515368D01*
X156369522Y-72455789D01*
X156522262Y-72359816D01*
X156522267Y-72359810D01*
X156525097Y-72357555D01*
X156527275Y-72356665D01*
X156528158Y-72356111D01*
X156528255Y-72356265D01*
X156589783Y-72331145D01*
X156602412Y-72330500D01*
X157957588Y-72330500D01*
X158024627Y-72350185D01*
X158034903Y-72357555D01*
X158037736Y-72359814D01*
X158037738Y-72359816D01*
X158151270Y-72431152D01*
X158174561Y-72445788D01*
X158190478Y-72455789D01*
X158347982Y-72510902D01*
X158360745Y-72515368D01*
X158360750Y-72515369D01*
X158539996Y-72535565D01*
X158540000Y-72535565D01*
X158540004Y-72535565D01*
X158719249Y-72515369D01*
X158719252Y-72515368D01*
X158719255Y-72515368D01*
X158889522Y-72455789D01*
X159042262Y-72359816D01*
X159169816Y-72232262D01*
X159265789Y-72079522D01*
X159325368Y-71909255D01*
X159326495Y-71899254D01*
X159345565Y-71730003D01*
X159345565Y-71729996D01*
X159325369Y-71550750D01*
X159325368Y-71550745D01*
X159297556Y-71471264D01*
X159265789Y-71380478D01*
X159259504Y-71370476D01*
X159169815Y-71227737D01*
X159042262Y-71100184D01*
X158889523Y-71004211D01*
X158719254Y-70944631D01*
X158719249Y-70944630D01*
X158540004Y-70924435D01*
X158539996Y-70924435D01*
X158360750Y-70944630D01*
X158360745Y-70944631D01*
X158190476Y-71004211D01*
X158037736Y-71100185D01*
X158034903Y-71102445D01*
X158032724Y-71103334D01*
X158031842Y-71103889D01*
X158031744Y-71103734D01*
X157970217Y-71128855D01*
X157957588Y-71129500D01*
X156602412Y-71129500D01*
X156535373Y-71109815D01*
X156525097Y-71102445D01*
X156522263Y-71100185D01*
X156522262Y-71100184D01*
X156424979Y-71039057D01*
X156369523Y-71004211D01*
X156199254Y-70944631D01*
X156199249Y-70944630D01*
X156020004Y-70924435D01*
X156019996Y-70924435D01*
X155840750Y-70944630D01*
X155840745Y-70944631D01*
X155670476Y-71004211D01*
X155517736Y-71100185D01*
X155514903Y-71102445D01*
X155512724Y-71103334D01*
X155511842Y-71103889D01*
X155511744Y-71103734D01*
X155450217Y-71128855D01*
X155437588Y-71129500D01*
X154032412Y-71129500D01*
X153965373Y-71109815D01*
X153955097Y-71102445D01*
X153952263Y-71100185D01*
X153952262Y-71100184D01*
X153854979Y-71039057D01*
X153799523Y-71004211D01*
X153629254Y-70944631D01*
X153629249Y-70944630D01*
X153450004Y-70924435D01*
X153449996Y-70924435D01*
X153270750Y-70944630D01*
X153270745Y-70944631D01*
X153100476Y-71004211D01*
X153000090Y-71067289D01*
X152948326Y-71099815D01*
X152947245Y-71100494D01*
X152881273Y-71119500D01*
X151352412Y-71119500D01*
X151285373Y-71099815D01*
X151275097Y-71092445D01*
X151272263Y-71090185D01*
X151272262Y-71090184D01*
X151190889Y-71039054D01*
X151119523Y-70994211D01*
X150949254Y-70934631D01*
X150949249Y-70934630D01*
X150770004Y-70914435D01*
X150769996Y-70914435D01*
X150590750Y-70934630D01*
X150590745Y-70934631D01*
X150420476Y-70994211D01*
X150267737Y-71090184D01*
X150166580Y-71191342D01*
X150140184Y-71217738D01*
X150133901Y-71227738D01*
X150044211Y-71370476D01*
X149984631Y-71540745D01*
X149984630Y-71540750D01*
X149964435Y-71719996D01*
X148881364Y-71719996D01*
X147448421Y-70287052D01*
X147448414Y-70287046D01*
X147374729Y-70237812D01*
X147374729Y-70237813D01*
X147325491Y-70204913D01*
X147188917Y-70148343D01*
X147188907Y-70148340D01*
X147043920Y-70119500D01*
X147043918Y-70119500D01*
X130236930Y-70119500D01*
X130169891Y-70099815D01*
X130124136Y-70047011D01*
X130113572Y-69982897D01*
X130119999Y-69919986D01*
X130120000Y-69919973D01*
X130120000Y-69670000D01*
X128095001Y-69670000D01*
X128095001Y-69919989D01*
X128101428Y-69982899D01*
X128088658Y-70051592D01*
X128040777Y-70102476D01*
X127978070Y-70119500D01*
X126716080Y-70119500D01*
X126571092Y-70148340D01*
X126571082Y-70148343D01*
X126434511Y-70204912D01*
X126434498Y-70204919D01*
X126311584Y-70287048D01*
X126311580Y-70287051D01*
X124875451Y-71723181D01*
X124814128Y-71756666D01*
X124787770Y-71759500D01*
X120734499Y-71759500D01*
X120667460Y-71739815D01*
X120621705Y-71687011D01*
X120610499Y-71635500D01*
X120610499Y-71609998D01*
X120610498Y-71609981D01*
X120599999Y-71507203D01*
X120599998Y-71507200D01*
X120580245Y-71447590D01*
X120544814Y-71340666D01*
X120452712Y-71191344D01*
X120328656Y-71067288D01*
X120179334Y-70975186D01*
X120012797Y-70920001D01*
X120012795Y-70920000D01*
X119910010Y-70909500D01*
X119109998Y-70909500D01*
X119109980Y-70909501D01*
X119007203Y-70920000D01*
X119007200Y-70920001D01*
X118840668Y-70975185D01*
X118840663Y-70975187D01*
X118691342Y-71067289D01*
X118567289Y-71191342D01*
X118475187Y-71340663D01*
X118475185Y-71340668D01*
X118448930Y-71419902D01*
X118420001Y-71507203D01*
X118420001Y-71507204D01*
X118420000Y-71507204D01*
X118409500Y-71609983D01*
X102550500Y-71609983D01*
X102550500Y-69380218D01*
X128907500Y-69380218D01*
X128907500Y-69459782D01*
X128937948Y-69533291D01*
X128994209Y-69589552D01*
X129067718Y-69620000D01*
X129147282Y-69620000D01*
X129220791Y-69589552D01*
X129277052Y-69533291D01*
X129307500Y-69459782D01*
X129307500Y-69380218D01*
X129277052Y-69306709D01*
X129220791Y-69250448D01*
X129147282Y-69220000D01*
X129067718Y-69220000D01*
X128994209Y-69250448D01*
X128937948Y-69306709D01*
X128907500Y-69380218D01*
X102550500Y-69380218D01*
X102550500Y-67418540D01*
X102570185Y-67351501D01*
X102622989Y-67305746D01*
X102692147Y-67295802D01*
X102755703Y-67324827D01*
X102784055Y-67360457D01*
X102817784Y-67424077D01*
X102817785Y-67424078D01*
X102817789Y-67424085D01*
X103018634Y-67720310D01*
X103018641Y-67720319D01*
X103213734Y-67950000D01*
X103250332Y-67993086D01*
X103510163Y-68239211D01*
X103510170Y-68239216D01*
X103510172Y-68239218D01*
X103537051Y-68259651D01*
X103795081Y-68455800D01*
X104101747Y-68640315D01*
X104101749Y-68640316D01*
X104101751Y-68640317D01*
X104101755Y-68640319D01*
X104423431Y-68789141D01*
X104426565Y-68790591D01*
X104765726Y-68904868D01*
X105115254Y-68981805D01*
X105471052Y-69020500D01*
X105471058Y-69020500D01*
X105828942Y-69020500D01*
X105828948Y-69020500D01*
X106184746Y-68981805D01*
X106534274Y-68904868D01*
X106873435Y-68790591D01*
X107198253Y-68640315D01*
X107504919Y-68455800D01*
X107789837Y-68239211D01*
X108049668Y-67993086D01*
X108086267Y-67949998D01*
X111454532Y-67949998D01*
X111454532Y-67950001D01*
X111474364Y-68176686D01*
X111474366Y-68176697D01*
X111533258Y-68396488D01*
X111533261Y-68396497D01*
X111629431Y-68602732D01*
X111629432Y-68602734D01*
X111759954Y-68789141D01*
X111920858Y-68950045D01*
X111920861Y-68950047D01*
X112107266Y-69080568D01*
X112313504Y-69176739D01*
X112533308Y-69235635D01*
X112695230Y-69249801D01*
X112759998Y-69255468D01*
X112760000Y-69255468D01*
X112760002Y-69255468D01*
X112817379Y-69250448D01*
X112986692Y-69235635D01*
X113206496Y-69176739D01*
X113412734Y-69080568D01*
X113599139Y-68950047D01*
X113756274Y-68792911D01*
X113817596Y-68759428D01*
X113887287Y-68764412D01*
X113943221Y-68806283D01*
X113964629Y-68852070D01*
X113965908Y-68857480D01*
X114016202Y-68992328D01*
X114016206Y-68992335D01*
X114102452Y-69107544D01*
X114102455Y-69107547D01*
X114217664Y-69193793D01*
X114217671Y-69193797D01*
X114352517Y-69244091D01*
X114352516Y-69244091D01*
X114359444Y-69244835D01*
X114412127Y-69250500D01*
X116107872Y-69250499D01*
X116167483Y-69244091D01*
X116302331Y-69193796D01*
X116417546Y-69107546D01*
X116503796Y-68992331D01*
X116530769Y-68920013D01*
X128095000Y-68920013D01*
X128095000Y-69170000D01*
X128857500Y-69170000D01*
X129357500Y-69170000D01*
X130119999Y-69170000D01*
X130119999Y-68920028D01*
X130119998Y-68920013D01*
X130109505Y-68817302D01*
X130054358Y-68650880D01*
X130054356Y-68650875D01*
X129962315Y-68501654D01*
X129838345Y-68377684D01*
X129689124Y-68285643D01*
X129689119Y-68285641D01*
X129522697Y-68230494D01*
X129522690Y-68230493D01*
X129419986Y-68220000D01*
X129357500Y-68220000D01*
X129357500Y-69170000D01*
X128857500Y-69170000D01*
X128857500Y-68220000D01*
X128857499Y-68219999D01*
X128795028Y-68220000D01*
X128795011Y-68220001D01*
X128692302Y-68230494D01*
X128525880Y-68285641D01*
X128525875Y-68285643D01*
X128376654Y-68377684D01*
X128252684Y-68501654D01*
X128160643Y-68650875D01*
X128160641Y-68650880D01*
X128105494Y-68817302D01*
X128105493Y-68817309D01*
X128095000Y-68920013D01*
X116530769Y-68920013D01*
X116554091Y-68857483D01*
X116560500Y-68797873D01*
X116560499Y-67102128D01*
X116554091Y-67042517D01*
X116519567Y-66949954D01*
X116503797Y-66907671D01*
X116503793Y-66907664D01*
X116417547Y-66792455D01*
X116417544Y-66792452D01*
X116302335Y-66706206D01*
X116302328Y-66706202D01*
X116167482Y-66655908D01*
X116167483Y-66655908D01*
X116107883Y-66649501D01*
X116107881Y-66649500D01*
X116107873Y-66649500D01*
X116107864Y-66649500D01*
X114412129Y-66649500D01*
X114412123Y-66649501D01*
X114352516Y-66655908D01*
X114217671Y-66706202D01*
X114217664Y-66706206D01*
X114102455Y-66792452D01*
X114102452Y-66792455D01*
X114016206Y-66907664D01*
X114016202Y-66907671D01*
X113965909Y-67042513D01*
X113964632Y-67047922D01*
X113930058Y-67108638D01*
X113868147Y-67141023D01*
X113798556Y-67134796D01*
X113756274Y-67107087D01*
X113599141Y-66949954D01*
X113412734Y-66819432D01*
X113412732Y-66819431D01*
X113206497Y-66723261D01*
X113206488Y-66723258D01*
X112986697Y-66664366D01*
X112986693Y-66664365D01*
X112986692Y-66664365D01*
X112986691Y-66664364D01*
X112986686Y-66664364D01*
X112760002Y-66644532D01*
X112759998Y-66644532D01*
X112533313Y-66664364D01*
X112533302Y-66664366D01*
X112313511Y-66723258D01*
X112313502Y-66723261D01*
X112107267Y-66819431D01*
X112107265Y-66819432D01*
X111920858Y-66949954D01*
X111759954Y-67110858D01*
X111629432Y-67297265D01*
X111629431Y-67297267D01*
X111533261Y-67503502D01*
X111533258Y-67503511D01*
X111474366Y-67723302D01*
X111474364Y-67723313D01*
X111454532Y-67949998D01*
X108086267Y-67949998D01*
X108281365Y-67720311D01*
X108482211Y-67424085D01*
X108649853Y-67107880D01*
X108782324Y-66775403D01*
X108878071Y-66430552D01*
X108935972Y-66077371D01*
X108955348Y-65720000D01*
X108954932Y-65712335D01*
X108951775Y-65654108D01*
X108935972Y-65362629D01*
X108935638Y-65360593D01*
X108878073Y-65009460D01*
X108878072Y-65009459D01*
X108878071Y-65009448D01*
X108782324Y-64664597D01*
X108683076Y-64415504D01*
X108649857Y-64332129D01*
X108649848Y-64332111D01*
X108482215Y-64015922D01*
X108482213Y-64015919D01*
X108482211Y-64015915D01*
X108281365Y-63719689D01*
X108281361Y-63719684D01*
X108281358Y-63719680D01*
X108049668Y-63446914D01*
X108013287Y-63412452D01*
X107789837Y-63200789D01*
X107789828Y-63200782D01*
X107789827Y-63200781D01*
X107722245Y-63149407D01*
X107504919Y-62984200D01*
X107283122Y-62850749D01*
X107235829Y-62799321D01*
X107223846Y-62730486D01*
X107250981Y-62666101D01*
X107308618Y-62626607D01*
X107347052Y-62620500D01*
X129486685Y-62620500D01*
X129553724Y-62640185D01*
G37*
%TD.AperFunction*%
%TD*%
M02*
