%TF.GenerationSoftware,KiCad,Pcbnew,8.0.4*%
%TF.CreationDate,2024-09-09T16:31:10-03:00*%
%TF.ProjectId,Esquem_tico_V1,45737175-656d-4e17-9469-636f5f56312e,rev?*%
%TF.SameCoordinates,Original*%
%TF.FileFunction,Soldermask,Top*%
%TF.FilePolarity,Negative*%
%FSLAX46Y46*%
G04 Gerber Fmt 4.6, Leading zero omitted, Abs format (unit mm)*
G04 Created by KiCad (PCBNEW 8.0.4) date 2024-09-09 16:31:10*
%MOMM*%
%LPD*%
G01*
G04 APERTURE LIST*
G04 Aperture macros list*
%AMRoundRect*
0 Rectangle with rounded corners*
0 $1 Rounding radius*
0 $2 $3 $4 $5 $6 $7 $8 $9 X,Y pos of 4 corners*
0 Add a 4 corners polygon primitive as box body*
4,1,4,$2,$3,$4,$5,$6,$7,$8,$9,$2,$3,0*
0 Add four circle primitives for the rounded corners*
1,1,$1+$1,$2,$3*
1,1,$1+$1,$4,$5*
1,1,$1+$1,$6,$7*
1,1,$1+$1,$8,$9*
0 Add four rect primitives between the rounded corners*
20,1,$1+$1,$2,$3,$4,$5,0*
20,1,$1+$1,$4,$5,$6,$7,0*
20,1,$1+$1,$6,$7,$8,$9,0*
20,1,$1+$1,$8,$9,$2,$3,0*%
G04 Aperture macros list end*
%ADD10RoundRect,0.250000X-0.450000X0.262500X-0.450000X-0.262500X0.450000X-0.262500X0.450000X0.262500X0*%
%ADD11R,1.800000X1.800000*%
%ADD12C,1.800000*%
%ADD13RoundRect,0.250000X-0.262500X-0.450000X0.262500X-0.450000X0.262500X0.450000X-0.262500X0.450000X0*%
%ADD14R,1.700000X1.700000*%
%ADD15O,1.700000X1.700000*%
%ADD16RoundRect,0.150000X0.150000X-0.825000X0.150000X0.825000X-0.150000X0.825000X-0.150000X-0.825000X0*%
%ADD17RoundRect,0.250000X0.250000X0.475000X-0.250000X0.475000X-0.250000X-0.475000X0.250000X-0.475000X0*%
%ADD18RoundRect,0.250000X-0.250000X-0.475000X0.250000X-0.475000X0.250000X0.475000X-0.250000X0.475000X0*%
%ADD19R,1.000000X1.500000*%
%ADD20RoundRect,0.250000X0.400000X0.600000X-0.400000X0.600000X-0.400000X-0.600000X0.400000X-0.600000X0*%
%ADD21RoundRect,0.250000X0.475000X-0.250000X0.475000X0.250000X-0.475000X0.250000X-0.475000X-0.250000X0*%
%ADD22RoundRect,0.250000X1.100000X-0.500000X1.100000X0.500000X-1.100000X0.500000X-1.100000X-0.500000X0*%
%ADD23R,1.600000X1.600000*%
%ADD24C,1.600000*%
%ADD25C,4.000000*%
%ADD26C,1.400000*%
%ADD27RoundRect,0.250000X0.262500X0.450000X-0.262500X0.450000X-0.262500X-0.450000X0.262500X-0.450000X0*%
%ADD28RoundRect,0.250000X-0.475000X0.250000X-0.475000X-0.250000X0.475000X-0.250000X0.475000X0.250000X0*%
%ADD29R,3.500000X3.500000*%
%ADD30RoundRect,0.750000X-0.750000X-1.000000X0.750000X-1.000000X0.750000X1.000000X-0.750000X1.000000X0*%
%ADD31RoundRect,0.875000X-0.875000X-0.875000X0.875000X-0.875000X0.875000X0.875000X-0.875000X0.875000X0*%
%ADD32RoundRect,0.250000X-0.600000X0.400000X-0.600000X-0.400000X0.600000X-0.400000X0.600000X0.400000X0*%
%ADD33C,5.600000*%
%ADD34C,1.500000*%
%ADD35RoundRect,0.250000X0.312500X1.450000X-0.312500X1.450000X-0.312500X-1.450000X0.312500X-1.450000X0*%
%ADD36RoundRect,0.250000X0.350000X-0.850000X0.350000X0.850000X-0.350000X0.850000X-0.350000X-0.850000X0*%
%ADD37RoundRect,0.249997X2.650003X-2.950003X2.650003X2.950003X-2.650003X2.950003X-2.650003X-2.950003X0*%
%ADD38R,1.500000X0.550000*%
%ADD39R,0.550000X1.500000*%
G04 APERTURE END LIST*
D10*
%TO.C,R3*%
X128960000Y-102267500D03*
X128960000Y-104092500D03*
%TD*%
D11*
%TO.C,D6*%
X128960000Y-109105000D03*
D12*
X128960000Y-106565000D03*
%TD*%
D13*
%TO.C,R1*%
X129047500Y-75090000D03*
X130872500Y-75090000D03*
%TD*%
D14*
%TO.C,J9*%
X152200000Y-109620000D03*
D15*
X154740000Y-109620000D03*
X157280000Y-109620000D03*
X159820000Y-109620000D03*
X162360000Y-109620000D03*
X164900000Y-109620000D03*
X167440000Y-109620000D03*
X169980000Y-109620000D03*
%TD*%
D14*
%TO.C,J4*%
X153720000Y-84640000D03*
D15*
X156260000Y-84640000D03*
X153720000Y-87180000D03*
X156260000Y-87180000D03*
X153720000Y-89720000D03*
X156260000Y-89720000D03*
%TD*%
D16*
%TO.C,U3*%
X124500000Y-98350000D03*
X125770000Y-98350000D03*
X127040000Y-98350000D03*
X128310000Y-98350000D03*
X129580000Y-98350000D03*
X130850000Y-98350000D03*
X132120000Y-98350000D03*
X133390000Y-98350000D03*
X133390000Y-93400000D03*
X132120000Y-93400000D03*
X130850000Y-93400000D03*
X129580000Y-93400000D03*
X128310000Y-93400000D03*
X127040000Y-93400000D03*
X125770000Y-93400000D03*
X124500000Y-93400000D03*
%TD*%
D17*
%TO.C,C3*%
X129610000Y-86570000D03*
X127710000Y-86570000D03*
%TD*%
D18*
%TO.C,C10*%
X124500000Y-101430000D03*
X126400000Y-101430000D03*
%TD*%
D14*
%TO.C,J8*%
X192575000Y-64620000D03*
D15*
X190035000Y-64620000D03*
X187495000Y-64620000D03*
X184955000Y-64620000D03*
X182415000Y-64620000D03*
X179875000Y-64620000D03*
X177335000Y-64620000D03*
X174795000Y-64620000D03*
%TD*%
D18*
%TO.C,C4*%
X129050000Y-72370000D03*
X130950000Y-72370000D03*
%TD*%
D19*
%TO.C,JP5*%
X125790000Y-89750000D03*
X124490000Y-89750000D03*
%TD*%
D14*
%TO.C,J7*%
X189840000Y-80770000D03*
D15*
X189840000Y-83310000D03*
X189840000Y-85850000D03*
X189840000Y-88390000D03*
X189840000Y-90930000D03*
X189840000Y-93470000D03*
%TD*%
D11*
%TO.C,D8*%
X195620000Y-101050000D03*
D12*
X193080000Y-101050000D03*
%TD*%
D20*
%TO.C,D4*%
X132547500Y-78200000D03*
X129047500Y-78200000D03*
%TD*%
D19*
%TO.C,JP2*%
X161970000Y-74620000D03*
X163270000Y-74620000D03*
%TD*%
D21*
%TO.C,C12*%
X193490000Y-90550000D03*
X193490000Y-88650000D03*
%TD*%
D14*
%TO.C,J6*%
X146000000Y-80770000D03*
D15*
X146000000Y-83310000D03*
X146000000Y-85850000D03*
X146000000Y-88390000D03*
X146000000Y-90930000D03*
X146000000Y-93470000D03*
%TD*%
D22*
%TO.C,D5*%
X119750000Y-83207500D03*
X119750000Y-78407500D03*
%TD*%
D23*
%TO.C,J1*%
X117120000Y-97260000D03*
D24*
X117120000Y-94760000D03*
X115120000Y-94760000D03*
X115120000Y-97260000D03*
D25*
X112260000Y-102010000D03*
X112260000Y-90010000D03*
%TD*%
D26*
%TO.C,JP3*%
X195720000Y-76600000D03*
X198260000Y-76600000D03*
%TD*%
D17*
%TO.C,C1*%
X114984887Y-63670000D03*
X113084887Y-63670000D03*
%TD*%
D27*
%TO.C,R2*%
X130932500Y-69420000D03*
X129107500Y-69420000D03*
%TD*%
D21*
%TO.C,C6*%
X160530000Y-88980000D03*
X160530000Y-87080000D03*
%TD*%
D28*
%TO.C,C8*%
X193490000Y-83880000D03*
X193490000Y-85780000D03*
%TD*%
D26*
%TO.C,JP6*%
X121720000Y-108220000D03*
X121720000Y-105680000D03*
%TD*%
D29*
%TO.C,J2*%
X115280000Y-76260000D03*
D30*
X109280000Y-76260000D03*
D31*
X112280000Y-80960000D03*
%TD*%
D32*
%TO.C,D2*%
X133920000Y-69402500D03*
X133920000Y-72902500D03*
%TD*%
D26*
%TO.C,JP4*%
X198210000Y-74070000D03*
X195670000Y-74070000D03*
%TD*%
D33*
%TO.C,REF\u002A\u002A*%
X198449999Y-65720001D03*
%TD*%
D11*
%TO.C,D7*%
X134090000Y-109095000D03*
D12*
X134090000Y-106555000D03*
%TD*%
D33*
%TO.C,REF\u002A\u002A*%
X105650001Y-108519999D03*
%TD*%
D28*
%TO.C,C9*%
X124750000Y-105680000D03*
X124750000Y-107580000D03*
%TD*%
D14*
%TO.C,J5*%
X152200000Y-64620000D03*
D15*
X154740000Y-64620000D03*
X157280000Y-64620000D03*
X159820000Y-64620000D03*
X162360000Y-64620000D03*
X164900000Y-64620000D03*
X167440000Y-64620000D03*
X169980000Y-64620000D03*
%TD*%
D11*
%TO.C,D3*%
X130940000Y-63945000D03*
D12*
X130940000Y-66485000D03*
%TD*%
D10*
%TO.C,R5*%
X190120000Y-100207500D03*
X190120000Y-102032500D03*
%TD*%
D14*
%TO.C,J10*%
X174800000Y-109620000D03*
D15*
X177340000Y-109620000D03*
X179880000Y-109620000D03*
X182420000Y-109620000D03*
X184960000Y-109620000D03*
X187500000Y-109620000D03*
%TD*%
D22*
%TO.C,D1*%
X124075000Y-83182500D03*
X124075000Y-78382500D03*
%TD*%
D28*
%TO.C,C11*%
X121720000Y-94860000D03*
X121720000Y-96760000D03*
%TD*%
D10*
%TO.C,R4*%
X134080000Y-102157500D03*
X134080000Y-103982500D03*
%TD*%
D14*
%TO.C,J3*%
X129065000Y-82400000D03*
D15*
X131605000Y-82400000D03*
%TD*%
D33*
%TO.C,REF\u002A\u002A*%
X198450000Y-108520000D03*
%TD*%
D21*
%TO.C,C7*%
X181950000Y-86790000D03*
X181950000Y-84890000D03*
%TD*%
D34*
%TO.C,Y1*%
X198200000Y-89370000D03*
X198200000Y-84490000D03*
%TD*%
D35*
%TO.C,F1*%
X117897500Y-108220000D03*
X113622500Y-108220000D03*
%TD*%
D19*
%TO.C,JP1*%
X161970000Y-77460000D03*
X163270000Y-77460000D03*
%TD*%
D36*
%TO.C,U1*%
X119510000Y-72510000D03*
D37*
X121790000Y-66210000D03*
D36*
X124070000Y-72510000D03*
%TD*%
D23*
%TO.C,C2*%
X115260000Y-67950000D03*
D24*
X112760000Y-67950000D03*
%TD*%
D38*
%TO.C,U2*%
X166610000Y-83090000D03*
X166610000Y-83890000D03*
X166610000Y-84690000D03*
X166610000Y-85490000D03*
X166610000Y-86290000D03*
X166610000Y-87090000D03*
X166610000Y-87890000D03*
X166610000Y-88690000D03*
X166610000Y-89490000D03*
X166610000Y-90290000D03*
X166610000Y-91090000D03*
D39*
X168310000Y-92790000D03*
X169110000Y-92790000D03*
X169910000Y-92790000D03*
X170710000Y-92790000D03*
X171510000Y-92790000D03*
X172310000Y-92790000D03*
X173110000Y-92790000D03*
X173910000Y-92790000D03*
X174710000Y-92790000D03*
X175510000Y-92790000D03*
X176310000Y-92790000D03*
D38*
X178010000Y-91090000D03*
X178010000Y-90290000D03*
X178010000Y-89490000D03*
X178010000Y-88690000D03*
X178010000Y-87890000D03*
X178010000Y-87090000D03*
X178010000Y-86290000D03*
X178010000Y-85490000D03*
X178010000Y-84690000D03*
X178010000Y-83890000D03*
X178010000Y-83090000D03*
D39*
X176310000Y-81390000D03*
X175510000Y-81390000D03*
X174710000Y-81390000D03*
X173910000Y-81390000D03*
X173110000Y-81390000D03*
X172310000Y-81390000D03*
X171510000Y-81390000D03*
X170710000Y-81390000D03*
X169910000Y-81390000D03*
X169110000Y-81390000D03*
X168310000Y-81390000D03*
%TD*%
D19*
%TO.C,JP7*%
X128320000Y-89750000D03*
X129620000Y-89750000D03*
%TD*%
D17*
%TO.C,C5*%
X124070000Y-75630000D03*
X122170000Y-75630000D03*
%TD*%
D33*
%TO.C,REF\u002A\u002A*%
X105650000Y-65720000D03*
%TD*%
M02*
